{"glyphs":{"0":{"ha":757,"x_min":44,"x_max":713,"o":"m 625 106 q 581 43 625 106 q 378 -19 538 -19 q 131 106 218 -19 q 44 447 44 232 q 132 778 44 657 q 379 900 219 900 q 626 779 539 900 q 713 447 713 658 q 625 106 713 232 m 228 192 q 254 144 228 192 q 378 96 281 96 q 528 192 475 96 q 582 447 582 288 q 528 694 582 604 q 378 783 475 783 q 228 694 281 783 q 175 447 175 604 q 228 192 175 288 z "},"1":{"ha":757,"x_min":119,"x_max":631,"o":"m 196 0 l 196 111 l 351 111 l 351 743 l 171 646 l 119 744 l 365 879 l 478 879 l 478 111 l 631 111 l 631 0 l 196 0 z "},"2":{"ha":757,"x_min":81,"x_max":650,"o":"m 94 0 l 94 90 q 213 324 94 206 q 352 447 264 375 q 473 560 440 518 q 506 658 506 603 q 469 747 506 707 q 357 786 432 786 q 271 767 310 786 q 214 728 232 747 q 174 679 196 710 l 81 746 q 186 854 115 808 q 365 900 257 900 q 569 833 499 900 q 640 667 640 765 q 588 508 640 578 q 443 367 535 439 q 333 276 369 310 q 265 199 296 243 q 233 114 233 154 l 650 114 l 650 0 l 94 0 z "},"3":{"ha":757,"x_min":47,"x_max":644,"o":"m 47 74 l 121 164 q 322 88 214 88 q 461 135 410 88 q 513 261 513 182 q 467 379 513 335 q 340 424 422 424 q 254 408 296 424 l 214 474 l 460 760 l 110 760 l 110 875 l 613 875 l 613 775 l 388 513 q 574 443 504 513 q 644 260 644 374 q 553 51 644 126 q 321 -24 463 -24 q 47 74 158 -24 z "},"4":{"ha":757,"x_min":68,"x_max":686,"o":"m 68 182 l 68 289 l 465 876 l 592 876 l 592 290 l 686 290 l 686 182 l 592 182 l 592 0 l 471 0 l 471 182 l 68 182 m 192 290 l 471 290 l 471 708 l 192 290 z "},"5":{"ha":757,"x_min":53,"x_max":649,"o":"m 53 72 l 124 164 q 325 89 213 89 q 468 141 418 89 q 518 274 518 193 q 475 394 518 342 q 332 446 432 446 q 181 410 256 446 l 117 458 l 200 875 l 629 875 l 629 758 l 288 758 l 247 529 q 365 553 286 553 q 571 480 493 553 q 649 278 649 407 q 565 62 649 147 q 318 -24 481 -24 q 53 72 158 -24 z "},"6":{"ha":757,"x_min":88,"x_max":688,"o":"m 664 840 l 607 742 q 458 786 544 786 q 283 699 349 786 q 215 489 218 611 q 418 558 317 558 q 616 483 544 558 q 688 271 688 407 q 606 59 688 142 q 400 -24 525 -24 q 169 82 250 -24 q 88 396 88 188 q 185 765 88 632 q 463 899 282 899 q 664 840 572 899 m 214 379 q 399 88 214 88 q 518 138 468 88 q 568 274 568 189 q 528 400 568 353 q 406 447 489 447 q 214 379 292 447 z "},"7":{"ha":757,"x_min":96,"x_max":656,"o":"m 329 0 l 194 0 q 358 418 254 186 q 526 758 461 650 l 96 758 l 96 876 l 656 876 l 656 763 q 483 411 592 664 q 329 0 374 158 z "},"8":{"ha":757,"x_min":61,"x_max":696,"o":"m 379 526 q 487 588 447 547 q 526 682 526 629 q 485 767 526 733 q 379 801 444 801 q 272 767 313 801 q 232 675 232 733 q 271 588 232 628 q 379 526 310 547 m 374 419 q 242 350 294 399 q 190 239 190 301 q 247 122 190 161 q 379 83 304 83 q 511 122 456 83 q 567 239 567 161 q 510 350 567 301 q 374 419 454 399 m 244 478 q 111 675 111 549 q 184 838 111 775 q 379 900 257 900 q 576 840 506 900 q 646 683 646 779 q 610 565 646 618 q 507 482 574 513 q 637 390 578 450 q 696 236 696 329 q 616 56 696 135 q 379 -22 536 -22 q 140 56 219 -22 q 61 235 61 133 q 113 381 61 319 q 244 478 165 443 z "},"9":{"ha":757,"x_min":64,"x_max":668,"o":"m 93 36 l 147 138 q 307 90 222 90 q 476 174 418 90 q 540 383 535 258 q 335 315 458 315 q 138 395 211 315 q 64 604 64 475 q 147 817 64 733 q 356 900 229 900 q 587 794 506 900 q 668 479 668 688 q 574 113 668 246 q 304 -21 481 -21 q 93 36 181 -21 m 542 496 q 357 788 542 788 q 235 738 286 788 q 183 603 183 688 q 225 478 183 526 q 353 429 267 429 q 542 496 465 429 z "}," ":{"ha":251,"x_min":0,"x_max":0,"o":""},"!":{"ha":358,"x_min":100,"x_max":256,"o":"m 113 267 l 108 926 l 247 926 l 244 267 l 113 267 m 100 0 l 100 151 l 256 151 l 256 0 l 100 0 z "},"\"":{"ha":506,"x_min":89,"x_max":422,"o":"m 303 619 l 303 926 l 422 926 l 422 619 l 303 619 m 89 619 l 89 926 l 208 926 l 208 619 l 89 619 z "},"#":{"ha":1049,"x_min":90,"x_max":957,"o":"m 194 0 l 256 228 l 90 228 l 90 328 l 282 328 l 339 540 l 174 540 l 174 640 l 365 640 l 426 868 l 540 868 l 479 640 l 685 640 l 746 868 l 860 868 l 799 640 l 957 640 l 957 540 l 771 540 l 715 328 l 872 328 l 872 228 l 688 228 l 626 0 l 514 0 l 575 228 l 368 228 l 307 0 l 194 0 m 394 328 l 601 328 l 658 540 l 451 540 l 394 328 z "},"$":{"ha":757,"x_min":43,"x_max":694,"o":"m 43 133 l 132 217 q 349 93 229 106 l 349 403 q 251 435 289 419 q 171 479 213 451 q 108 551 129 507 q 88 656 88 596 q 154 815 88 751 q 349 890 221 879 l 349 1013 l 435 1013 l 435 890 q 668 768 583 875 l 579 689 q 435 776 522 760 l 435 501 q 694 231 694 438 q 623 63 694 129 q 435 -18 551 -4 l 435 -140 l 349 -140 l 349 -21 q 43 133 150 -7 m 435 379 l 435 94 q 571 235 571 113 q 542 319 571 288 q 435 379 513 351 m 349 522 l 349 781 q 242 740 276 774 q 208 658 208 707 q 237 576 208 607 q 349 522 265 546 z "},"%":{"ha":1239,"x_min":65,"x_max":1172,"o":"m 275 0 l 838 875 l 956 875 l 393 0 l 275 0 m 1113 54 q 1084 22 1113 54 q 957 -11 1054 -11 q 801 54 860 -11 q 742 240 742 119 q 801 426 742 361 q 957 490 860 490 q 1113 426 1054 490 q 1172 240 1172 361 q 1113 54 1172 119 m 957 76 q 1032 116 1000 76 q 1064 240 1064 156 q 1032 364 1064 325 q 957 403 1000 403 q 881 364 913 403 q 849 240 849 325 q 881 116 849 156 q 957 76 913 76 m 437 463 q 407 430 437 463 q 281 397 378 397 q 124 463 183 397 q 65 649 65 528 q 124 834 65 769 q 281 899 183 899 q 437 834 378 899 q 496 649 496 769 q 437 463 496 528 m 281 485 q 356 524 324 485 q 388 649 388 564 q 356 772 388 733 q 281 811 324 811 q 204 772 236 811 q 172 649 172 733 q 204 524 172 564 q 281 485 236 485 z "},"&":{"ha":886,"x_min":51,"x_max":863,"o":"m 701 0 l 613 101 q 343 -22 494 -22 q 128 51 206 -22 q 51 235 51 125 q 98 392 51 321 q 243 531 144 463 l 226 551 q 157 732 157 639 q 224 885 157 821 q 403 950 290 950 q 640 797 568 950 l 547 738 q 481 819 513 797 q 410 840 449 840 q 321 810 353 840 q 289 733 289 779 q 363 586 289 671 l 615 290 l 736 444 l 831 369 l 693 197 l 863 0 l 701 0 m 535 193 l 317 443 q 215 348 244 393 q 185 242 185 303 q 228 136 185 176 q 349 96 271 96 q 535 193 453 96 z "},"'":{"ha":281,"x_min":81,"x_max":200,"o":"m 81 619 l 81 926 l 200 926 l 200 619 l 81 619 z "},"(":{"ha":403,"x_min":88,"x_max":350,"o":"m 350 -129 l 228 -129 q 132 101 176 -43 q 88 425 88 244 q 132 749 88 604 q 228 981 176 893 l 350 981 q 260 741 297 886 q 222 425 222 596 q 260 110 222 256 q 350 -129 297 -36 z "},")":{"ha":403,"x_min":54,"x_max":315,"o":"m 175 -129 l 54 -129 q 144 110 106 -36 q 182 425 182 257 q 144 740 182 594 q 54 981 106 886 l 175 981 q 271 748 226 893 q 315 425 315 603 q 271 103 315 247 q 175 -129 226 -42 z "},"*":{"ha":696,"x_min":88,"x_max":608,"o":"m 138 539 l 88 626 l 261 719 l 88 811 l 138 899 l 306 793 l 297 992 l 399 992 l 392 793 l 558 899 l 608 811 l 435 719 l 608 626 l 558 539 l 392 644 l 399 447 l 297 447 l 306 644 l 138 539 z "},"+":{"ha":757,"x_min":101,"x_max":656,"o":"m 101 392 l 101 500 l 325 500 l 325 718 l 433 718 l 433 500 l 656 500 l 656 392 l 435 392 l 435 174 l 325 174 l 325 392 l 101 392 z "},",":{"ha":354,"x_min":92,"x_max":264,"o":"m 92 -162 l 163 0 l 107 0 l 107 154 l 264 154 l 264 1 l 168 -162 l 92 -162 z "},"-":{"ha":610,"x_min":101,"x_max":508,"o":"m 101 329 l 101 449 l 508 449 l 508 329 l 101 329 z "},".":{"ha":356,"x_min":99,"x_max":256,"o":"m 99 -1 l 99 154 l 256 154 l 256 -1 l 99 -1 z "},"/":{"ha":564,"x_min":35,"x_max":528,"o":"m 35 -22 l 404 951 l 528 951 l 161 -22 l 35 -22 z "},":":{"ha":356,"x_min":101,"x_max":258,"o":"m 101 492 l 101 647 l 258 647 l 258 492 l 101 492 m 101 -1 l 101 154 l 258 154 l 258 -1 l 101 -1 z "},";":{"ha":365,"x_min":96,"x_max":268,"o":"m 96 -162 l 167 0 l 111 0 l 111 154 l 268 154 l 268 1 l 172 -162 l 96 -162 m 111 492 l 111 647 l 268 647 l 268 492 l 111 492 z "},"<":{"ha":757,"x_min":99,"x_max":654,"o":"m 99 404 l 99 485 l 607 751 l 654 657 l 244 444 l 654 232 l 607 138 l 99 404 z "},"=":{"ha":757,"x_min":101,"x_max":656,"o":"m 101 264 l 101 372 l 656 372 l 656 264 l 101 264 m 101 506 l 101 614 l 656 614 l 656 506 l 101 506 z "},">":{"ha":757,"x_min":101,"x_max":657,"o":"m 149 138 l 101 232 l 511 444 l 101 657 l 149 751 l 657 485 l 657 404 l 149 138 z "},"?":{"ha":703,"x_min":56,"x_max":632,"o":"m 232 0 l 232 153 l 386 153 l 386 0 l 232 0 m 246 267 l 246 306 q 378 551 246 457 q 399 568 379 553 q 423 586 419 583 q 443 603 426 589 q 464 623 460 617 q 479 642 468 629 q 494 665 490 656 q 501 689 497 675 q 504 717 504 703 q 461 802 504 769 q 347 835 418 835 q 139 739 235 835 l 56 815 q 165 907 92 864 q 347 950 238 950 q 556 883 479 950 q 632 717 632 815 q 598 592 632 642 q 490 488 564 543 q 424 435 443 453 q 388 383 404 417 q 371 304 371 349 l 371 267 l 246 267 z "},"@":{"ha":1328,"x_min":67,"x_max":1263,"o":"m 331 56 l 254 -19 q 124 144 181 35 q 67 390 67 253 q 116 637 67 528 q 250 813 165 746 q 441 916 335 881 q 665 951 547 951 q 971 892 838 951 q 1183 710 1104 833 q 1263 411 1263 586 q 1235 202 1263 292 q 1162 67 1207 113 q 1071 -1 1117 21 q 979 -22 1025 -22 q 832 72 861 -22 q 596 -21 739 -21 q 444 31 513 -21 q 376 183 376 83 q 451 351 376 289 q 660 414 525 414 q 815 406 751 414 l 815 429 q 658 558 815 558 q 467 497 553 558 l 407 583 q 672 667 504 667 q 867 606 796 667 q 938 435 938 546 l 938 156 q 999 85 938 85 q 1101 167 1056 85 q 1146 415 1146 249 q 1107 610 1146 525 q 999 747 1068 696 q 845 823 931 797 q 661 849 760 849 q 495 824 575 849 q 344 749 415 800 q 231 608 274 699 q 188 397 188 517 q 331 56 188 181 m 815 228 l 815 306 q 668 315 774 315 q 538 276 576 315 q 499 188 499 238 q 534 111 499 139 q 635 83 569 83 q 760 126 706 83 q 815 228 815 169 z "},"A":{"ha":890,"x_min":14,"x_max":875,"o":"m 14 0 l 376 926 l 513 926 l 875 0 l 726 0 l 631 258 l 250 258 l 154 0 l 14 0 m 289 371 l 590 371 l 440 778 l 289 371 z "},"B":{"ha":819,"x_min":106,"x_max":750,"o":"m 106 0 l 106 926 l 419 926 q 629 860 557 926 q 701 690 701 793 q 651 552 701 608 q 547 490 600 496 q 613 473 581 486 q 677 434 644 460 q 730 363 710 408 q 750 260 750 318 q 403 0 750 0 l 106 0 m 235 540 l 400 540 q 521 575 469 540 q 572 679 572 610 q 400 811 572 811 l 235 811 l 235 540 m 235 115 l 396 115 q 456 117 431 115 q 514 128 482 119 q 567 153 546 138 q 602 197 588 168 q 617 267 617 226 q 581 366 617 328 q 502 415 546 404 q 404 426 458 426 l 235 426 l 235 115 z "},"C":{"ha":940,"x_min":67,"x_max":892,"o":"m 799 240 l 892 163 q 755 38 853 97 q 529 -22 657 -22 q 197 114 326 -22 q 67 460 67 250 q 197 808 67 667 q 532 949 328 949 q 753 894 664 949 q 892 765 842 839 l 797 685 q 533 829 694 829 q 296 724 385 829 q 207 463 207 618 q 296 206 207 308 q 529 103 385 103 q 594 108 564 103 q 650 124 625 113 q 693 144 675 135 q 730 171 711 154 q 758 196 749 188 q 781 221 767 204 q 799 240 796 238 z "},"D":{"ha":993,"x_min":106,"x_max":918,"o":"m 106 0 l 106 926 l 415 926 q 782 810 646 926 q 918 461 918 694 q 781 117 918 235 q 414 0 643 0 l 106 0 m 239 119 l 411 119 q 683 206 588 119 q 778 458 778 292 q 684 718 778 629 q 407 807 590 807 l 239 807 l 239 119 z "},"E":{"ha":783,"x_min":106,"x_max":722,"o":"m 106 0 l 106 926 l 689 926 l 689 808 l 239 808 l 239 539 l 578 539 l 578 419 l 239 419 l 239 119 l 722 119 l 722 0 l 106 0 z "},"F":{"ha":735,"x_min":106,"x_max":688,"o":"m 106 0 l 106 926 l 688 926 l 688 807 l 239 807 l 239 524 l 581 524 l 581 406 l 239 406 l 239 0 l 106 0 z "},"G":{"ha":1001,"x_min":68,"x_max":904,"o":"m 579 356 l 579 471 l 904 471 l 904 101 q 539 -22 767 -22 q 197 114 325 -22 q 68 461 68 250 q 199 808 68 668 q 533 949 329 949 q 893 767 763 949 l 799 686 q 536 831 699 831 q 297 724 388 831 q 207 463 207 618 q 302 201 207 303 q 543 99 397 99 q 776 167 690 99 l 776 356 l 579 356 z "},"H":{"ha":985,"x_min":106,"x_max":879,"o":"m 106 0 l 106 926 l 239 926 l 239 539 l 746 539 l 746 926 l 879 926 l 879 0 l 746 0 l 746 419 l 239 419 l 239 0 l 106 0 z "},"I":{"ha":344,"x_min":106,"x_max":239,"o":"m 106 0 l 106 926 l 239 926 l 239 0 l 106 0 z "},"J":{"ha":686,"x_min":19,"x_max":586,"o":"m 19 104 l 114 188 q 196 120 156 140 q 293 100 236 100 q 408 146 364 100 q 453 283 453 192 l 453 926 l 586 926 l 586 272 q 505 49 586 121 q 296 -24 424 -24 q 19 104 118 -24 z "},"K":{"ha":838,"x_min":106,"x_max":819,"o":"m 106 0 l 106 926 l 238 926 l 238 506 l 625 926 l 778 926 l 433 549 l 819 0 l 660 0 l 343 454 l 238 340 l 238 0 l 106 0 z "},"L":{"ha":761,"x_min":106,"x_max":721,"o":"m 106 0 l 106 926 l 239 926 l 239 118 l 721 118 l 721 0 l 106 0 z "},"M":{"ha":1093,"x_min":94,"x_max":997,"o":"m 94 0 l 138 926 l 265 926 l 547 444 l 829 926 l 954 926 l 997 0 l 867 0 l 836 711 l 575 274 l 508 274 l 251 706 l 219 0 l 94 0 z "},"N":{"ha":982,"x_min":106,"x_max":876,"o":"m 106 0 l 106 926 l 240 926 l 746 203 l 746 926 l 876 926 l 876 0 l 743 0 l 236 725 l 236 0 l 106 0 z "},"O":{"ha":1082,"x_min":68,"x_max":1014,"o":"m 540 -24 q 205 118 342 -24 q 68 464 68 260 q 204 808 68 667 q 540 950 340 950 q 877 808 740 950 q 1014 464 1014 667 q 877 118 1014 260 q 540 -24 740 -24 m 299 208 q 345 155 299 208 q 540 101 392 101 q 782 208 689 101 q 875 465 875 314 q 783 724 875 619 q 540 829 690 829 q 299 724 392 829 q 207 465 207 619 q 299 208 207 314 z "},"P":{"ha":786,"x_min":106,"x_max":719,"o":"m 106 0 l 106 926 l 399 926 q 554 901 489 926 q 654 833 619 875 q 704 744 689 790 q 719 646 719 697 q 633 438 719 511 q 406 364 546 364 l 238 364 l 238 0 l 106 0 m 238 478 l 404 478 q 537 521 490 478 q 583 643 583 564 q 535 767 583 722 q 404 813 488 813 l 238 813 l 238 478 z "},"Q":{"ha":1082,"x_min":67,"x_max":1014,"o":"m 879 -111 l 763 31 q 540 -24 657 -24 q 203 117 340 -24 q 67 463 67 258 q 203 808 67 667 q 540 950 340 950 q 877 808 740 950 q 1014 463 1014 667 q 850 93 1014 236 l 961 -42 l 879 -111 m 682 131 l 567 274 l 650 343 l 768 196 q 874 465 874 299 q 781 724 874 618 q 540 829 689 829 q 299 724 392 829 q 207 465 207 618 q 299 206 207 313 q 540 100 392 100 q 682 131 619 100 z "},"R":{"ha":819,"x_min":106,"x_max":769,"o":"m 106 0 l 106 926 l 401 926 q 644 847 565 926 q 724 654 724 767 q 553 396 724 461 l 769 0 l 619 0 l 421 379 l 235 379 l 235 0 l 106 0 m 235 492 l 413 492 q 543 534 499 492 q 588 650 588 576 q 540 769 588 726 q 410 811 493 811 l 235 811 l 235 492 z "},"S":{"ha":808,"x_min":51,"x_max":724,"o":"m 51 139 l 146 225 q 394 99 257 99 q 538 140 486 99 q 589 253 589 182 q 534 365 589 325 q 363 429 479 404 q 167 522 239 456 q 96 696 96 589 q 177 877 96 804 q 406 950 258 950 q 694 821 589 950 l 606 739 q 400 832 522 832 q 274 792 318 832 q 231 700 231 753 q 283 602 231 636 q 450 540 335 568 q 551 507 507 526 q 638 454 596 488 q 701 369 679 421 q 724 250 724 318 q 630 53 724 131 q 397 -24 536 -24 q 190 25 281 -24 q 51 139 99 74 z "},"T":{"ha":863,"x_min":33,"x_max":829,"o":"m 365 0 l 365 810 l 33 810 l 33 926 l 829 926 l 829 810 l 499 810 l 499 0 l 365 0 z "},"U":{"ha":935,"x_min":99,"x_max":836,"o":"m 99 353 l 99 926 l 232 926 l 232 385 q 285 176 232 249 q 468 103 338 103 q 650 176 597 103 q 703 385 703 249 l 703 926 l 836 926 l 836 353 q 742 81 836 186 q 468 -24 649 -24 q 193 81 288 -24 q 99 353 99 186 z "},"V":{"ha":881,"x_min":14,"x_max":867,"o":"m 372 0 l 14 926 l 163 926 l 444 165 l 726 926 l 867 926 l 508 0 l 372 0 z "},"W":{"ha":1219,"x_min":24,"x_max":1193,"o":"m 271 0 l 24 926 l 171 926 l 349 179 l 550 899 l 679 899 l 876 181 l 1054 926 l 1193 926 l 944 0 l 803 0 l 610 685 l 411 0 l 271 0 z "},"X":{"ha":831,"x_min":13,"x_max":817,"o":"m 13 0 l 336 479 l 31 926 l 192 926 l 417 589 l 639 926 l 785 926 l 488 483 l 817 0 l 657 0 l 408 374 l 160 0 l 13 0 z "},"Y":{"ha":801,"x_min":13,"x_max":788,"o":"m 332 0 l 332 414 l 13 926 l 161 926 l 403 531 l 644 926 l 788 926 l 467 414 l 467 0 l 332 0 z "},"Z":{"ha":892,"x_min":71,"x_max":819,"o":"m 71 0 l 71 117 l 647 808 l 99 808 l 99 926 l 810 926 l 810 808 l 240 118 l 819 118 l 819 0 l 71 0 z "},"[":{"ha":438,"x_min":108,"x_max":401,"o":"m 108 -129 l 108 981 l 401 981 l 401 868 l 233 868 l 233 -14 l 401 -14 l 401 -129 l 108 -129 z "},"\\":{"ha":564,"x_min":35,"x_max":528,"o":"m 401 -22 l 35 951 l 158 951 l 528 -22 l 401 -22 z "},"]":{"ha":438,"x_min":35,"x_max":329,"o":"m 35 -129 l 35 -14 l 203 -14 l 203 868 l 35 868 l 35 981 l 329 981 l 329 -129 l 35 -129 z "},"^":{"ha":763,"x_min":79,"x_max":683,"o":"m 79 428 l 325 926 l 438 926 l 683 428 l 557 428 l 381 800 l 204 428 l 79 428 z "},"_":{"ha":701,"x_min":3,"x_max":697,"o":"m 3 -168 l 3 -97 l 697 -97 l 697 -168 l 3 -168 z "},"`":{"ha":621,"x_min":188,"x_max":400,"o":"m 296 751 l 188 940 l 326 940 l 400 751 l 296 751 z "},"a":{"ha":693,"x_min":49,"x_max":610,"o":"m 489 232 l 489 306 q 340 317 449 317 q 209 278 247 317 q 171 188 171 240 q 207 108 171 135 q 307 81 243 81 q 433 126 378 81 q 489 232 489 172 m 493 0 l 490 78 q 274 -18 419 -18 q 115 31 182 -18 q 49 183 49 81 q 123 351 49 289 q 332 413 197 413 q 489 403 431 413 l 489 426 q 326 561 489 561 q 138 500 224 561 l 79 585 q 340 665 175 665 q 538 605 467 665 q 608 433 608 544 l 608 128 q 610 0 608 32 l 493 0 z "},"b":{"ha":761,"x_min":86,"x_max":706,"o":"m 86 22 l 86 926 l 211 926 l 211 575 q 288 635 236 608 q 411 661 339 661 q 628 567 551 661 q 706 328 706 474 q 605 77 706 174 q 343 -19 504 -19 q 86 22 190 -19 m 210 364 l 210 107 q 342 89 278 89 q 513 154 449 89 q 578 325 578 219 q 531 487 578 422 q 392 551 485 551 q 258 497 306 551 q 210 364 210 442 z "},"c":{"ha":685,"x_min":56,"x_max":647,"o":"m 571 169 l 647 89 q 394 -19 553 -19 q 148 76 240 -19 q 56 324 56 172 q 151 567 56 468 q 394 667 247 667 q 646 558 549 667 l 564 479 q 394 557 501 557 q 240 489 299 557 q 182 324 182 421 q 240 160 182 229 q 394 90 299 90 q 571 169 507 90 z "},"d":{"ha":764,"x_min":54,"x_max":678,"o":"m 551 272 l 551 503 q 393 551 494 551 q 241 487 300 551 q 182 313 182 422 q 229 151 182 214 q 369 89 276 89 q 505 147 458 89 q 551 272 551 206 m 556 0 l 551 82 q 342 -19 468 -19 q 135 72 217 -19 q 54 314 54 164 q 86 471 54 401 q 168 581 118 540 q 274 641 218 621 q 383 661 329 661 q 446 656 415 661 q 491 645 476 650 q 528 630 506 640 q 551 619 550 619 l 551 926 l 676 926 l 676 140 q 678 0 676 46 l 556 0 z "},"e":{"ha":744,"x_min":54,"x_max":692,"o":"m 604 169 l 675 94 q 625 49 654 71 q 531 3 596 26 q 392 -19 467 -19 q 147 76 240 -19 q 54 328 54 172 q 145 568 54 471 q 376 665 236 665 q 556 610 482 665 q 660 472 629 554 q 692 286 692 389 l 182 286 q 247 144 185 201 q 393 88 308 88 q 604 169 529 88 m 182 379 l 563 379 q 508 509 557 458 q 376 560 460 560 q 238 506 292 560 q 182 379 185 453 z "},"f":{"ha":458,"x_min":18,"x_max":551,"o":"m 135 0 l 135 542 l 18 542 l 18 646 l 135 646 l 135 699 q 199 886 135 822 q 360 950 264 950 q 551 879 475 950 l 489 799 q 379 842 438 842 q 260 688 260 842 l 260 646 l 444 646 l 444 542 l 260 542 l 260 0 l 135 0 z "},"g":{"ha":760,"x_min":54,"x_max":675,"o":"m 550 264 l 550 532 q 418 551 492 551 q 248 485 314 551 q 182 317 182 419 q 228 163 182 222 q 368 103 274 103 q 503 151 456 103 q 550 264 550 199 m 114 -224 l 172 -132 q 364 -186 253 -186 q 501 -136 454 -186 q 549 0 549 -86 l 549 79 q 536 67 547 78 q 518 52 525 57 q 497 37 511 47 q 468 20 482 26 q 435 8 454 14 q 394 -2 417 1 q 349 -6 372 -6 q 132 83 210 -6 q 54 315 54 172 q 156 564 54 467 q 418 661 257 661 q 675 617 564 661 l 675 0 q 594 -217 675 -140 q 365 -294 513 -294 q 114 -224 206 -294 z "},"h":{"ha":754,"x_min":85,"x_max":672,"o":"m 85 0 l 85 926 l 208 926 l 208 550 q 424 661 292 661 q 610 589 547 661 q 672 388 672 517 l 672 0 l 547 0 l 547 378 q 399 553 547 553 q 255 480 300 553 q 210 300 210 407 l 210 0 l 85 0 z "},"i":{"ha":308,"x_min":83,"x_max":224,"o":"m 83 761 l 83 901 l 224 901 l 224 761 l 83 761 m 92 0 l 92 646 l 217 646 l 217 0 l 92 0 z "},"j":{"ha":308,"x_min":-125,"x_max":224,"o":"m -125 -226 l -74 -140 q 7 -169 -35 -169 q 73 -124 54 -169 q 92 26 92 -79 l 92 646 l 217 646 l 217 -8 q 175 -205 217 -132 q 19 -278 133 -278 q -125 -226 -61 -278 m 83 761 l 83 901 l 224 901 l 224 761 l 83 761 z "},"k":{"ha":679,"x_min":85,"x_max":667,"o":"m 85 0 l 85 926 l 210 926 l 210 381 l 481 646 l 631 646 l 386 407 l 667 0 l 518 0 l 299 324 l 210 238 l 210 0 l 85 0 z "},"l":{"ha":297,"x_min":86,"x_max":211,"o":"m 86 0 l 86 926 l 211 926 l 211 0 l 86 0 z "},"m":{"ha":1181,"x_min":85,"x_max":1099,"o":"m 86 0 l 86 506 q 85 646 86 600 l 204 646 l 208 549 q 418 661 283 661 q 619 544 563 661 q 854 661 718 661 q 1038 589 976 661 q 1099 388 1099 517 l 1099 0 l 974 0 l 974 378 q 835 553 974 553 q 707 495 758 553 q 656 358 656 438 l 656 0 l 531 0 l 531 378 q 393 553 531 553 q 255 480 299 553 q 211 300 211 407 l 211 0 l 86 0 z "},"n":{"ha":756,"x_min":85,"x_max":674,"o":"m 86 0 l 86 506 q 85 646 86 600 l 204 646 l 208 549 q 425 661 290 661 q 611 589 549 661 q 674 388 674 517 l 674 0 l 549 0 l 549 378 q 400 553 549 553 q 256 480 301 553 q 211 300 211 407 l 211 0 l 86 0 z "},"o":{"ha":794,"x_min":56,"x_max":739,"o":"m 397 -19 q 153 81 250 -19 q 56 324 56 181 q 153 567 56 467 q 397 667 250 667 q 641 566 543 667 q 739 324 739 465 q 641 81 739 182 q 397 -19 543 -19 m 397 89 q 553 159 494 89 q 613 324 613 229 q 553 488 613 417 q 397 558 493 558 q 241 488 300 558 q 182 324 182 418 q 242 160 182 231 q 397 89 301 89 z "},"p":{"ha":775,"x_min":85,"x_max":719,"o":"m 86 -278 l 86 506 q 85 646 86 600 l 204 646 l 208 554 q 428 660 292 660 q 644 563 569 660 q 719 319 719 465 q 690 169 719 236 q 611 62 660 101 q 506 1 563 22 q 389 -19 449 -19 q 210 22 301 -19 l 210 -278 l 86 -278 m 210 306 l 210 140 q 378 89 274 89 q 532 154 472 89 q 592 319 592 219 q 545 487 592 422 q 400 551 499 551 q 219 407 260 551 q 210 306 210 378 z "},"q":{"ha":761,"x_min":54,"x_max":674,"o":"m 549 -278 l 549 64 q 518 33 538 50 q 454 -1 499 17 q 358 -19 410 -19 q 134 76 214 -19 q 54 315 54 171 q 156 564 54 467 q 418 661 257 661 q 674 617 563 661 l 674 -278 l 549 -278 m 550 261 l 550 532 q 418 551 492 551 q 245 488 308 551 q 182 317 182 424 q 228 155 182 221 q 368 89 275 89 q 503 138 457 89 q 550 261 550 186 z "},"r":{"ha":506,"x_min":85,"x_max":490,"o":"m 86 0 l 86 514 q 85 646 86 603 l 204 646 l 208 542 q 419 656 286 656 q 490 644 457 656 l 463 528 q 399 538 439 538 q 265 480 319 538 q 211 340 211 422 l 211 0 l 86 0 z "},"s":{"ha":656,"x_min":51,"x_max":596,"o":"m 51 79 l 128 163 q 324 86 204 86 q 429 107 389 86 q 469 169 469 128 q 433 235 469 214 q 285 282 396 256 q 79 475 79 328 q 155 615 79 564 q 333 667 231 667 q 578 585 482 667 l 510 499 q 335 561 440 561 q 203 478 203 561 q 244 419 203 439 q 376 378 286 399 q 539 309 482 353 q 596 178 596 265 q 517 33 596 85 q 326 -19 439 -19 q 51 79 143 -19 z "},"t":{"ha":533,"x_min":25,"x_max":524,"o":"m 142 211 l 142 542 l 25 542 l 25 646 l 142 646 l 142 857 l 267 857 l 267 646 l 456 646 l 456 542 l 267 542 l 267 224 q 290 118 267 149 q 360 88 313 88 q 467 132 418 88 l 524 56 q 340 -18 446 -18 q 190 38 238 -18 q 142 211 142 93 z "},"u":{"ha":753,"x_min":82,"x_max":667,"o":"m 82 258 l 82 646 l 207 646 l 207 267 q 353 93 207 93 q 496 166 451 93 q 540 346 540 239 l 540 646 l 665 646 l 665 140 q 667 0 665 46 l 547 0 l 543 96 q 328 -14 461 -14 q 143 58 204 -14 q 82 258 82 129 z "},"v":{"ha":697,"x_min":8,"x_max":688,"o":"m 286 0 l 8 646 l 151 646 l 353 142 l 553 646 l 688 646 l 411 0 l 286 0 z "},"w":{"ha":1003,"x_min":15,"x_max":986,"o":"m 233 0 l 15 646 l 153 646 l 297 153 l 453 646 l 560 646 l 715 149 l 857 646 l 986 646 l 772 0 l 649 0 l 499 451 l 350 0 l 233 0 z "},"x":{"ha":676,"x_min":11,"x_max":664,"o":"m 11 0 l 261 333 l 29 646 l 185 646 l 340 432 l 493 646 l 632 646 l 407 343 l 664 0 l 507 0 l 328 244 l 151 0 l 11 0 z "},"y":{"ha":697,"x_min":13,"x_max":683,"o":"m 32 -246 l 89 -158 q 165 -190 124 -190 q 226 -159 204 -190 q 281 -47 249 -128 q 285 -36 283 -40 l 301 6 l 13 646 l 156 646 l 364 158 l 547 646 l 683 646 l 425 17 q 401 -46 418 0 q 374 -117 385 -92 q 342 -181 364 -143 q 299 -241 321 -219 q 244 -278 278 -262 q 172 -294 211 -294 q 32 -246 88 -294 z "},"z":{"ha":661,"x_min":72,"x_max":599,"o":"m 72 0 l 72 99 l 442 540 l 85 540 l 85 646 l 594 646 l 594 546 l 218 104 l 599 104 l 599 0 l 72 0 z "},"{":{"ha":401,"x_min":43,"x_max":365,"o":"m 168 39 l 149 275 q 119 352 146 321 q 43 386 93 383 l 43 465 q 119 499 93 468 q 149 576 146 531 l 168 813 q 236 981 178 933 l 365 981 q 297 828 304 921 l 276 564 q 175 426 268 453 q 276 288 268 400 l 297 24 q 365 -129 304 -69 l 236 -129 q 168 39 178 -82 z "},"|":{"ha":324,"x_min":104,"x_max":219,"o":"m 104 -228 l 104 1157 l 219 1157 l 219 -228 l 104 -228 z "},"}":{"ha":401,"x_min":36,"x_max":358,"o":"m 165 -129 l 36 -129 q 104 24 97 -69 l 125 288 q 226 426 133 400 q 125 564 133 453 l 104 828 q 36 981 97 921 l 165 981 q 233 813 224 933 l 253 576 q 282 499 256 531 q 358 465 308 468 l 358 386 q 282 352 308 383 q 253 275 256 321 l 233 39 q 165 -129 224 -82 z "},"~":{"ha":664,"x_min":57,"x_max":604,"o":"m 547 500 l 604 419 q 439 335 532 335 q 351 358 396 335 q 221 399 279 399 q 115 346 172 399 q 86 385 106 358 q 57 425 67 411 q 226 511 143 511 q 344 469 269 511 q 426 446 389 446 q 547 500 489 446 z "}," ":{"ha":264,"x_min":0,"x_max":0,"o":""},"¡":{"ha":358,"x_min":103,"x_max":258,"o":"m 111 -281 l 114 379 l 246 379 l 250 -281 l 111 -281 m 103 494 l 103 646 l 258 646 l 258 494 l 103 494 z "},"¢":{"ha":757,"x_min":100,"x_max":692,"o":"m 385 -26 l 385 96 q 176 206 253 113 q 100 436 100 300 q 179 662 100 567 q 385 776 258 757 l 385 901 l 469 901 l 469 778 q 689 672 600 769 l 607 594 q 469 669 553 660 l 469 204 q 615 281 564 215 l 692 200 q 469 93 604 103 l 469 -26 l 385 -26 m 385 210 l 385 663 q 269 579 311 643 q 226 436 226 515 q 270 294 226 361 q 385 210 314 228 z "},"£":{"ha":757,"x_min":75,"x_max":711,"o":"m 176 0 l 176 399 l 75 399 l 75 504 l 176 504 l 176 617 q 182 685 176 651 q 206 760 188 719 q 254 830 225 800 q 335 880 283 860 q 456 900 388 900 q 683 807 582 900 q 689 801 688 803 l 608 713 q 456 783 540 783 q 310 590 310 783 l 310 504 l 588 504 l 588 399 l 310 399 l 310 119 l 711 119 l 711 0 l 176 0 z "},"¤":{"ha":757,"x_min":51,"x_max":704,"o":"m 128 142 l 51 219 l 142 311 q 96 464 96 379 q 142 617 96 547 l 51 707 l 128 785 l 218 694 q 378 746 289 746 q 538 696 465 746 l 628 785 l 704 707 l 614 617 q 661 464 661 544 q 614 310 661 382 l 704 219 l 628 142 l 538 231 q 378 182 468 182 q 218 232 285 182 l 128 142 m 253 588 q 227 562 253 588 q 201 464 201 536 q 253 340 201 392 q 378 288 306 288 q 503 340 451 288 q 556 464 556 392 q 503 588 556 536 q 378 640 450 640 q 253 588 306 640 z "},"¥":{"ha":757,"x_min":24,"x_max":733,"o":"m 100 174 l 100 258 l 317 258 l 317 342 l 314 378 l 100 378 l 100 463 l 264 463 l 24 876 l 171 876 l 382 483 l 592 876 l 733 876 l 493 463 l 663 463 l 663 378 l 444 378 l 442 342 l 442 258 l 663 258 l 663 174 l 442 174 l 442 0 l 317 0 l 317 174 l 100 174 z "},"¦":{"ha":324,"x_min":104,"x_max":219,"o":"m 104 -228 l 104 299 l 219 299 l 219 -228 l 104 -228 m 104 631 l 104 1157 l 219 1157 l 219 631 l 104 631 z "},"§":{"ha":643,"x_min":79,"x_max":568,"o":"m 500 272 l 238 443 q 81 688 81 547 q 153 874 81 796 q 344 951 226 951 q 542 879 447 951 l 479 785 q 342 836 413 836 q 242 794 281 836 q 204 703 204 753 q 306 549 204 614 l 568 375 l 500 272 m 100 -222 l 163 -129 q 306 -181 233 -181 q 407 -140 371 -181 q 443 -47 443 -99 q 342 107 443 40 l 79 281 l 147 383 l 411 213 q 567 -33 567 108 q 495 -218 567 -142 q 303 -294 424 -294 q 100 -222 208 -294 z "},"¨":{"ha":483,"x_min":57,"x_max":424,"o":"m 294 778 l 294 904 l 424 904 l 424 778 l 294 778 m 57 778 l 57 904 l 188 904 l 188 778 l 57 778 z "},"©":{"ha":1124,"x_min":79,"x_max":1043,"o":"m 903 122 q 834 51 903 122 q 561 -19 764 -19 q 219 122 358 -19 q 79 465 79 263 q 219 809 79 668 q 563 950 358 950 q 903 809 764 950 q 1043 465 1043 668 q 903 122 1043 263 m 290 186 q 344 130 290 186 q 561 74 399 74 q 832 186 724 74 q 940 464 940 299 q 832 742 940 629 q 563 856 724 856 q 291 742 400 856 q 182 464 182 629 q 290 186 182 299 m 707 372 l 781 313 q 568 200 704 200 q 378 275 451 200 q 306 465 306 350 q 381 653 306 578 q 568 728 456 728 q 781 615 704 728 l 706 561 q 572 635 653 635 q 456 585 501 635 q 410 464 410 536 q 456 346 410 396 q 572 296 501 296 q 707 372 657 296 z "},"ª":{"ha":529,"x_min":64,"x_max":449,"o":"m 356 621 l 356 654 q 265 660 328 660 q 183 640 208 660 q 157 592 157 619 q 240 535 157 535 q 320 560 285 535 q 356 621 356 585 m 128 775 l 79 842 q 258 900 147 900 q 397 859 346 900 q 447 744 447 818 l 447 551 q 449 467 447 493 l 358 467 q 356 506 358 475 q 294 469 332 483 q 222 456 256 456 q 110 488 157 456 q 64 589 64 521 q 115 697 64 660 q 260 735 167 735 q 354 729 311 735 l 354 740 q 253 817 354 817 q 128 775 183 817 z "},"«":{"ha":697,"x_min":90,"x_max":606,"o":"m 482 63 l 336 331 l 482 599 l 606 599 l 465 331 l 606 63 l 482 63 m 236 63 l 90 331 l 236 599 l 360 599 l 219 331 l 360 63 l 236 63 z "},"¬":{"ha":757,"x_min":101,"x_max":656,"o":"m 101 393 l 101 501 l 656 501 l 656 204 l 546 204 l 546 393 l 101 393 z "},"­":{"ha":610,"x_min":104,"x_max":511,"o":"m 104 329 l 104 449 l 511 449 l 511 329 l 104 329 z "},"®":{"ha":1124,"x_min":79,"x_max":1043,"o":"m 393 222 l 393 713 l 582 713 q 711 669 667 713 q 756 568 756 625 q 660 425 756 464 l 779 222 l 674 222 l 564 413 l 486 413 l 486 222 l 393 222 m 486 486 l 578 486 q 660 563 660 486 q 572 635 660 635 l 486 635 l 486 486 m 903 122 q 834 51 903 122 q 561 -19 764 -19 q 219 122 358 -19 q 79 465 79 263 q 219 809 79 668 q 563 950 358 950 q 903 809 764 950 q 1043 465 1043 668 q 903 122 1043 263 m 290 186 q 344 130 290 186 q 561 74 399 74 q 832 186 724 74 q 940 464 940 299 q 832 742 940 629 q 563 856 724 856 q 291 742 400 856 q 182 464 182 629 q 290 186 182 299 z "},"¯":{"ha":485,"x_min":69,"x_max":417,"o":"m 69 785 l 69 885 l 417 885 l 417 785 l 69 785 z "},"°":{"ha":461,"x_min":40,"x_max":419,"o":"m 95 599 q 68 625 95 599 q 40 731 40 651 q 95 863 40 810 q 229 917 150 917 q 365 864 310 917 q 419 732 419 811 q 365 599 419 653 q 231 546 310 546 q 95 599 150 546 m 159 658 q 173 644 159 658 q 231 629 188 629 q 302 658 274 629 q 331 732 331 688 q 302 803 331 774 q 229 832 274 832 q 159 803 188 832 q 131 731 131 774 q 159 658 131 688 z "},"±":{"ha":757,"x_min":101,"x_max":656,"o":"m 101 392 l 101 500 l 325 500 l 325 718 l 433 718 l 433 500 l 656 500 l 656 392 l 435 392 l 435 174 l 325 174 l 325 392 l 101 392 m 101 0 l 101 108 l 656 108 l 656 0 l 101 0 z "},"²":{"ha":500,"x_min":60,"x_max":428,"o":"m 68 411 l 68 469 q 106 558 68 517 q 190 624 144 600 q 273 681 235 649 q 311 747 311 714 q 290 792 311 778 q 239 807 269 807 q 106 750 171 807 l 60 824 q 251 899 140 899 q 382 858 338 899 q 426 754 426 817 q 394 663 426 703 q 320 602 361 622 q 239 554 279 582 q 188 500 199 526 l 428 500 l 428 411 l 68 411 z "},"³":{"ha":500,"x_min":47,"x_max":421,"o":"m 47 449 l 97 525 q 218 483 147 483 q 289 502 263 483 q 315 557 315 521 q 215 631 315 631 q 154 622 179 631 l 133 665 l 282 799 l 85 799 l 85 885 l 401 885 l 401 806 l 279 693 q 385 648 349 686 q 421 550 421 610 q 365 440 421 483 q 219 397 310 397 q 47 449 118 397 z "},"´":{"ha":557,"x_min":213,"x_max":424,"o":"m 213 750 l 288 939 l 424 939 l 317 750 l 213 750 z "},"µ":{"ha":753,"x_min":83,"x_max":668,"o":"m 83 -278 l 83 646 l 208 646 l 208 267 q 247 137 208 181 q 356 93 286 93 q 492 154 440 93 q 543 299 543 215 l 543 646 l 667 646 l 667 151 q 668 0 667 49 l 550 0 q 546 92 546 29 q 343 -14 467 -14 q 208 32 265 -14 l 208 -278 l 83 -278 z "},"¶":{"ha":744,"x_min":63,"x_max":635,"o":"m 408 926 l 408 424 q 63 675 63 424 q 408 926 63 926 m 507 -169 l 507 926 l 635 926 l 635 -169 l 507 -169 m 282 -169 l 282 357 q 371 347 308 347 l 408 347 l 408 -169 l 282 -169 z "},"·":{"ha":351,"x_min":99,"x_max":256,"o":"m 99 371 l 99 526 l 256 526 l 256 371 l 99 371 z "},"¸":{"ha":781,"x_min":114,"x_max":421,"o":"m 114 -275 l 129 -200 q 229 -219 185 -219 q 319 -165 319 -219 q 239 -117 319 -117 q 143 -135 194 -117 l 156 -58 q 272 -40 210 -40 q 382 -75 343 -40 q 421 -161 421 -110 q 371 -260 421 -225 q 247 -296 321 -296 q 114 -275 163 -296 z "},"¹":{"ha":500,"x_min":86,"x_max":354,"o":"m 247 411 l 247 774 l 125 713 l 86 792 l 261 885 l 354 885 l 354 411 l 247 411 z "},"º":{"ha":568,"x_min":58,"x_max":510,"o":"m 122 519 q 90 550 122 519 q 58 678 58 582 q 122 837 58 774 q 285 900 185 900 q 447 837 383 900 q 510 678 510 774 q 447 519 510 582 q 285 456 383 456 q 122 519 185 456 m 192 583 q 209 564 192 583 q 285 544 225 544 q 376 583 344 544 q 408 678 408 622 q 376 772 408 732 q 285 811 343 811 q 192 772 225 811 q 160 678 160 732 q 192 583 160 622 z "},"»":{"ha":697,"x_min":97,"x_max":613,"o":"m 343 63 l 483 331 l 343 599 l 467 599 l 613 331 l 467 63 l 343 63 m 97 63 l 238 331 l 97 599 l 221 599 l 367 331 l 221 63 l 97 63 z "},"¼":{"ha":1239,"x_min":93,"x_max":1138,"o":"m 275 0 l 838 875 l 956 875 l 393 0 l 275 0 m 254 411 l 254 774 l 132 713 l 93 792 l 268 885 l 361 885 l 361 411 l 254 411 m 725 93 l 725 172 l 974 475 l 1079 475 l 1079 174 l 1138 174 l 1138 93 l 1079 93 l 1079 3 l 983 3 l 983 93 l 725 93 m 817 174 l 983 174 l 983 374 l 817 174 z "},"½":{"ha":1239,"x_min":83,"x_max":1144,"o":"m 242 0 l 804 875 l 922 875 l 360 0 l 242 0 m 244 411 l 244 774 l 122 713 l 83 792 l 258 885 l 351 885 l 351 411 l 244 411 m 785 1 l 785 60 q 823 149 785 107 q 906 215 861 190 q 990 272 951 239 q 1028 338 1028 304 q 1007 383 1028 368 q 956 397 986 397 q 822 340 888 397 l 776 414 q 968 489 857 489 q 1099 448 1054 489 q 1143 344 1143 407 q 1110 253 1143 293 q 1037 192 1078 213 q 956 144 996 172 q 904 90 915 117 l 1144 90 l 1144 1 l 785 1 z "},"¾":{"ha":1239,"x_min":82,"x_max":1160,"o":"m 301 0 l 864 875 l 982 875 l 419 0 l 301 0 m 747 93 l 747 172 l 996 475 l 1101 475 l 1101 174 l 1160 174 l 1160 93 l 1101 93 l 1101 3 l 1006 3 l 1006 93 l 747 93 m 839 174 l 1006 174 l 1006 374 l 839 174 m 82 449 l 132 525 q 253 483 182 483 q 324 502 297 483 q 350 557 350 521 q 250 631 350 631 q 189 622 214 631 l 168 665 l 317 799 l 119 799 l 119 885 l 436 885 l 436 806 l 314 693 q 419 648 383 686 q 456 550 456 610 q 400 440 456 483 q 254 397 344 397 q 82 449 153 397 z "},"¿":{"ha":703,"x_min":94,"x_max":671,"o":"m 340 493 l 340 646 l 494 646 l 494 493 l 340 493 m 588 -93 l 671 -169 q 562 -261 635 -218 q 379 -304 489 -304 q 171 -237 247 -304 q 94 -71 94 -169 q 128 53 94 4 q 236 158 163 103 q 302 211 283 194 q 338 262 321 228 q 356 342 356 296 l 356 379 l 481 379 l 481 340 q 349 94 481 189 q 287 48 308 67 q 244 -3 265 29 q 222 -71 222 -36 q 265 -156 222 -124 q 379 -189 308 -189 q 588 -93 499 -189 z "},"À":{"ha":890,"x_min":14,"x_max":875,"o":"m 14 0 l 376 926 l 513 926 l 875 0 l 726 0 l 631 258 l 250 258 l 154 0 l 14 0 m 289 371 l 590 371 l 440 778 l 289 371 m 418 1000 l 272 1208 l 428 1208 l 531 1000 l 418 1000 z "},"Á":{"ha":890,"x_min":14,"x_max":875,"o":"m 14 0 l 376 926 l 513 926 l 875 0 l 726 0 l 631 258 l 250 258 l 154 0 l 14 0 m 289 371 l 590 371 l 440 778 l 289 371 m 375 1000 l 476 1208 l 635 1208 l 488 1000 l 375 1000 z "},"Â":{"ha":890,"x_min":14,"x_max":875,"o":"m 14 0 l 376 926 l 513 926 l 875 0 l 726 0 l 631 258 l 250 258 l 154 0 l 14 0 m 289 371 l 590 371 l 440 778 l 289 371 m 224 1000 l 381 1208 l 503 1208 q 657 1000 561 1131 l 542 1000 l 440 1128 l 340 1000 l 224 1000 z "},"Ã":{"ha":890,"x_min":14,"x_max":875,"o":"m 14 0 l 376 926 l 513 926 l 875 0 l 726 0 l 631 258 l 250 258 l 154 0 l 14 0 m 289 371 l 590 371 l 440 778 l 289 371 m 238 1029 l 182 1108 q 346 1188 256 1188 q 444 1157 390 1188 q 532 1126 497 1126 q 650 1178 588 1126 q 677 1140 657 1168 q 707 1097 697 1113 q 544 1017 632 1017 q 447 1049 501 1017 q 357 1081 393 1081 q 238 1029 300 1081 z "},"Ä":{"ha":890,"x_min":14,"x_max":875,"o":"m 14 0 l 376 926 l 513 926 l 875 0 l 726 0 l 631 258 l 250 258 l 154 0 l 14 0 m 289 371 l 590 371 l 440 778 l 289 371 m 510 1036 l 510 1172 l 650 1172 l 650 1036 l 510 1036 m 239 1036 l 239 1172 l 379 1172 l 379 1036 l 239 1036 z "},"Å":{"ha":890,"x_min":14,"x_max":875,"o":"m 14 0 l 363 893 q 278 1038 278 936 q 326 1156 278 1108 q 446 1203 375 1203 q 565 1157 517 1203 q 614 1040 614 1111 q 525 892 614 935 l 875 0 l 726 0 l 631 258 l 250 258 l 154 0 l 14 0 m 289 371 l 590 371 l 440 778 l 289 371 m 447 957 q 503 981 482 957 q 525 1040 525 1004 q 503 1097 525 1075 q 446 1119 482 1119 q 390 1097 411 1119 q 368 1038 368 1074 q 390 980 368 1003 q 447 957 411 957 z "},"Æ":{"ha":1322,"x_min":4,"x_max":1261,"o":"m 4 0 l 571 926 l 1228 926 l 1228 807 l 776 807 l 776 538 l 1118 538 l 1118 418 l 776 418 l 776 119 l 1261 119 l 1261 0 l 644 0 l 644 249 l 296 249 l 144 0 l 4 0 m 363 360 l 644 360 l 644 821 l 363 360 z "},"Ç":{"ha":940,"x_min":67,"x_max":892,"o":"m 799 240 l 892 163 q 755 38 853 97 q 529 -22 657 -22 q 197 114 326 -22 q 67 460 67 250 q 197 808 67 667 q 532 949 328 949 q 753 894 664 949 q 892 765 842 839 l 797 685 q 533 829 694 829 q 296 724 385 829 q 207 463 207 618 q 296 206 207 308 q 529 103 385 103 q 594 108 564 103 q 650 124 625 113 q 693 144 675 135 q 730 171 711 154 q 758 196 749 188 q 781 221 767 204 q 799 240 796 238 m 372 -211 q 475 -231 428 -231 q 563 -178 563 -231 q 485 -135 563 -135 q 386 -151 433 -135 q 400 -72 392 -125 q 519 -54 463 -54 q 632 -89 592 -54 q 672 -175 672 -124 q 620 -275 672 -239 q 494 -311 568 -311 q 357 -290 406 -311 q 372 -211 368 -237 z "},"È":{"ha":783,"x_min":106,"x_max":722,"o":"m 106 0 l 106 926 l 689 926 l 689 808 l 239 808 l 239 539 l 578 539 l 578 419 l 239 419 l 239 119 l 722 119 l 722 0 l 106 0 m 385 1000 l 239 1208 l 394 1208 l 497 1000 l 385 1000 z "},"É":{"ha":783,"x_min":106,"x_max":722,"o":"m 106 0 l 106 926 l 689 926 l 689 808 l 239 808 l 239 539 l 578 539 l 578 419 l 239 419 l 239 119 l 722 119 l 722 0 l 106 0 m 331 1000 l 432 1208 l 590 1208 l 443 1000 l 331 1000 z "},"Ê":{"ha":783,"x_min":106,"x_max":722,"o":"m 106 0 l 106 926 l 689 926 l 689 808 l 239 808 l 239 539 l 578 539 l 578 419 l 239 419 l 239 119 l 722 119 l 722 0 l 106 0 m 179 1000 l 336 1208 l 458 1208 q 613 1000 517 1131 l 497 1000 l 396 1128 l 296 1000 l 179 1000 z "},"Ë":{"ha":783,"x_min":106,"x_max":722,"o":"m 106 0 l 106 926 l 689 926 l 689 808 l 239 808 l 239 539 l 578 539 l 578 419 l 239 419 l 239 119 l 722 119 l 722 0 l 106 0 m 461 1036 l 461 1172 l 601 1172 l 601 1036 l 461 1036 m 190 1036 l 190 1172 l 331 1172 l 331 1036 l 190 1036 z "},"Ì":{"ha":344,"x_min":-14,"x_max":244,"o":"m 106 0 l 106 926 l 239 926 l 239 0 l 106 0 m 132 1000 l -14 1208 l 142 1208 l 244 1000 l 132 1000 z "},"Í":{"ha":344,"x_min":103,"x_max":363,"o":"m 106 0 l 106 926 l 239 926 l 239 0 l 106 0 m 103 1000 l 204 1208 l 363 1208 l 215 1000 l 103 1000 z "},"Î":{"ha":344,"x_min":-43,"x_max":390,"o":"m 106 0 l 106 926 l 239 926 l 239 0 l 106 0 m -43 1000 l 114 1208 l 236 1208 q 390 1000 294 1131 l 275 1000 l 174 1128 l 74 1000 l -43 1000 z "},"Ï":{"ha":344,"x_min":-32,"x_max":379,"o":"m 106 0 l 106 926 l 239 926 l 239 0 l 106 0 m 239 1036 l 239 1172 l 379 1172 l 379 1036 l 239 1036 m -32 1036 l -32 1172 l 108 1172 l 108 1036 l -32 1036 z "},"Ð":{"ha":1000,"x_min":14,"x_max":925,"o":"m 114 0 l 114 418 l 14 418 l 14 528 l 114 528 l 114 926 l 424 926 q 790 810 654 926 q 925 461 925 694 q 788 117 925 235 q 422 0 651 0 l 114 0 m 247 119 l 421 119 q 692 206 597 119 q 788 460 788 292 q 694 719 788 629 q 417 808 601 808 l 247 808 l 247 528 l 481 528 l 481 418 l 247 418 l 247 119 z "},"Ñ":{"ha":982,"x_min":106,"x_max":876,"o":"m 106 0 l 106 926 l 240 926 l 746 203 l 746 926 l 876 926 l 876 0 l 743 0 l 236 725 l 236 0 l 106 0 m 265 1029 l 210 1108 q 374 1188 283 1188 q 472 1157 418 1188 q 560 1126 525 1126 q 678 1178 615 1126 q 705 1140 685 1168 q 735 1097 725 1113 q 572 1017 660 1017 q 475 1049 529 1017 q 385 1081 421 1081 q 265 1029 328 1081 z "},"Ò":{"ha":1082,"x_min":68,"x_max":1014,"o":"m 540 -24 q 205 118 342 -24 q 68 464 68 260 q 204 808 68 667 q 540 950 340 950 q 877 808 740 950 q 1014 464 1014 667 q 877 118 1014 260 q 540 -24 740 -24 m 299 208 q 345 155 299 208 q 540 101 392 101 q 782 208 689 101 q 875 465 875 314 q 783 724 875 619 q 540 829 690 829 q 299 724 392 829 q 207 465 207 619 q 299 208 207 314 m 517 1000 l 371 1208 l 526 1208 l 629 1000 l 517 1000 z "},"Ó":{"ha":1082,"x_min":68,"x_max":1014,"o":"m 540 -24 q 205 118 342 -24 q 68 464 68 260 q 204 808 68 667 q 540 950 340 950 q 877 808 740 950 q 1014 464 1014 667 q 877 118 1014 260 q 540 -24 740 -24 m 299 208 q 345 155 299 208 q 540 101 392 101 q 782 208 689 101 q 875 465 875 314 q 783 724 875 619 q 540 829 690 829 q 299 724 392 829 q 207 465 207 619 q 299 208 207 314 m 472 1000 l 574 1208 l 732 1208 l 585 1000 l 472 1000 z "},"Ô":{"ha":1082,"x_min":68,"x_max":1014,"o":"m 540 -24 q 205 118 342 -24 q 68 464 68 260 q 204 808 68 667 q 540 950 340 950 q 877 808 740 950 q 1014 464 1014 667 q 877 118 1014 260 q 540 -24 740 -24 m 299 208 q 345 155 299 208 q 540 101 392 101 q 782 208 689 101 q 875 465 875 314 q 783 724 875 619 q 540 829 690 829 q 299 724 392 829 q 207 465 207 619 q 299 208 207 314 m 321 1000 l 478 1208 l 600 1208 q 754 1000 658 1131 l 639 1000 l 538 1128 l 438 1000 l 321 1000 z "},"Õ":{"ha":1082,"x_min":68,"x_max":1014,"o":"m 540 -24 q 205 118 342 -24 q 68 464 68 260 q 204 808 68 667 q 540 950 340 950 q 877 808 740 950 q 1014 464 1014 667 q 877 118 1014 260 q 540 -24 740 -24 m 299 208 q 345 155 299 208 q 540 101 392 101 q 782 208 689 101 q 875 465 875 314 q 783 724 875 619 q 540 829 690 829 q 299 724 392 829 q 207 465 207 619 q 299 208 207 314 m 335 1029 l 279 1108 q 443 1188 353 1188 q 541 1157 488 1188 q 629 1126 594 1126 q 747 1178 685 1126 q 774 1140 754 1168 q 804 1097 794 1113 q 642 1017 729 1017 q 544 1049 599 1017 q 454 1081 490 1081 q 335 1029 397 1081 z "},"Ö":{"ha":1082,"x_min":68,"x_max":1014,"o":"m 540 -24 q 205 118 342 -24 q 68 464 68 260 q 204 808 68 667 q 540 950 340 950 q 877 808 740 950 q 1014 464 1014 667 q 877 118 1014 260 q 540 -24 740 -24 m 299 208 q 345 155 299 208 q 540 101 392 101 q 782 208 689 101 q 875 465 875 314 q 783 724 875 619 q 540 829 690 829 q 299 724 392 829 q 207 465 207 619 q 299 208 207 314 m 606 1036 l 606 1172 l 746 1172 l 746 1036 l 606 1036 m 335 1036 l 335 1172 l 475 1172 l 475 1036 l 335 1036 z "},"×":{"ha":757,"x_min":133,"x_max":622,"o":"m 133 276 l 303 444 l 136 613 l 211 689 l 379 521 l 547 690 l 622 614 l 454 446 l 621 279 l 544 203 l 379 371 l 210 201 l 133 276 z "},"Ø":{"ha":1082,"x_min":68,"x_max":1014,"o":"m 122 -22 l 214 107 q 68 463 68 246 q 204 808 68 667 q 540 950 340 950 q 763 893 664 950 l 844 1008 l 939 949 l 856 829 q 972 667 931 763 q 1014 463 1014 571 q 877 117 1014 258 q 540 -24 740 -24 q 303 39 417 -24 l 217 -82 l 122 -22 m 781 722 l 376 144 q 540 100 450 100 q 783 206 690 100 q 875 465 875 313 q 781 722 875 619 m 290 218 l 692 792 q 540 829 624 829 q 299 724 392 829 q 207 465 207 618 q 290 218 207 318 z "},"Ù":{"ha":935,"x_min":99,"x_max":836,"o":"m 99 353 l 99 926 l 232 926 l 232 385 q 285 176 232 249 q 468 103 338 103 q 650 176 597 103 q 703 385 703 249 l 703 926 l 836 926 l 836 353 q 742 81 836 186 q 468 -24 649 -24 q 193 81 288 -24 q 99 353 99 186 m 453 1000 l 307 1208 l 463 1208 l 565 1000 l 453 1000 z "},"Ú":{"ha":935,"x_min":99,"x_max":836,"o":"m 99 353 l 99 926 l 232 926 l 232 385 q 285 176 232 249 q 468 103 338 103 q 650 176 597 103 q 703 385 703 249 l 703 926 l 836 926 l 836 353 q 742 81 836 186 q 468 -24 649 -24 q 193 81 288 -24 q 99 353 99 186 m 390 1000 l 492 1208 l 650 1208 l 503 1000 l 390 1000 z "},"Û":{"ha":935,"x_min":99,"x_max":836,"o":"m 99 353 l 99 926 l 232 926 l 232 385 q 285 176 232 249 q 468 103 338 103 q 650 176 597 103 q 703 385 703 249 l 703 926 l 836 926 l 836 353 q 742 81 836 186 q 468 -24 649 -24 q 193 81 288 -24 q 99 353 99 186 m 250 1000 l 407 1208 l 529 1208 q 683 1000 588 1131 l 568 1000 l 467 1128 l 367 1000 l 250 1000 z "},"Ü":{"ha":935,"x_min":99,"x_max":836,"o":"m 99 353 l 99 926 l 232 926 l 232 385 q 285 176 232 249 q 468 103 338 103 q 650 176 597 103 q 703 385 703 249 l 703 926 l 836 926 l 836 353 q 742 81 836 186 q 468 -24 649 -24 q 193 81 288 -24 q 99 353 99 186 m 532 1036 l 532 1172 l 672 1172 l 672 1036 l 532 1036 m 261 1036 l 261 1172 l 401 1172 l 401 1036 l 261 1036 z "},"Ý":{"ha":801,"x_min":13,"x_max":788,"o":"m 332 0 l 332 414 l 13 926 l 161 926 l 403 531 l 644 926 l 788 926 l 467 414 l 467 0 l 332 0 m 340 1000 l 442 1208 l 600 1208 l 453 1000 l 340 1000 z "},"Þ":{"ha":786,"x_min":106,"x_max":719,"o":"m 106 0 l 106 926 l 233 926 l 233 757 l 397 757 q 553 731 488 757 q 654 663 619 706 q 704 575 689 621 q 719 478 719 529 q 633 268 719 342 q 404 194 546 194 l 233 194 l 233 0 l 106 0 m 233 308 l 403 308 q 535 353 489 308 q 582 474 582 397 q 534 598 582 553 q 403 643 486 643 l 233 643 l 233 308 z "},"ß":{"ha":814,"x_min":86,"x_max":757,"o":"m 86 0 l 86 660 q 381 949 86 949 q 554 894 485 949 q 624 753 624 839 q 598 658 624 703 q 542 588 572 614 q 485 528 511 561 q 460 465 460 494 q 569 383 460 411 q 709 315 661 358 q 757 179 757 271 q 693 35 757 89 q 514 -18 629 -18 q 293 53 382 -18 l 367 143 q 510 88 431 88 q 602 110 571 88 q 633 172 633 133 q 608 238 633 214 q 517 285 583 263 q 450 307 475 297 q 395 337 425 317 q 351 388 365 357 q 338 464 338 419 q 363 548 338 507 q 417 615 388 589 q 471 674 446 642 q 496 735 496 707 q 464 810 496 781 q 369 840 432 840 q 210 653 210 840 l 210 0 l 86 0 z "},"à":{"ha":693,"x_min":49,"x_max":610,"o":"m 489 232 l 489 306 q 340 317 449 317 q 209 278 247 317 q 171 188 171 240 q 207 108 171 135 q 307 81 243 81 q 433 126 378 81 q 489 232 489 172 m 493 0 l 490 78 q 274 -18 419 -18 q 115 31 182 -18 q 49 183 49 81 q 123 351 49 289 q 332 413 197 413 q 489 403 431 413 l 489 426 q 326 561 489 561 q 138 500 224 561 l 79 585 q 340 665 175 665 q 538 605 467 665 q 608 433 608 544 l 608 128 q 610 0 608 32 l 493 0 m 313 751 l 204 940 l 343 940 l 417 751 l 313 751 z "},"á":{"ha":693,"x_min":49,"x_max":610,"o":"m 489 232 l 489 306 q 340 317 449 317 q 209 278 247 317 q 171 188 171 240 q 207 108 171 135 q 307 81 243 81 q 433 126 378 81 q 489 232 489 172 m 493 0 l 490 78 q 274 -18 419 -18 q 115 31 182 -18 q 49 183 49 81 q 123 351 49 289 q 332 413 197 413 q 489 403 431 413 l 489 426 q 326 561 489 561 q 138 500 224 561 l 79 585 q 340 665 175 665 q 538 605 467 665 q 608 433 608 544 l 608 128 q 610 0 608 32 l 493 0 m 281 750 l 356 939 l 492 939 l 385 750 l 281 750 z "},"â":{"ha":693,"x_min":49,"x_max":610,"o":"m 489 232 l 489 306 q 340 317 449 317 q 209 278 247 317 q 171 188 171 240 q 207 108 171 135 q 307 81 243 81 q 433 126 378 81 q 489 232 489 172 m 493 0 l 490 78 q 274 -18 419 -18 q 115 31 182 -18 q 49 183 49 81 q 123 351 49 289 q 332 413 197 413 q 489 403 431 413 l 489 426 q 326 561 489 561 q 138 500 224 561 l 79 585 q 340 665 175 665 q 538 605 467 665 q 608 433 608 544 l 608 128 q 610 0 608 32 l 493 0 m 140 749 l 278 939 l 396 939 l 533 749 l 419 749 l 336 864 l 254 749 l 140 749 z "},"ã":{"ha":693,"x_min":49,"x_max":610,"o":"m 489 232 l 489 306 q 340 317 449 317 q 209 278 247 317 q 171 188 171 240 q 207 108 171 135 q 307 81 243 81 q 433 126 378 81 q 489 232 489 172 m 493 0 l 490 78 q 274 -18 419 -18 q 115 31 182 -18 q 49 183 49 81 q 123 351 49 289 q 332 413 197 413 q 489 403 431 413 l 489 426 q 326 561 489 561 q 138 500 224 561 l 79 585 q 340 665 175 665 q 538 605 467 665 q 608 433 608 544 l 608 128 q 610 0 608 32 l 493 0 m 142 768 l 90 842 q 246 917 160 917 q 338 887 286 917 q 428 857 389 857 q 474 867 453 858 q 505 882 494 875 q 536 907 515 889 l 586 832 q 432 756 515 756 q 340 786 392 756 q 254 817 288 817 q 142 768 196 817 z "},"ä":{"ha":693,"x_min":49,"x_max":610,"o":"m 489 232 l 489 306 q 340 317 449 317 q 209 278 247 317 q 171 188 171 240 q 207 108 171 135 q 307 81 243 81 q 433 126 378 81 q 489 232 489 172 m 493 0 l 490 78 q 274 -18 419 -18 q 115 31 182 -18 q 49 183 49 81 q 123 351 49 289 q 332 413 197 413 q 489 403 431 413 l 489 426 q 326 561 489 561 q 138 500 224 561 l 79 585 q 340 665 175 665 q 538 605 467 665 q 608 433 608 544 l 608 128 q 610 0 608 32 l 493 0 m 404 778 l 404 904 l 533 904 l 533 778 l 404 778 m 167 778 l 167 904 l 297 904 l 297 778 l 167 778 z "},"å":{"ha":693,"x_min":49,"x_max":610,"o":"m 489 232 l 489 306 q 340 317 449 317 q 209 278 247 317 q 171 188 171 240 q 207 108 171 135 q 307 81 243 81 q 433 126 378 81 q 489 232 489 172 m 493 0 l 490 78 q 274 -18 419 -18 q 115 31 182 -18 q 49 183 49 81 q 123 351 49 289 q 332 413 197 413 q 489 403 431 413 l 489 426 q 326 561 489 561 q 138 500 224 561 l 79 585 q 340 665 175 665 q 538 605 467 665 q 608 433 608 544 l 608 128 q 610 0 608 32 l 493 0 m 240 785 q 217 807 240 785 q 194 890 194 828 q 239 996 194 953 q 347 1039 283 1039 q 456 997 411 1039 q 500 892 500 954 q 456 785 500 828 q 349 743 413 743 q 240 785 285 743 m 298 839 q 308 828 298 839 q 347 818 318 818 q 397 839 376 818 q 418 890 418 860 q 397 941 418 921 q 347 961 376 961 q 298 941 318 961 q 278 890 278 921 q 298 839 278 860 z "},"æ":{"ha":1171,"x_min":49,"x_max":1118,"o":"m 138 500 l 79 585 q 333 665 190 665 q 569 556 507 665 q 803 665 653 665 q 1039 557 960 665 q 1118 288 1118 449 l 610 288 q 673 146 610 204 q 819 88 736 88 q 1031 169 956 88 l 1101 94 q 1051 49 1081 71 q 958 3 1022 26 q 818 -19 893 -19 q 550 111 643 -19 q 435 10 496 39 q 283 -18 374 -18 q 117 31 186 -18 q 49 182 49 79 q 122 342 49 286 q 332 397 196 397 q 422 393 364 397 q 489 389 481 389 l 489 426 q 332 561 489 561 q 138 500 224 561 m 489 232 l 489 292 q 340 301 414 301 q 209 268 250 301 q 168 186 168 235 q 205 108 168 135 q 307 81 242 81 q 436 126 383 81 q 489 232 489 171 m 608 381 l 989 381 q 935 510 983 460 q 803 560 886 560 q 665 506 718 560 q 608 381 611 453 z "},"ç":{"ha":685,"x_min":56,"x_max":647,"o":"m 571 169 l 647 89 q 394 -19 553 -19 q 148 76 240 -19 q 56 324 56 172 q 151 567 56 468 q 394 667 247 667 q 646 558 549 667 l 564 479 q 394 557 501 557 q 240 489 299 557 q 182 324 182 421 q 240 160 182 229 q 394 90 299 90 q 571 169 507 90 m 221 -290 l 236 -215 q 336 -235 292 -235 q 426 -181 426 -235 q 346 -132 426 -132 q 250 -150 301 -132 l 263 -74 q 379 -56 317 -56 q 489 -90 450 -56 q 528 -176 528 -125 q 478 -276 528 -240 q 354 -311 428 -311 q 221 -290 269 -311 z "},"è":{"ha":744,"x_min":54,"x_max":692,"o":"m 604 169 l 675 94 q 625 49 654 71 q 531 3 596 26 q 392 -19 467 -19 q 147 76 240 -19 q 54 328 54 172 q 145 568 54 471 q 376 665 236 665 q 556 610 482 665 q 660 472 629 554 q 692 286 692 389 l 182 286 q 247 144 185 201 q 393 88 308 88 q 604 169 529 88 m 182 379 l 563 379 q 508 509 557 458 q 376 560 460 560 q 238 506 292 560 q 182 379 185 453 m 347 751 l 239 940 l 378 940 l 451 751 l 347 751 z "},"é":{"ha":744,"x_min":54,"x_max":692,"o":"m 604 169 l 675 94 q 625 49 654 71 q 531 3 596 26 q 392 -19 467 -19 q 147 76 240 -19 q 54 328 54 172 q 145 568 54 471 q 376 665 236 665 q 556 610 482 665 q 660 472 629 554 q 692 286 692 389 l 182 286 q 247 144 185 201 q 393 88 308 88 q 604 169 529 88 m 182 379 l 563 379 q 508 509 557 458 q 376 560 460 560 q 238 506 292 560 q 182 379 185 453 m 321 750 l 396 939 l 532 939 l 425 750 l 321 750 z "},"ê":{"ha":744,"x_min":54,"x_max":692,"o":"m 604 169 l 675 94 q 625 49 654 71 q 531 3 596 26 q 392 -19 467 -19 q 147 76 240 -19 q 54 328 54 172 q 145 568 54 471 q 376 665 236 665 q 556 610 482 665 q 660 472 629 554 q 692 286 692 389 l 182 286 q 247 144 185 201 q 393 88 308 88 q 604 169 529 88 m 182 379 l 563 379 q 508 509 557 458 q 376 560 460 560 q 238 506 292 560 q 182 379 185 453 m 176 749 l 314 939 l 432 939 l 569 749 l 456 749 l 372 864 l 290 749 l 176 749 z "},"ë":{"ha":744,"x_min":54,"x_max":692,"o":"m 604 169 l 675 94 q 625 49 654 71 q 531 3 596 26 q 392 -19 467 -19 q 147 76 240 -19 q 54 328 54 172 q 145 568 54 471 q 376 665 236 665 q 556 610 482 665 q 660 472 629 554 q 692 286 692 389 l 182 286 q 247 144 185 201 q 393 88 308 88 q 604 169 529 88 m 182 379 l 563 379 q 508 509 557 458 q 376 560 460 560 q 238 506 292 560 q 182 379 185 453 m 426 778 l 426 904 l 556 904 l 556 778 l 426 778 m 189 778 l 189 904 l 319 904 l 319 778 l 189 778 z "},"ì":{"ha":308,"x_min":-1,"x_max":217,"o":"m 107 751 l -1 940 l 138 940 l 211 751 l 107 751 m 92 0 l 92 646 l 217 646 l 217 0 l 92 0 z "},"í":{"ha":308,"x_min":92,"x_max":310,"o":"m 99 750 l 174 939 l 310 939 l 203 750 l 99 750 m 92 0 l 92 646 l 217 646 l 217 0 l 92 0 z "},"î":{"ha":308,"x_min":-42,"x_max":351,"o":"m 92 0 l 92 646 l 217 646 l 217 0 l 92 0 m -42 749 l 96 939 l 214 939 l 351 749 l 238 749 l 154 864 l 72 749 l -42 749 z "},"ï":{"ha":308,"x_min":-28,"x_max":339,"o":"m 210 778 l 210 904 l 339 904 l 339 778 l 210 778 m -28 778 l -28 904 l 103 904 l 103 778 l -28 778 m 92 0 l 92 646 l 217 646 l 217 0 l 92 0 z "},"ð":{"ha":775,"x_min":56,"x_max":719,"o":"m 242 733 l 306 822 q 181 844 261 836 l 194 942 q 368 910 294 935 l 435 1003 l 506 958 l 447 878 q 651 680 583 810 q 719 375 719 550 q 623 79 719 181 q 376 -22 526 -22 q 149 64 242 -22 q 56 304 56 150 q 149 532 56 436 q 383 628 242 628 q 563 586 482 628 q 386 790 514 722 l 313 689 l 242 733 m 585 463 q 403 519 499 519 q 245 460 307 519 q 183 303 183 400 q 240 149 183 208 q 382 89 296 89 q 532 160 469 89 q 594 372 594 232 q 585 463 594 429 z "},"ñ":{"ha":756,"x_min":85,"x_max":674,"o":"m 86 0 l 86 506 q 85 646 86 600 l 204 646 l 208 549 q 425 661 290 661 q 611 589 549 661 q 674 388 674 517 l 674 0 l 549 0 l 549 378 q 400 553 549 553 q 256 480 301 553 q 211 300 211 407 l 211 0 l 86 0 m 182 768 l 131 842 q 286 917 200 917 q 378 887 326 917 q 468 857 429 857 q 514 867 493 858 q 545 882 535 875 q 576 907 556 889 l 626 832 q 472 756 556 756 q 380 786 432 756 q 294 817 328 817 q 182 768 236 817 z "},"ò":{"ha":794,"x_min":56,"x_max":739,"o":"m 397 -19 q 153 81 250 -19 q 56 324 56 181 q 153 567 56 467 q 397 667 250 667 q 641 566 543 667 q 739 324 739 465 q 641 81 739 182 q 397 -19 543 -19 m 397 89 q 553 159 494 89 q 613 324 613 229 q 553 488 613 417 q 397 558 493 558 q 241 488 300 558 q 182 324 182 418 q 242 160 182 231 q 397 89 301 89 m 365 751 l 257 940 l 396 940 l 469 751 l 365 751 z "},"ó":{"ha":794,"x_min":56,"x_max":739,"o":"m 397 -19 q 153 81 250 -19 q 56 324 56 181 q 153 567 56 467 q 397 667 250 667 q 641 566 543 667 q 739 324 739 465 q 641 81 739 182 q 397 -19 543 -19 m 397 89 q 553 159 494 89 q 613 324 613 229 q 553 488 613 417 q 397 558 493 558 q 241 488 300 558 q 182 324 182 418 q 242 160 182 231 q 397 89 301 89 m 338 750 l 413 939 l 549 939 l 442 750 l 338 750 z "},"ô":{"ha":794,"x_min":56,"x_max":739,"o":"m 397 -19 q 153 81 250 -19 q 56 324 56 181 q 153 567 56 467 q 397 667 250 667 q 641 566 543 667 q 739 324 739 465 q 641 81 739 182 q 397 -19 543 -19 m 397 89 q 553 159 494 89 q 613 324 613 229 q 553 488 613 417 q 397 558 493 558 q 241 488 300 558 q 182 324 182 418 q 242 160 182 231 q 397 89 301 89 m 199 749 l 336 939 l 454 939 l 592 749 l 478 749 l 394 864 l 313 749 l 199 749 z "},"õ":{"ha":794,"x_min":56,"x_max":739,"o":"m 397 -19 q 153 81 250 -19 q 56 324 56 181 q 153 567 56 467 q 397 667 250 667 q 641 566 543 667 q 739 324 739 465 q 641 81 739 182 q 397 -19 543 -19 m 397 89 q 553 159 494 89 q 613 324 613 229 q 553 488 613 417 q 397 558 493 558 q 241 488 300 558 q 182 324 182 418 q 242 160 182 231 q 397 89 301 89 m 201 768 l 150 842 q 306 917 219 917 q 397 887 346 917 q 488 857 449 857 q 533 867 513 858 q 565 882 554 875 q 596 907 575 889 l 646 832 q 492 756 575 756 q 399 786 451 756 q 314 817 347 817 q 201 768 256 817 z "},"ö":{"ha":794,"x_min":56,"x_max":739,"o":"m 397 -19 q 153 81 250 -19 q 56 324 56 181 q 153 567 56 467 q 397 667 250 667 q 641 566 543 667 q 739 324 739 465 q 641 81 739 182 q 397 -19 543 -19 m 397 89 q 553 159 494 89 q 613 324 613 229 q 553 488 613 417 q 397 558 493 558 q 241 488 300 558 q 182 324 182 418 q 242 160 182 231 q 397 89 301 89 m 451 778 l 451 904 l 581 904 l 581 778 l 451 778 m 214 778 l 214 904 l 344 904 l 344 778 l 214 778 z "},"÷":{"ha":756,"x_min":100,"x_max":654,"o":"m 100 392 l 100 500 l 654 500 l 654 392 l 100 392 m 315 172 l 315 290 l 439 290 l 439 172 l 315 172 m 315 603 l 315 719 l 439 719 l 439 603 l 315 603 z "},"ø":{"ha":794,"x_min":54,"x_max":739,"o":"m 99 -25 l 164 68 q 54 324 54 169 q 152 566 54 467 q 397 665 250 665 q 553 628 481 665 l 621 724 l 700 675 l 631 575 q 739 324 739 469 q 641 81 739 181 q 397 -19 543 -19 q 240 15 317 -19 l 176 -74 l 99 -25 m 560 474 l 306 110 q 397 88 346 88 q 553 158 494 88 q 613 324 613 229 q 560 474 613 406 m 235 169 l 488 535 q 397 557 447 557 q 240 487 300 557 q 181 324 181 417 q 235 169 181 236 z "},"ù":{"ha":753,"x_min":82,"x_max":667,"o":"m 82 258 l 82 646 l 207 646 l 207 267 q 353 93 207 93 q 496 166 451 93 q 540 346 540 239 l 540 646 l 665 646 l 665 140 q 667 0 665 46 l 547 0 l 543 96 q 328 -14 461 -14 q 143 58 204 -14 q 82 258 82 129 m 340 751 l 232 940 l 371 940 l 444 751 l 340 751 z "},"ú":{"ha":753,"x_min":82,"x_max":667,"o":"m 82 258 l 82 646 l 207 646 l 207 267 q 353 93 207 93 q 496 166 451 93 q 540 346 540 239 l 540 646 l 665 646 l 665 140 q 667 0 665 46 l 547 0 l 543 96 q 328 -14 461 -14 q 143 58 204 -14 q 82 258 82 129 m 313 750 l 388 939 l 524 939 l 417 750 l 313 750 z "},"û":{"ha":753,"x_min":82,"x_max":667,"o":"m 82 258 l 82 646 l 207 646 l 207 267 q 353 93 207 93 q 496 166 451 93 q 540 346 540 239 l 540 646 l 665 646 l 665 140 q 667 0 665 46 l 547 0 l 543 96 q 328 -14 461 -14 q 143 58 204 -14 q 82 258 82 129 m 178 749 l 315 939 l 433 939 l 571 749 l 457 749 l 374 864 l 292 749 l 178 749 z "},"ü":{"ha":753,"x_min":82,"x_max":667,"o":"m 82 258 l 82 646 l 207 646 l 207 267 q 353 93 207 93 q 496 166 451 93 q 540 346 540 239 l 540 646 l 665 646 l 665 140 q 667 0 665 46 l 547 0 l 543 96 q 328 -14 461 -14 q 143 58 204 -14 q 82 258 82 129 m 431 778 l 431 904 l 560 904 l 560 778 l 431 778 m 193 778 l 193 904 l 324 904 l 324 778 l 193 778 z "},"ý":{"ha":697,"x_min":13,"x_max":683,"o":"m 32 -246 l 89 -158 q 165 -190 124 -190 q 226 -159 204 -190 q 281 -47 249 -128 q 285 -36 283 -40 l 301 6 l 13 646 l 156 646 l 364 158 l 547 646 l 683 646 l 425 17 q 401 -46 418 0 q 374 -117 385 -92 q 342 -181 364 -143 q 299 -241 321 -219 q 244 -278 278 -262 q 172 -294 211 -294 q 32 -246 88 -294 m 293 750 l 368 939 l 504 939 l 397 750 l 293 750 z "},"þ":{"ha":775,"x_min":86,"x_max":719,"o":"m 210 -278 l 88 -278 q 87 324 88 -76 q 86 926 86 725 l 210 926 l 210 560 q 293 628 238 597 q 428 660 349 660 q 645 564 571 660 q 719 322 719 468 q 690 169 719 238 q 611 62 660 101 q 506 1 563 22 q 389 -19 449 -19 q 210 22 301 -19 l 210 -278 m 210 306 l 210 140 q 378 89 274 89 q 533 154 474 89 q 592 322 592 219 q 545 488 592 425 q 400 551 499 551 q 288 513 333 551 q 221 415 242 474 q 210 306 210 386 z "},"ÿ":{"ha":697,"x_min":13,"x_max":683,"o":"m 32 -246 l 89 -158 q 165 -190 124 -190 q 226 -159 204 -190 q 281 -47 249 -128 q 285 -36 283 -40 l 301 6 l 13 646 l 156 646 l 364 158 l 547 646 l 683 646 l 425 17 q 401 -46 418 0 q 374 -117 385 -92 q 342 -181 364 -143 q 299 -241 321 -219 q 244 -278 278 -262 q 172 -294 211 -294 q 32 -246 88 -294 m 407 778 l 407 904 l 536 904 l 536 778 l 407 778 m 169 778 l 169 904 l 300 904 l 300 778 l 169 778 z "},"Ā":{"ha":890,"x_min":14,"x_max":875,"o":"m 14 0 l 376 926 l 513 926 l 875 0 l 726 0 l 631 258 l 250 258 l 154 0 l 14 0 m 289 371 l 590 371 l 440 778 l 289 371 m 226 1051 l 226 1156 l 664 1156 l 664 1051 l 226 1051 z "},"ā":{"ha":693,"x_min":49,"x_max":610,"o":"m 489 232 l 489 306 q 340 317 449 317 q 209 278 247 317 q 171 188 171 240 q 207 108 171 135 q 307 81 243 81 q 433 126 378 81 q 489 232 489 172 m 493 0 l 490 78 q 274 -18 419 -18 q 115 31 182 -18 q 49 183 49 81 q 123 351 49 289 q 332 413 197 413 q 489 403 431 413 l 489 426 q 326 561 489 561 q 138 500 224 561 l 79 585 q 340 665 175 665 q 538 605 467 665 q 608 433 608 544 l 608 128 q 610 0 608 32 l 493 0 m 179 785 l 179 885 l 526 885 l 526 785 l 179 785 z "},"Ă":{"ha":890,"x_min":14,"x_max":875,"o":"m 14 0 l 376 926 l 513 926 l 875 0 l 726 0 l 631 258 l 250 258 l 154 0 l 14 0 m 289 371 l 590 371 l 440 778 l 289 371 m 238 1186 l 340 1186 q 369 1120 342 1147 q 443 1093 396 1093 q 518 1120 490 1093 q 547 1186 546 1147 l 650 1186 q 596 1056 650 1110 q 443 1003 542 1003 q 292 1056 346 1003 q 238 1186 238 1110 z "},"ă":{"ha":693,"x_min":49,"x_max":610,"o":"m 489 232 l 489 306 q 340 317 449 317 q 209 278 247 317 q 171 188 171 240 q 207 108 171 135 q 307 81 243 81 q 433 126 378 81 q 489 232 489 172 m 493 0 l 490 78 q 274 -18 419 -18 q 115 31 182 -18 q 49 183 49 81 q 123 351 49 289 q 332 413 197 413 q 489 403 431 413 l 489 426 q 326 561 489 561 q 138 500 224 561 l 79 585 q 340 665 175 665 q 538 605 467 665 q 608 433 608 544 l 608 128 q 610 0 608 32 l 493 0 m 149 929 l 247 929 q 272 863 247 890 q 342 836 296 836 q 412 863 388 836 q 436 929 436 890 l 533 929 q 483 804 533 857 q 342 751 432 751 q 200 804 251 751 q 149 929 149 857 z "},"Ą":{"ha":890,"x_min":14,"x_max":954,"o":"m 14 0 l 376 926 l 513 926 l 875 0 q 793 -135 793 -76 q 840 -175 793 -175 q 918 -147 869 -175 l 954 -229 q 806 -278 885 -278 q 672 -171 672 -278 q 767 0 672 -97 l 726 0 l 631 258 l 250 258 l 154 0 l 14 0 m 289 371 l 590 371 l 440 778 l 289 371 z "},"ą":{"ha":693,"x_min":49,"x_max":690,"o":"m 493 0 l 490 78 q 274 -18 419 -18 q 115 31 182 -18 q 49 183 49 81 q 123 351 49 289 q 332 413 197 413 q 489 403 431 413 l 489 426 q 326 561 489 561 q 138 500 224 561 l 79 585 q 340 665 175 665 q 538 605 467 665 q 608 433 608 544 l 608 128 q 610 0 608 32 q 528 -132 528 -79 q 575 -174 528 -174 q 657 -144 611 -174 l 690 -226 q 549 -272 622 -272 q 452 -244 486 -272 q 418 -165 418 -215 q 508 0 418 -93 l 493 0 m 489 232 l 489 306 q 340 317 449 317 q 209 278 247 317 q 171 188 171 240 q 207 108 171 135 q 307 81 243 81 q 433 126 378 81 q 489 232 489 172 z "},"Ć":{"ha":940,"x_min":67,"x_max":892,"o":"m 799 240 l 892 163 q 755 38 853 97 q 529 -22 657 -22 q 197 114 326 -22 q 67 460 67 250 q 197 808 67 667 q 532 949 328 949 q 753 894 664 949 q 892 765 842 839 l 797 685 q 533 829 694 829 q 296 724 385 829 q 207 463 207 618 q 296 206 207 308 q 529 103 385 103 q 594 108 564 103 q 650 124 625 113 q 693 144 675 135 q 730 171 711 154 q 758 196 749 188 q 781 221 767 204 q 799 240 796 238 m 450 1000 l 551 1208 l 710 1208 l 563 1000 l 450 1000 z "},"ć":{"ha":685,"x_min":56,"x_max":647,"o":"m 571 169 l 647 89 q 394 -19 553 -19 q 148 76 240 -19 q 56 324 56 172 q 151 567 56 468 q 394 667 247 667 q 646 558 549 667 l 564 479 q 394 557 501 557 q 240 489 299 557 q 182 324 182 421 q 240 160 182 229 q 394 90 299 90 q 571 169 507 90 m 325 750 l 400 939 l 536 939 l 429 750 l 325 750 z "},"Ĉ":{"ha":940,"x_min":67,"x_max":892,"o":"m 799 240 l 892 163 q 755 38 853 97 q 529 -22 657 -22 q 197 114 326 -22 q 67 460 67 250 q 197 808 67 667 q 532 949 328 949 q 753 894 664 949 q 892 765 842 839 l 797 685 q 533 829 694 829 q 296 724 385 829 q 207 463 207 618 q 296 206 207 308 q 529 103 385 103 q 594 108 564 103 q 650 124 625 113 q 693 144 675 135 q 730 171 711 154 q 758 196 749 188 q 781 221 767 204 q 799 240 796 238 m 313 1000 l 469 1208 l 592 1208 q 746 1000 650 1131 l 631 1000 l 529 1128 l 429 1000 l 313 1000 z "},"ĉ":{"ha":685,"x_min":56,"x_max":647,"o":"m 571 169 l 647 89 q 394 -19 553 -19 q 148 76 240 -19 q 56 324 56 172 q 151 567 56 468 q 394 667 247 667 q 646 558 549 667 l 564 479 q 394 557 501 557 q 240 489 299 557 q 182 324 182 421 q 240 160 182 229 q 394 90 299 90 q 571 169 507 90 m 193 749 l 331 939 l 449 939 l 586 749 l 472 749 l 389 864 l 307 749 l 193 749 z "},"Ċ":{"ha":940,"x_min":67,"x_max":892,"o":"m 799 240 l 892 163 q 755 38 853 97 q 529 -22 657 -22 q 197 114 326 -22 q 67 460 67 250 q 197 808 67 667 q 532 949 328 949 q 753 894 664 949 q 892 765 842 839 l 797 685 q 533 829 694 829 q 296 724 385 829 q 207 463 207 618 q 296 206 207 308 q 529 103 385 103 q 594 108 564 103 q 650 124 625 113 q 693 144 675 135 q 730 171 711 154 q 758 196 749 188 q 781 221 767 204 q 799 240 796 238 m 447 1033 l 447 1176 l 596 1176 l 596 1033 l 447 1033 z "},"ċ":{"ha":685,"x_min":56,"x_max":647,"o":"m 571 169 l 647 89 q 394 -19 553 -19 q 148 76 240 -19 q 56 324 56 172 q 151 567 56 468 q 394 667 247 667 q 646 558 549 667 l 564 479 q 394 557 501 557 q 240 489 299 557 q 182 324 182 421 q 240 160 182 229 q 394 90 299 90 q 571 169 507 90 m 317 774 l 317 908 l 456 908 l 456 774 l 317 774 z "},"Č":{"ha":940,"x_min":67,"x_max":892,"o":"m 799 240 l 892 163 q 755 38 853 97 q 529 -22 657 -22 q 197 114 326 -22 q 67 460 67 250 q 197 808 67 667 q 532 949 328 949 q 753 894 664 949 q 892 765 842 839 l 797 685 q 533 829 694 829 q 296 724 385 829 q 207 463 207 618 q 296 206 207 308 q 529 103 385 103 q 594 108 564 103 q 650 124 625 113 q 693 144 675 135 q 730 171 711 154 q 758 196 749 188 q 781 221 767 204 q 799 240 796 238 m 315 1208 l 431 1208 l 532 1081 l 632 1208 l 749 1208 l 592 1000 l 469 1000 q 315 1208 411 1076 z "},"č":{"ha":685,"x_min":56,"x_max":647,"o":"m 571 169 l 647 89 q 394 -19 553 -19 q 148 76 240 -19 q 56 324 56 172 q 151 567 56 468 q 394 667 247 667 q 646 558 549 667 l 564 479 q 394 557 501 557 q 240 489 299 557 q 182 324 182 421 q 240 160 182 229 q 394 90 299 90 q 571 169 507 90 m 328 749 l 190 939 l 304 939 l 388 824 l 469 939 l 583 939 l 446 749 l 328 749 z "},"Ď":{"ha":993,"x_min":106,"x_max":918,"o":"m 106 0 l 106 926 l 415 926 q 782 810 646 926 q 918 461 918 694 q 781 117 918 235 q 414 0 643 0 l 106 0 m 239 119 l 411 119 q 683 206 588 119 q 778 458 778 292 q 684 718 778 629 q 407 807 590 807 l 239 807 l 239 119 m 214 1208 l 329 1208 l 431 1081 l 531 1208 l 647 1208 l 490 1000 l 368 1000 q 214 1208 310 1076 z "},"ď":{"ha":793,"x_min":54,"x_max":888,"o":"m 551 272 l 551 503 q 393 551 494 551 q 241 487 300 551 q 182 313 182 422 q 229 151 182 214 q 369 89 276 89 q 505 147 458 89 q 551 272 551 206 m 556 0 l 551 82 q 342 -19 468 -19 q 135 72 217 -19 q 54 314 54 164 q 86 471 54 401 q 168 581 118 540 q 274 641 218 621 q 383 661 329 661 q 446 656 415 661 q 491 645 476 650 q 528 630 506 640 q 551 619 550 619 l 551 926 l 676 926 l 676 140 q 678 0 676 46 l 556 0 m 768 686 l 768 926 l 888 926 l 853 686 l 768 686 z "},"Đ":{"ha":1000,"x_min":14,"x_max":925,"o":"m 114 0 l 114 418 l 14 418 l 14 528 l 114 528 l 114 926 l 424 926 q 790 810 654 926 q 925 461 925 694 q 788 117 925 235 q 422 0 651 0 l 114 0 m 247 119 l 421 119 q 692 206 597 119 q 788 460 788 292 q 694 719 788 629 q 417 808 601 808 l 247 808 l 247 528 l 481 528 l 481 418 l 247 418 l 247 119 z "},"đ":{"ha":768,"x_min":54,"x_max":765,"o":"m 551 282 l 551 485 q 393 533 471 533 q 240 472 299 533 q 181 306 181 411 q 228 149 181 208 q 369 89 276 89 q 506 151 460 89 q 551 282 551 213 m 556 0 l 551 79 l 543 69 q 531 58 535 61 q 515 44 526 54 q 495 29 504 35 q 473 15 486 24 q 446 1 460 6 q 415 -10 432 -4 q 380 -17 399 -15 q 340 -19 361 -19 q 135 69 215 -19 q 54 307 54 157 q 85 460 54 393 q 167 566 117 528 q 272 624 217 604 q 382 643 326 643 q 444 638 414 643 q 490 627 475 632 q 527 613 506 622 q 551 601 549 603 l 551 735 l 310 735 l 310 822 l 551 822 l 551 926 l 675 926 l 675 822 l 765 822 l 765 735 l 675 735 l 675 140 q 676 0 675 46 l 556 0 z "},"Ē":{"ha":783,"x_min":106,"x_max":722,"o":"m 106 0 l 106 926 l 689 926 l 689 808 l 239 808 l 239 539 l 578 539 l 578 419 l 239 419 l 239 119 l 722 119 l 722 0 l 106 0 m 183 1051 l 183 1156 l 621 1156 l 621 1051 l 183 1051 z "},"ē":{"ha":744,"x_min":54,"x_max":692,"o":"m 604 169 l 675 94 q 625 49 654 71 q 531 3 596 26 q 392 -19 467 -19 q 147 76 240 -19 q 54 328 54 172 q 145 568 54 471 q 376 665 236 665 q 556 610 482 665 q 660 472 629 554 q 692 286 692 389 l 182 286 q 247 144 185 201 q 393 88 308 88 q 604 169 529 88 m 182 379 l 563 379 q 508 509 557 458 q 376 560 460 560 q 238 506 292 560 q 182 379 185 453 m 204 785 l 204 885 l 551 885 l 551 785 l 204 785 z "},"Ĕ":{"ha":783,"x_min":106,"x_max":722,"o":"m 106 0 l 106 926 l 689 926 l 689 808 l 239 808 l 239 539 l 578 539 l 578 419 l 239 419 l 239 119 l 722 119 l 722 0 l 106 0 m 196 1186 l 299 1186 q 327 1120 300 1147 q 401 1093 354 1093 q 476 1120 449 1093 q 506 1186 504 1147 l 608 1186 q 554 1056 608 1110 q 401 1003 500 1003 q 250 1056 304 1003 q 196 1186 196 1110 z "},"ĕ":{"ha":744,"x_min":54,"x_max":692,"o":"m 604 169 l 675 94 q 625 49 654 71 q 531 3 596 26 q 392 -19 467 -19 q 147 76 240 -19 q 54 328 54 172 q 145 568 54 471 q 376 665 236 665 q 556 610 482 665 q 660 472 629 554 q 692 286 692 389 l 182 286 q 247 144 185 201 q 393 88 308 88 q 604 169 529 88 m 182 379 l 563 379 q 508 509 557 458 q 376 560 460 560 q 238 506 292 560 q 182 379 185 453 m 189 929 l 288 929 q 312 863 288 890 q 382 836 336 836 q 452 863 428 836 q 476 929 476 890 l 574 929 q 523 804 574 857 q 382 751 472 751 q 240 804 292 751 q 189 929 189 857 z "},"Ė":{"ha":783,"x_min":106,"x_max":722,"o":"m 106 0 l 106 926 l 689 926 l 689 808 l 239 808 l 239 539 l 578 539 l 578 419 l 239 419 l 239 119 l 722 119 l 722 0 l 106 0 m 331 1033 l 331 1176 l 479 1176 l 479 1033 l 331 1033 z "},"ė":{"ha":744,"x_min":54,"x_max":692,"o":"m 604 169 l 675 94 q 625 49 654 71 q 531 3 596 26 q 392 -19 467 -19 q 147 76 240 -19 q 54 328 54 172 q 145 568 54 471 q 376 665 236 665 q 556 610 482 665 q 660 472 629 554 q 692 286 692 389 l 182 286 q 247 144 185 201 q 393 88 308 88 q 604 169 529 88 m 182 379 l 563 379 q 508 509 557 458 q 376 560 460 560 q 238 506 292 560 q 182 379 185 453 m 311 774 l 311 908 l 450 908 l 450 774 l 311 774 z "},"Ę":{"ha":783,"x_min":106,"x_max":722,"o":"m 106 0 l 106 926 l 689 926 l 689 808 l 239 808 l 239 539 l 578 539 l 578 419 l 239 419 l 239 119 l 722 119 l 722 0 l 643 0 q 561 -135 561 -76 q 608 -175 561 -175 q 686 -147 638 -175 l 722 -229 q 574 -278 653 -278 q 440 -171 440 -278 q 535 0 440 -97 l 106 0 z "},"ę":{"ha":744,"x_min":54,"x_max":692,"o":"m 594 -144 l 626 -225 q 485 -272 557 -272 q 390 -244 424 -272 q 356 -165 356 -215 q 426 -18 356 -99 q 408 -19 419 -18 q 392 -19 397 -19 q 148 79 242 -19 q 54 328 54 178 q 146 568 54 471 q 378 665 238 665 q 611 556 531 665 q 692 286 692 447 l 182 286 q 247 144 185 201 q 393 88 308 88 q 604 169 529 88 l 675 94 q 603 35 660 74 q 506 -46 547 -4 q 464 -131 464 -87 q 511 -172 464 -172 q 594 -144 550 -172 m 182 379 l 565 379 q 511 507 560 457 q 379 557 463 557 q 240 504 296 557 q 182 379 185 451 z "},"Ě":{"ha":783,"x_min":106,"x_max":722,"o":"m 106 0 l 106 926 l 689 926 l 689 808 l 239 808 l 239 539 l 578 539 l 578 419 l 239 419 l 239 119 l 722 119 l 722 0 l 106 0 m 190 1208 l 306 1208 l 407 1081 l 507 1208 l 624 1208 l 467 1000 l 344 1000 q 190 1208 286 1076 z "},"ě":{"ha":744,"x_min":54,"x_max":692,"o":"m 604 169 l 675 94 q 625 49 654 71 q 531 3 596 26 q 392 -19 467 -19 q 147 76 240 -19 q 54 328 54 172 q 145 568 54 471 q 376 665 236 665 q 556 610 482 665 q 660 472 629 554 q 692 286 692 389 l 182 286 q 247 144 185 201 q 393 88 308 88 q 604 169 529 88 m 182 379 l 563 379 q 508 509 557 458 q 376 560 460 560 q 238 506 292 560 q 182 379 185 453 m 318 749 l 181 939 l 294 939 l 378 824 l 460 939 l 574 939 l 436 749 l 318 749 z "},"Ĝ":{"ha":1001,"x_min":68,"x_max":904,"o":"m 579 356 l 579 471 l 904 471 l 904 101 q 539 -22 767 -22 q 197 114 325 -22 q 68 461 68 250 q 199 808 68 668 q 533 949 329 949 q 893 767 763 949 l 799 686 q 536 831 699 831 q 297 724 388 831 q 207 463 207 618 q 302 201 207 303 q 543 99 397 99 q 776 167 690 99 l 776 356 l 579 356 m 304 1000 l 461 1208 l 583 1208 q 738 1000 642 1131 l 622 1000 l 521 1128 l 421 1000 l 304 1000 z "},"ĝ":{"ha":760,"x_min":54,"x_max":675,"o":"m 550 264 l 550 532 q 418 551 492 551 q 248 485 314 551 q 182 317 182 419 q 228 163 182 222 q 368 103 274 103 q 503 151 456 103 q 550 264 550 199 m 114 -224 l 172 -132 q 364 -186 253 -186 q 501 -136 454 -186 q 549 0 549 -86 l 549 79 q 536 67 547 78 q 518 52 525 57 q 497 37 511 47 q 468 20 482 26 q 435 8 454 14 q 394 -2 417 1 q 349 -6 372 -6 q 132 83 210 -6 q 54 315 54 172 q 156 564 54 467 q 418 661 257 661 q 675 617 564 661 l 675 0 q 594 -217 675 -140 q 365 -294 513 -294 q 114 -224 206 -294 m 199 749 l 336 939 l 454 939 l 592 749 l 478 749 l 394 864 l 313 749 l 199 749 z "},"Ğ":{"ha":1001,"x_min":68,"x_max":904,"o":"m 579 356 l 579 471 l 904 471 l 904 101 q 539 -22 767 -22 q 197 114 325 -22 q 68 461 68 250 q 199 808 68 668 q 533 949 329 949 q 893 767 763 949 l 799 686 q 536 831 699 831 q 297 724 388 831 q 207 463 207 618 q 302 201 207 303 q 543 99 397 99 q 776 167 690 99 l 776 356 l 579 356 m 319 1186 l 422 1186 q 451 1120 424 1147 q 525 1093 478 1093 q 600 1120 572 1093 q 629 1186 628 1147 l 732 1186 q 678 1056 732 1110 q 525 1003 624 1003 q 374 1056 428 1003 q 319 1186 319 1110 z "},"ğ":{"ha":760,"x_min":54,"x_max":675,"o":"m 550 264 l 550 532 q 418 551 492 551 q 248 485 314 551 q 182 317 182 419 q 228 163 182 222 q 368 103 274 103 q 503 151 456 103 q 550 264 550 199 m 114 -224 l 172 -132 q 364 -186 253 -186 q 501 -136 454 -186 q 549 0 549 -86 l 549 79 q 536 67 547 78 q 518 52 525 57 q 497 37 511 47 q 468 20 482 26 q 435 8 454 14 q 394 -2 417 1 q 349 -6 372 -6 q 132 83 210 -6 q 54 315 54 172 q 156 564 54 467 q 418 661 257 661 q 675 617 564 661 l 675 0 q 594 -217 675 -140 q 365 -294 513 -294 q 114 -224 206 -294 m 217 929 l 315 929 q 340 863 315 890 q 410 836 364 836 q 480 863 456 836 q 504 929 504 890 l 601 929 q 551 804 601 857 q 410 751 500 751 q 268 804 319 751 q 217 929 217 857 z "},"Ġ":{"ha":1001,"x_min":68,"x_max":904,"o":"m 579 356 l 579 471 l 904 471 l 904 101 q 539 -22 767 -22 q 197 114 325 -22 q 68 461 68 250 q 199 808 68 668 q 533 949 329 949 q 893 767 763 949 l 799 686 q 536 831 699 831 q 297 724 388 831 q 207 463 207 618 q 302 201 207 303 q 543 99 397 99 q 776 167 690 99 l 776 356 l 579 356 m 453 1033 l 453 1176 l 601 1176 l 601 1033 l 453 1033 z "},"ġ":{"ha":760,"x_min":54,"x_max":675,"o":"m 550 264 l 550 532 q 418 551 492 551 q 248 485 314 551 q 182 317 182 419 q 228 163 182 222 q 368 103 274 103 q 503 151 456 103 q 550 264 550 199 m 114 -224 l 172 -132 q 364 -186 253 -186 q 501 -136 454 -186 q 549 0 549 -86 l 549 79 q 536 67 547 78 q 518 52 525 57 q 497 37 511 47 q 468 20 482 26 q 435 8 454 14 q 394 -2 417 1 q 349 -6 372 -6 q 132 83 210 -6 q 54 315 54 172 q 156 564 54 467 q 418 661 257 661 q 675 617 564 661 l 675 0 q 594 -217 675 -140 q 365 -294 513 -294 q 114 -224 206 -294 m 340 774 l 340 908 l 479 908 l 479 774 l 340 774 z "},"Ģ":{"ha":1001,"x_min":68,"x_max":904,"o":"m 579 356 l 579 471 l 904 471 l 904 101 q 539 -22 767 -22 q 197 114 325 -22 q 68 461 68 250 q 199 808 68 668 q 533 949 329 949 q 893 767 763 949 l 799 686 q 536 831 699 831 q 297 724 388 831 q 207 463 207 618 q 302 201 207 303 q 543 99 397 99 q 776 167 690 99 l 776 356 l 579 356 m 392 -286 l 469 -78 l 618 -78 l 504 -286 l 392 -286 z "},"ģ":{"ha":760,"x_min":54,"x_max":675,"o":"m 550 264 l 550 532 q 418 551 492 551 q 248 485 314 551 q 182 317 182 419 q 228 163 182 222 q 368 103 274 103 q 503 151 456 103 q 550 264 550 199 m 114 -224 l 172 -132 q 364 -186 253 -186 q 501 -136 454 -186 q 549 0 549 -86 l 549 79 q 536 67 547 78 q 518 52 525 57 q 497 37 511 47 q 468 20 482 26 q 435 8 454 14 q 394 -2 417 1 q 349 -6 372 -6 q 132 83 210 -6 q 54 315 54 172 q 156 564 54 467 q 418 661 257 661 q 675 617 564 661 l 675 0 q 594 -217 675 -140 q 365 -294 513 -294 q 114 -224 206 -294 m 331 750 l 439 939 l 542 939 l 468 750 l 331 750 z "},"Ĥ":{"ha":985,"x_min":106,"x_max":879,"o":"m 106 0 l 106 926 l 239 926 l 239 539 l 746 539 l 746 926 l 879 926 l 879 0 l 746 0 l 746 419 l 239 419 l 239 0 l 106 0 m 274 1000 l 431 1208 l 553 1208 q 707 1000 611 1131 l 592 1000 l 490 1128 l 390 1000 l 274 1000 z "},"ĥ":{"ha":756,"x_min":85,"x_max":672,"o":"m 85 0 l 85 926 l 208 926 l 208 550 q 424 661 292 661 q 610 589 547 661 q 672 388 672 517 l 672 0 l 547 0 l 547 378 q 399 553 547 553 q 255 480 300 553 q 210 300 210 407 l 210 0 l 85 0 m 88 1000 l 244 1208 l 367 1208 q 521 1000 425 1131 l 406 1000 l 304 1128 l 204 1000 l 88 1000 z "},"Ħ":{"ha":996,"x_min":17,"x_max":994,"o":"m 111 0 l 111 683 l 17 683 l 17 781 l 111 781 l 111 926 l 244 926 l 244 781 l 751 781 l 751 926 l 885 926 l 885 781 l 994 781 l 994 683 l 885 683 l 885 0 l 751 0 l 751 419 l 244 419 l 244 0 l 111 0 m 244 539 l 751 539 l 751 683 l 244 683 l 244 539 z "},"ħ":{"ha":754,"x_min":1,"x_max":676,"o":"m 92 0 l 92 735 l 1 735 l 1 822 l 92 822 l 92 926 l 214 926 l 214 822 l 457 822 l 457 735 l 214 735 l 214 533 q 429 644 297 644 q 615 572 553 644 q 676 371 676 500 l 676 0 l 553 0 l 553 361 q 404 536 553 536 q 260 463 306 536 q 215 283 215 390 l 215 0 l 92 0 z "},"Ĩ":{"ha":344,"x_min":-87,"x_max":438,"o":"m 106 0 l 106 926 l 239 926 l 239 0 l 106 0 m -32 1029 l -87 1108 q 76 1188 -14 1188 q 174 1157 121 1188 q 263 1126 228 1126 q 381 1178 318 1126 q 408 1140 388 1168 q 438 1097 428 1113 q 275 1017 363 1017 q 178 1049 232 1017 q 88 1081 124 1081 q -32 1029 31 1081 z "},"ĩ":{"ha":308,"x_min":-93,"x_max":403,"o":"m -42 768 l -93 842 q 63 917 -24 917 q 154 887 103 917 q 244 857 206 857 q 290 867 269 858 q 322 882 311 875 q 353 907 332 889 l 403 832 q 249 756 332 756 q 156 786 208 756 q 71 817 104 817 q -42 768 13 817 m 92 0 l 92 646 l 217 646 l 217 0 l 92 0 z "},"Ī":{"ha":344,"x_min":-44,"x_max":393,"o":"m 106 0 l 106 926 l 239 926 l 239 0 l 106 0 m -44 1051 l -44 1156 l 393 1156 l 393 1051 l -44 1051 z "},"ī":{"ha":308,"x_min":-18,"x_max":329,"o":"m -18 785 l -18 885 l 329 885 l 329 785 l -18 785 m 92 0 l 92 646 l 217 646 l 217 0 l 92 0 z "},"Ĭ":{"ha":344,"x_min":-32,"x_max":381,"o":"m 106 0 l 106 926 l 239 926 l 239 0 l 106 0 m -32 1186 l 71 1186 q 99 1120 72 1147 q 174 1093 126 1093 q 249 1120 221 1093 q 278 1186 276 1147 l 381 1186 q 326 1056 381 1110 q 174 1003 272 1003 q 22 1056 76 1003 q -32 1186 -32 1110 z "},"ĭ":{"ha":308,"x_min":-35,"x_max":350,"o":"m -35 929 l 64 929 q 88 863 64 890 q 158 836 113 836 q 228 863 204 836 q 253 929 253 890 l 350 929 q 299 804 350 857 q 158 751 249 751 q 17 804 68 751 q -35 929 -35 857 m 92 0 l 92 646 l 217 646 l 217 0 l 92 0 z "},"Į":{"ha":344,"x_min":36,"x_max":318,"o":"m 106 0 l 106 926 l 239 926 l 239 0 q 157 -135 157 -76 q 204 -175 157 -175 q 282 -147 233 -175 l 318 -229 q 169 -278 249 -278 q 36 -171 36 -278 q 131 0 36 -97 l 106 0 z "},"į":{"ha":308,"x_min":25,"x_max":297,"o":"m 92 0 l 92 646 l 217 646 l 217 0 q 135 -132 135 -82 q 182 -174 135 -174 q 264 -144 218 -174 l 297 -226 q 156 -272 229 -272 q 59 -244 93 -272 q 25 -165 25 -215 q 115 0 25 -93 l 92 0 m 83 761 l 83 901 l 224 901 l 224 761 l 83 761 z "},"İ":{"ha":344,"x_min":97,"x_max":246,"o":"m 106 0 l 106 926 l 239 926 l 239 0 l 106 0 m 97 1033 l 97 1176 l 246 1176 l 246 1033 l 97 1033 z "},"ı":{"ha":308,"x_min":92,"x_max":217,"o":"m 92 0 l 92 646 l 217 646 l 217 0 l 92 0 z "},"Ĳ":{"ha":1044,"x_min":106,"x_max":944,"o":"m 106 0 l 106 926 l 239 926 l 239 0 l 106 0 m 378 104 l 472 188 q 554 120 514 140 q 651 100 594 100 q 767 146 722 100 q 811 283 811 192 l 811 926 l 944 926 l 944 272 q 863 49 944 121 q 654 -24 782 -24 q 378 104 476 -24 z "},"ĳ":{"ha":624,"x_min":83,"x_max":539,"o":"m 83 761 l 83 901 l 224 901 l 224 761 l 83 761 m 92 0 l 92 646 l 217 646 l 217 0 l 92 0 m 190 -226 l 242 -140 q 322 -169 281 -169 q 388 -124 369 -169 q 407 26 407 -79 l 407 646 l 532 646 l 532 -8 q 490 -205 532 -132 q 335 -278 449 -278 q 190 -226 254 -278 m 399 761 l 399 901 l 539 901 l 539 761 l 399 761 z "},"Ĵ":{"ha":686,"x_min":19,"x_max":735,"o":"m 19 104 l 114 188 q 196 120 156 140 q 293 100 236 100 q 408 146 364 100 q 453 283 453 192 l 453 926 l 586 926 l 586 272 q 505 49 586 121 q 296 -24 424 -24 q 19 104 118 -24 m 301 1000 l 458 1208 l 581 1208 q 735 1000 639 1131 l 619 1000 l 518 1128 l 418 1000 l 301 1000 z "},"ĵ":{"ha":308,"x_min":-142,"x_max":353,"o":"m -142 -226 l -90 -140 q -10 -169 -51 -169 q 56 -124 38 -169 q 75 26 75 -79 l 75 646 l 200 646 l 200 -8 q 158 -205 200 -132 q 3 -278 117 -278 q -142 -226 -78 -278 m -40 749 l 97 939 l 215 939 l 353 749 l 239 749 l 156 864 l 74 749 l -40 749 z "},"Ķ":{"ha":838,"x_min":106,"x_max":819,"o":"m 106 0 l 106 926 l 238 926 l 238 506 l 625 926 l 778 926 l 433 549 l 819 0 l 660 0 l 343 454 l 238 340 l 238 0 l 106 0 m 282 -286 l 360 -78 l 508 -78 l 394 -286 l 282 -286 z "},"ķ":{"ha":679,"x_min":85,"x_max":667,"o":"m 85 0 l 85 926 l 210 926 l 210 381 l 481 646 l 631 646 l 386 407 l 667 0 l 518 0 l 299 324 l 210 238 l 210 0 l 85 0 m 221 -274 l 294 -78 l 429 -78 l 324 -274 l 221 -274 z "},"ĸ":{"ha":692,"x_min":86,"x_max":678,"o":"m 86 0 l 86 646 l 210 646 l 210 372 l 493 646 l 643 646 l 385 396 l 678 0 l 529 0 l 299 311 l 210 225 l 210 0 l 86 0 z "},"Ĺ":{"ha":761,"x_min":106,"x_max":721,"o":"m 106 0 l 106 926 l 239 926 l 239 118 l 721 118 l 721 0 l 106 0 m 117 1000 l 218 1208 l 376 1208 l 229 1000 l 117 1000 z "},"ĺ":{"ha":297,"x_min":86,"x_max":346,"o":"m 86 0 l 86 926 l 211 926 l 211 0 l 86 0 m 86 1000 l 188 1208 l 346 1208 l 199 1000 l 86 1000 z "},"Ļ":{"ha":761,"x_min":106,"x_max":721,"o":"m 106 0 l 106 926 l 239 926 l 239 118 l 721 118 l 721 0 l 106 0 m 271 -286 l 349 -78 l 497 -78 l 383 -286 l 271 -286 z "},"ļ":{"ha":297,"x_min":7,"x_max":215,"o":"m 86 0 l 86 926 l 211 926 l 211 0 l 86 0 m 7 -274 l 81 -78 l 215 -78 l 110 -274 l 7 -274 z "},"Ľ":{"ha":761,"x_min":106,"x_max":721,"o":"m 106 0 l 106 926 l 239 926 l 239 118 l 721 118 l 721 0 l 106 0 m 393 686 l 393 926 l 513 926 l 478 686 l 393 686 z "},"ľ":{"ha":329,"x_min":86,"x_max":417,"o":"m 86 0 l 86 926 l 211 926 l 211 0 l 86 0 m 297 686 l 297 926 l 417 926 l 382 686 l 297 686 z "},"Ŀ":{"ha":761,"x_min":106,"x_max":721,"o":"m 106 0 l 106 926 l 239 926 l 239 118 l 721 118 l 721 0 l 106 0 m 474 443 l 474 586 l 622 586 l 622 443 l 474 443 z "},"ŀ":{"ha":467,"x_min":86,"x_max":451,"o":"m 86 0 l 86 926 l 211 926 l 211 0 l 86 0 m 313 431 l 313 565 l 451 565 l 451 431 l 313 431 z "},"Ł":{"ha":761,"x_min":13,"x_max":732,"o":"m 117 0 l 117 365 l 13 299 l 13 417 l 117 483 l 117 926 l 250 926 l 250 567 l 458 701 l 458 583 l 250 449 l 250 118 l 732 118 l 732 0 l 117 0 z "},"ł":{"ha":297,"x_min":15,"x_max":307,"o":"m 100 0 l 100 392 l 15 336 l 15 446 l 100 501 l 100 926 l 225 926 l 225 582 l 307 636 l 307 526 l 225 472 l 225 0 l 100 0 z "},"Ń":{"ha":982,"x_min":106,"x_max":876,"o":"m 106 0 l 106 926 l 240 926 l 746 203 l 746 926 l 876 926 l 876 0 l 743 0 l 236 725 l 236 0 l 106 0 m 419 1000 l 521 1208 l 679 1208 l 532 1000 l 419 1000 z "},"ń":{"ha":756,"x_min":85,"x_max":674,"o":"m 86 0 l 86 506 q 85 646 86 600 l 204 646 l 208 549 q 425 661 290 661 q 611 589 549 661 q 674 388 674 517 l 674 0 l 549 0 l 549 378 q 400 553 549 553 q 256 480 301 553 q 211 300 211 407 l 211 0 l 86 0 m 325 750 l 400 939 l 536 939 l 429 750 l 325 750 z "},"Ņ":{"ha":982,"x_min":106,"x_max":876,"o":"m 106 0 l 106 926 l 240 926 l 746 203 l 746 926 l 876 926 l 876 0 l 743 0 l 236 725 l 236 0 l 106 0 m 367 -286 l 444 -78 l 593 -78 l 479 -286 l 367 -286 z "},"ņ":{"ha":756,"x_min":85,"x_max":674,"o":"m 86 0 l 86 506 q 85 646 86 600 l 204 646 l 208 549 q 425 661 290 661 q 611 589 549 661 q 674 388 674 517 l 674 0 l 549 0 l 549 378 q 400 553 549 553 q 256 480 301 553 q 211 300 211 407 l 211 0 l 86 0 m 251 -274 l 325 -78 l 460 -78 l 354 -274 l 251 -274 z "},"Ň":{"ha":982,"x_min":106,"x_max":876,"o":"m 106 0 l 106 926 l 240 926 l 746 203 l 746 926 l 876 926 l 876 0 l 743 0 l 236 725 l 236 0 l 106 0 m 285 1208 l 400 1208 l 501 1081 l 601 1208 l 718 1208 l 561 1000 l 439 1000 q 285 1208 381 1076 z "},"ň":{"ha":756,"x_min":85,"x_max":674,"o":"m 86 0 l 86 506 q 85 646 86 600 l 204 646 l 208 549 q 425 661 290 661 q 611 589 549 661 q 674 388 674 517 l 674 0 l 549 0 l 549 378 q 400 553 549 553 q 256 480 301 553 q 211 300 211 407 l 211 0 l 86 0 m 325 749 l 188 939 l 301 939 l 385 824 l 467 939 l 581 939 l 443 749 l 325 749 z "},"ŉ":{"ha":756,"x_min":21,"x_max":674,"o":"m 86 0 l 86 506 q 85 646 86 600 l 204 646 l 208 549 q 425 661 290 661 q 611 589 549 661 q 674 388 674 517 l 674 0 l 549 0 l 549 378 q 400 553 549 553 q 256 480 301 553 q 211 300 211 407 l 211 0 l 86 0 m 21 750 l 32 939 l 160 939 l 114 750 l 21 750 z "},"Ŋ":{"ha":982,"x_min":106,"x_max":876,"o":"m 106 0 l 106 926 l 240 926 l 746 204 l 746 926 l 876 926 l 876 3 q 661 -278 876 -278 q 497 -222 571 -278 l 551 -132 q 646 -165 599 -165 q 746 -18 746 -165 l 746 0 l 236 725 l 236 0 l 106 0 z "},"ŋ":{"ha":756,"x_min":86,"x_max":672,"o":"m 88 0 l 88 506 q 86 646 88 600 l 204 646 l 208 549 q 425 661 290 661 q 610 589 549 661 q 672 388 672 517 l 672 -7 q 665 -109 672 -65 q 638 -193 657 -153 q 577 -255 618 -233 q 476 -276 536 -276 q 332 -225 393 -276 l 382 -140 q 464 -169 421 -169 q 549 -31 549 -169 l 549 378 q 400 553 549 553 q 256 480 301 553 q 211 300 211 407 l 211 0 l 88 0 z "},"Ō":{"ha":1082,"x_min":68,"x_max":1014,"o":"m 540 -24 q 205 118 342 -24 q 68 464 68 260 q 204 808 68 667 q 540 950 340 950 q 877 808 740 950 q 1014 464 1014 667 q 877 118 1014 260 q 540 -24 740 -24 m 299 208 q 345 155 299 208 q 540 101 392 101 q 782 208 689 101 q 875 465 875 314 q 783 724 875 619 q 540 829 690 829 q 299 724 392 829 q 207 465 207 619 q 299 208 207 314 m 322 1051 l 322 1156 l 760 1156 l 760 1051 l 322 1051 z "},"ō":{"ha":794,"x_min":56,"x_max":739,"o":"m 397 -19 q 153 81 250 -19 q 56 324 56 181 q 153 567 56 467 q 397 667 250 667 q 641 566 543 667 q 739 324 739 465 q 641 81 739 182 q 397 -19 543 -19 m 397 89 q 553 159 494 89 q 613 324 613 229 q 553 488 613 417 q 397 558 493 558 q 241 488 300 558 q 182 324 182 418 q 242 160 182 231 q 397 89 301 89 m 224 785 l 224 885 l 571 885 l 571 785 l 224 785 z "},"Ŏ":{"ha":1082,"x_min":68,"x_max":1014,"o":"m 540 -24 q 205 118 342 -24 q 68 464 68 260 q 204 808 68 667 q 540 950 340 950 q 877 808 740 950 q 1014 464 1014 667 q 877 118 1014 260 q 540 -24 740 -24 m 299 208 q 345 155 299 208 q 540 101 392 101 q 782 208 689 101 q 875 465 875 314 q 783 724 875 619 q 540 829 690 829 q 299 724 392 829 q 207 465 207 619 q 299 208 207 314 m 333 1186 l 436 1186 q 465 1120 438 1147 q 539 1093 492 1093 q 614 1120 586 1093 q 643 1186 642 1147 l 746 1186 q 692 1056 746 1110 q 539 1003 638 1003 q 388 1056 442 1003 q 333 1186 333 1110 z "},"ŏ":{"ha":794,"x_min":56,"x_max":739,"o":"m 397 -19 q 153 81 250 -19 q 56 324 56 181 q 153 567 56 467 q 397 667 250 667 q 641 566 543 667 q 739 324 739 465 q 641 81 739 182 q 397 -19 543 -19 m 397 89 q 553 159 494 89 q 613 324 613 229 q 553 488 613 417 q 397 558 493 558 q 241 488 300 558 q 182 324 182 418 q 242 160 182 231 q 397 89 301 89 m 204 929 l 303 929 q 327 863 303 890 q 397 836 351 836 q 467 863 443 836 q 492 929 492 890 l 589 929 q 538 804 589 857 q 397 751 488 751 q 256 804 307 751 q 204 929 204 857 z "},"Ő":{"ha":1082,"x_min":68,"x_max":1014,"o":"m 540 -24 q 205 118 342 -24 q 68 464 68 260 q 204 808 68 667 q 540 950 340 950 q 877 808 740 950 q 1014 464 1014 667 q 877 118 1014 260 q 540 -24 740 -24 m 299 208 q 345 155 299 208 q 540 101 392 101 q 782 208 689 101 q 875 465 875 314 q 783 724 875 619 q 540 829 690 829 q 299 724 392 829 q 207 465 207 619 q 299 208 207 314 m 368 1000 l 475 1208 l 625 1208 l 474 1000 l 368 1000 m 613 1000 l 719 1208 l 869 1208 l 718 1000 l 613 1000 z "},"ő":{"ha":794,"x_min":56,"x_max":739,"o":"m 397 -19 q 153 81 250 -19 q 56 324 56 181 q 153 567 56 467 q 397 667 250 667 q 641 566 543 667 q 739 324 739 465 q 641 81 739 182 q 397 -19 543 -19 m 397 89 q 553 159 494 89 q 613 324 613 229 q 553 488 613 417 q 397 558 493 558 q 241 488 300 558 q 182 324 182 418 q 242 160 182 231 q 397 89 301 89 m 443 750 l 517 939 l 647 939 l 539 750 l 443 750 m 232 750 l 306 939 l 438 939 l 329 750 l 232 750 z "},"Œ":{"ha":1553,"x_min":68,"x_max":1493,"o":"m 876 0 l 876 157 q 739 25 832 74 q 536 -24 646 -24 q 204 118 340 -24 q 68 464 68 260 q 204 808 68 667 q 536 950 340 950 q 740 901 647 950 q 876 769 832 853 l 876 926 l 1458 926 l 1458 808 l 1006 808 l 1006 539 l 1349 539 l 1349 419 l 1006 419 l 1006 119 l 1493 119 l 1493 0 l 876 0 m 299 208 q 345 155 299 208 q 540 101 392 101 q 781 208 689 101 q 874 465 874 314 q 781 724 874 619 q 540 829 689 829 q 298 724 390 829 q 206 465 206 619 q 299 208 206 314 z "},"œ":{"ha":1301,"x_min":54,"x_max":1249,"o":"m 1161 169 l 1232 94 q 1182 49 1211 71 q 1088 3 1153 26 q 949 -19 1024 -19 q 671 131 761 -19 q 556 21 628 61 q 397 -19 483 -19 q 152 81 250 -19 q 54 324 54 181 q 152 566 54 467 q 397 665 250 665 q 554 625 483 665 q 669 517 625 585 q 933 665 756 665 q 1113 610 1039 665 q 1217 472 1186 554 q 1249 286 1249 389 l 739 286 q 803 144 742 201 q 950 88 865 88 q 1078 113 1022 88 q 1161 169 1133 138 m 397 88 q 553 158 494 88 q 613 324 613 229 q 552 486 613 415 q 397 557 492 557 q 240 487 300 557 q 181 324 181 417 q 241 159 181 231 q 397 88 301 88 m 739 379 l 1119 379 q 1065 509 1114 458 q 933 560 1017 560 q 794 506 847 560 q 739 379 742 453 z "},"Ŕ":{"ha":819,"x_min":106,"x_max":769,"o":"m 106 0 l 106 926 l 401 926 q 644 847 565 926 q 724 654 724 767 q 553 396 724 461 l 769 0 l 619 0 l 421 379 l 235 379 l 235 0 l 106 0 m 235 492 l 413 492 q 543 534 499 492 q 588 650 588 576 q 540 769 588 726 q 410 811 493 811 l 235 811 l 235 492 m 303 1000 l 404 1208 l 563 1208 l 415 1000 l 303 1000 z "},"ŕ":{"ha":506,"x_min":85,"x_max":490,"o":"m 86 0 l 86 514 q 85 646 86 603 l 204 646 l 208 542 q 419 656 286 656 q 490 644 457 656 l 463 528 q 399 538 439 538 q 265 480 319 538 q 211 340 211 422 l 211 0 l 86 0 m 222 750 l 297 939 l 433 939 l 326 750 l 222 750 z "},"Ŗ":{"ha":819,"x_min":106,"x_max":769,"o":"m 106 0 l 106 926 l 401 926 q 644 847 565 926 q 724 654 724 767 q 553 396 724 461 l 769 0 l 619 0 l 421 379 l 235 379 l 235 0 l 106 0 m 235 492 l 413 492 q 543 534 499 492 q 588 650 588 576 q 540 769 588 726 q 410 811 493 811 l 235 811 l 235 492 m 278 -286 l 356 -78 l 504 -78 l 390 -286 l 278 -286 z "},"ŗ":{"ha":506,"x_min":13,"x_max":490,"o":"m 86 0 l 86 514 q 85 646 86 603 l 204 646 l 208 542 q 419 656 286 656 q 490 644 457 656 l 463 528 q 399 538 439 538 q 265 480 319 538 q 211 340 211 422 l 211 0 l 86 0 m 13 -274 l 86 -78 l 221 -78 l 115 -274 l 13 -274 z "},"Ř":{"ha":819,"x_min":106,"x_max":769,"o":"m 106 0 l 106 926 l 401 926 q 644 847 565 926 q 724 654 724 767 q 553 396 724 461 l 769 0 l 619 0 l 421 379 l 235 379 l 235 0 l 106 0 m 235 492 l 413 492 q 543 534 499 492 q 588 650 588 576 q 540 769 588 726 q 410 811 493 811 l 235 811 l 235 492 m 158 1208 l 274 1208 l 375 1081 l 475 1208 l 592 1208 l 435 1000 l 313 1000 q 158 1208 254 1076 z "},"ř":{"ha":506,"x_min":82,"x_max":490,"o":"m 86 0 l 86 514 q 85 646 86 603 l 204 646 l 208 542 q 419 656 286 656 q 490 644 457 656 l 463 528 q 399 538 439 538 q 265 480 319 538 q 211 340 211 422 l 211 0 l 86 0 m 219 749 l 82 939 l 196 939 l 279 824 l 361 939 l 475 939 l 338 749 l 219 749 z "},"Ś":{"ha":808,"x_min":51,"x_max":724,"o":"m 51 139 l 146 225 q 394 99 257 99 q 538 140 486 99 q 589 253 589 182 q 534 365 589 325 q 363 429 479 404 q 167 522 239 456 q 96 696 96 589 q 177 877 96 804 q 406 950 258 950 q 694 821 589 950 l 606 739 q 400 832 522 832 q 274 792 318 832 q 231 700 231 753 q 283 602 231 636 q 450 540 335 568 q 551 507 507 526 q 638 454 596 488 q 701 369 679 421 q 724 250 724 318 q 630 53 724 131 q 397 -24 536 -24 q 190 25 281 -24 q 51 139 99 74 m 331 1000 l 432 1208 l 590 1208 l 443 1000 l 331 1000 z "},"ś":{"ha":656,"x_min":51,"x_max":596,"o":"m 51 79 l 128 163 q 324 86 204 86 q 429 107 389 86 q 469 169 469 128 q 433 235 469 214 q 285 282 396 256 q 79 475 79 328 q 155 615 79 564 q 333 667 231 667 q 578 585 482 667 l 510 499 q 335 561 440 561 q 203 478 203 561 q 244 419 203 439 q 376 378 286 399 q 539 309 482 353 q 596 178 596 265 q 517 33 596 85 q 326 -19 439 -19 q 51 79 143 -19 m 275 750 l 350 939 l 486 939 l 379 750 l 275 750 z "},"Ŝ":{"ha":808,"x_min":51,"x_max":724,"o":"m 51 139 l 146 225 q 394 99 257 99 q 538 140 486 99 q 589 253 589 182 q 534 365 589 325 q 363 429 479 404 q 167 522 239 456 q 96 696 96 589 q 177 877 96 804 q 406 950 258 950 q 694 821 589 950 l 606 739 q 400 832 522 832 q 274 792 318 832 q 231 700 231 753 q 283 602 231 636 q 450 540 335 568 q 551 507 507 526 q 638 454 596 488 q 701 369 679 421 q 724 250 724 318 q 630 53 724 131 q 397 -24 536 -24 q 190 25 281 -24 q 51 139 99 74 m 186 1000 l 343 1208 l 465 1208 q 619 1000 524 1131 l 504 1000 l 403 1128 l 303 1000 l 186 1000 z "},"ŝ":{"ha":656,"x_min":51,"x_max":596,"o":"m 51 79 l 128 163 q 324 86 204 86 q 429 107 389 86 q 469 169 469 128 q 433 235 469 214 q 285 282 396 256 q 79 475 79 328 q 155 615 79 564 q 333 667 231 667 q 578 585 482 667 l 510 499 q 335 561 440 561 q 203 478 203 561 q 244 419 203 439 q 376 378 286 399 q 539 309 482 353 q 596 178 596 265 q 517 33 596 85 q 326 -19 439 -19 q 51 79 143 -19 m 140 749 l 278 939 l 396 939 l 533 749 l 419 749 l 336 864 l 254 749 l 140 749 z "},"Ş":{"ha":808,"x_min":51,"x_max":724,"o":"m 51 139 l 146 225 q 394 99 257 99 q 538 140 486 99 q 589 253 589 182 q 534 365 589 325 q 363 429 479 404 q 167 522 239 456 q 96 696 96 589 q 177 877 96 804 q 406 950 258 950 q 694 821 589 950 l 606 739 q 400 832 522 832 q 274 792 318 832 q 231 700 231 753 q 283 602 231 636 q 450 540 335 568 q 551 507 507 526 q 638 454 596 488 q 701 369 679 421 q 724 250 724 318 q 630 53 724 131 q 397 -24 536 -24 q 190 25 281 -24 q 51 139 99 74 m 249 -214 q 351 -233 304 -233 q 439 -181 439 -233 q 361 -137 439 -137 q 263 -154 311 -137 q 276 -75 268 -128 q 396 -57 339 -57 q 508 -92 468 -57 q 549 -178 549 -126 q 497 -278 549 -242 q 371 -314 444 -314 q 233 -293 282 -314 q 249 -214 244 -240 z "},"ş":{"ha":656,"x_min":51,"x_max":596,"o":"m 51 79 l 128 163 q 324 86 204 86 q 429 107 389 86 q 469 169 469 128 q 433 235 469 214 q 285 282 396 256 q 79 475 79 328 q 155 615 79 564 q 333 667 231 667 q 578 585 482 667 l 510 499 q 335 561 440 561 q 203 478 203 561 q 244 419 203 439 q 376 378 286 399 q 539 309 482 353 q 596 178 596 265 q 517 33 596 85 q 326 -19 439 -19 q 51 79 143 -19 m 167 -290 l 182 -215 q 282 -235 238 -235 q 372 -181 372 -235 q 292 -132 372 -132 q 196 -150 247 -132 l 208 -74 q 325 -56 263 -56 q 435 -90 396 -56 q 474 -176 474 -125 q 424 -276 474 -240 q 300 -311 374 -311 q 167 -290 215 -311 z "},"Š":{"ha":808,"x_min":51,"x_max":724,"o":"m 51 139 l 146 225 q 394 99 257 99 q 538 140 486 99 q 589 253 589 182 q 534 365 589 325 q 363 429 479 404 q 167 522 239 456 q 96 696 96 589 q 177 877 96 804 q 406 950 258 950 q 694 821 589 950 l 606 739 q 400 832 522 832 q 274 792 318 832 q 231 700 231 753 q 283 602 231 636 q 450 540 335 568 q 551 507 507 526 q 638 454 596 488 q 701 369 679 421 q 724 250 724 318 q 630 53 724 131 q 397 -24 536 -24 q 190 25 281 -24 q 51 139 99 74 m 190 1208 l 306 1208 l 407 1081 l 507 1208 l 624 1208 l 467 1000 l 344 1000 q 190 1208 286 1076 z "},"š":{"ha":656,"x_min":51,"x_max":596,"o":"m 51 79 l 128 163 q 324 86 204 86 q 429 107 389 86 q 469 169 469 128 q 433 235 469 214 q 285 282 396 256 q 79 475 79 328 q 155 615 79 564 q 333 667 231 667 q 578 585 482 667 l 510 499 q 335 561 440 561 q 203 478 203 561 q 244 419 203 439 q 376 378 286 399 q 539 309 482 353 q 596 178 596 265 q 517 33 596 85 q 326 -19 439 -19 q 51 79 143 -19 m 281 749 l 143 939 l 257 939 l 340 824 l 422 939 l 536 939 l 399 749 l 281 749 z "},"Ţ":{"ha":863,"x_min":33,"x_max":829,"o":"m 365 0 l 365 810 l 33 810 l 33 926 l 829 926 l 829 810 l 499 810 l 499 0 l 365 0 m 278 -286 l 356 -78 l 504 -78 l 390 -286 l 278 -286 z "},"ţ":{"ha":533,"x_min":25,"x_max":524,"o":"m 142 211 l 142 542 l 25 542 l 25 646 l 142 646 l 142 857 l 267 857 l 267 646 l 456 646 l 456 542 l 267 542 l 267 224 q 290 118 267 149 q 360 88 313 88 q 467 132 418 88 l 524 56 q 340 -18 446 -18 q 190 38 238 -18 q 142 211 142 93 m 189 -274 l 263 -78 l 397 -78 l 292 -274 l 189 -274 z "},"Ť":{"ha":863,"x_min":33,"x_max":829,"o":"m 365 0 l 365 810 l 33 810 l 33 926 l 829 926 l 829 810 l 499 810 l 499 0 l 365 0 m 214 1208 l 329 1208 l 431 1081 l 531 1208 l 647 1208 l 490 1000 l 368 1000 q 214 1208 310 1076 z "},"ť":{"ha":533,"x_min":25,"x_max":524,"o":"m 372 714 l 372 926 l 492 926 l 457 714 l 372 714 m 142 211 l 142 542 l 25 542 l 25 646 l 142 646 l 142 857 l 267 857 l 267 646 l 456 646 l 456 542 l 267 542 l 267 224 q 290 118 267 149 q 360 88 313 88 q 467 132 418 88 l 524 56 q 340 -18 446 -18 q 190 38 238 -18 q 142 211 142 93 z "},"Ŧ":{"ha":863,"x_min":33,"x_max":829,"o":"m 365 0 l 365 390 l 176 390 l 176 500 l 365 500 l 365 810 l 33 810 l 33 926 l 829 926 l 829 810 l 499 810 l 499 500 l 686 500 l 686 390 l 499 390 l 499 0 l 365 0 z "},"ŧ":{"ha":533,"x_min":25,"x_max":524,"o":"m 25 293 l 25 388 l 142 388 l 142 542 l 25 542 l 25 646 l 142 646 l 142 857 l 267 857 l 267 646 l 456 646 l 456 542 l 267 542 l 267 388 l 456 388 l 456 293 l 267 293 l 267 224 q 290 118 267 149 q 360 88 313 88 q 467 132 418 88 l 524 56 q 340 -18 446 -18 q 188 40 233 -18 q 142 229 142 99 l 142 293 l 25 293 z "},"Ũ":{"ha":935,"x_min":99,"x_max":836,"o":"m 99 353 l 99 926 l 232 926 l 232 385 q 285 176 232 249 q 468 103 338 103 q 650 176 597 103 q 703 385 703 249 l 703 926 l 836 926 l 836 353 q 742 81 836 186 q 468 -24 649 -24 q 193 81 288 -24 q 99 353 99 186 m 254 1029 l 199 1108 q 363 1188 272 1188 q 460 1157 407 1188 q 549 1126 514 1126 q 667 1178 604 1126 q 694 1140 674 1168 q 724 1097 714 1113 q 561 1017 649 1017 q 464 1049 518 1017 q 374 1081 410 1081 q 254 1029 317 1081 z "},"ũ":{"ha":753,"x_min":82,"x_max":667,"o":"m 82 258 l 82 646 l 207 646 l 207 267 q 353 93 207 93 q 496 166 451 93 q 540 346 540 239 l 540 646 l 665 646 l 665 140 q 667 0 665 46 l 547 0 l 543 96 q 328 -14 461 -14 q 143 58 204 -14 q 82 258 82 129 m 172 768 l 121 842 q 276 917 190 917 q 368 887 317 917 q 458 857 419 857 q 504 867 483 858 q 535 882 525 875 q 567 907 546 889 l 617 832 q 463 756 546 756 q 370 786 422 756 q 285 817 318 817 q 172 768 226 817 z "},"Ū":{"ha":935,"x_min":99,"x_max":836,"o":"m 99 353 l 99 926 l 232 926 l 232 385 q 285 176 232 249 q 468 103 338 103 q 650 176 597 103 q 703 385 703 249 l 703 926 l 836 926 l 836 353 q 742 81 836 186 q 468 -24 649 -24 q 193 81 288 -24 q 99 353 99 186 m 249 1051 l 249 1156 l 686 1156 l 686 1051 l 249 1051 z "},"ū":{"ha":753,"x_min":82,"x_max":667,"o":"m 82 258 l 82 646 l 207 646 l 207 267 q 353 93 207 93 q 496 166 451 93 q 540 346 540 239 l 540 646 l 665 646 l 665 140 q 667 0 665 46 l 547 0 l 543 96 q 328 -14 461 -14 q 143 58 204 -14 q 82 258 82 129 m 197 785 l 197 885 l 544 885 l 544 785 l 197 785 z "},"Ŭ":{"ha":935,"x_min":99,"x_max":836,"o":"m 99 353 l 99 926 l 232 926 l 232 385 q 285 176 232 249 q 468 103 338 103 q 650 176 597 103 q 703 385 703 249 l 703 926 l 836 926 l 836 353 q 742 81 836 186 q 468 -24 649 -24 q 193 81 288 -24 q 99 353 99 186 m 263 1186 l 365 1186 q 394 1120 367 1147 q 468 1093 421 1093 q 543 1120 515 1093 q 572 1186 571 1147 l 675 1186 q 621 1056 675 1110 q 468 1003 567 1003 q 317 1056 371 1003 q 263 1186 263 1110 z "},"ŭ":{"ha":753,"x_min":82,"x_max":667,"o":"m 82 258 l 82 646 l 207 646 l 207 267 q 353 93 207 93 q 496 166 451 93 q 540 346 540 239 l 540 646 l 665 646 l 665 140 q 667 0 665 46 l 547 0 l 543 96 q 328 -14 461 -14 q 143 58 204 -14 q 82 258 82 129 m 181 929 l 279 929 q 303 863 279 890 q 374 836 328 836 q 444 863 419 836 q 468 929 468 890 l 565 929 q 515 804 565 857 q 374 751 464 751 q 232 804 283 751 q 181 929 181 857 z "},"Ů":{"ha":935,"x_min":99,"x_max":836,"o":"m 99 353 l 99 926 l 232 926 l 232 385 q 285 176 232 249 q 468 103 338 103 q 650 176 597 103 q 703 385 703 249 l 703 926 l 836 926 l 836 353 q 742 81 836 186 q 468 -24 649 -24 q 193 81 288 -24 q 99 353 99 186 m 352 991 q 327 1014 352 991 q 303 1108 303 1038 q 351 1226 303 1179 q 471 1274 400 1274 q 590 1228 542 1274 q 639 1111 639 1182 q 591 992 639 1040 q 472 944 543 944 q 352 991 401 944 m 472 1028 q 528 1051 507 1028 q 550 1111 550 1075 q 528 1168 550 1146 q 471 1190 507 1190 q 415 1167 436 1190 q 393 1108 393 1144 q 415 1051 393 1074 q 472 1028 436 1028 z "},"ů":{"ha":753,"x_min":82,"x_max":667,"o":"m 82 258 l 82 646 l 207 646 l 207 267 q 353 93 207 93 q 496 166 451 93 q 540 346 540 239 l 540 646 l 665 646 l 665 140 q 667 0 665 46 l 547 0 l 543 96 q 328 -14 461 -14 q 143 58 204 -14 q 82 258 82 129 m 267 785 q 245 807 267 785 q 222 890 222 828 q 267 996 222 953 q 375 1039 311 1039 q 483 997 439 1039 q 528 892 528 954 q 484 785 528 828 q 376 743 440 743 q 267 785 313 743 m 326 839 q 336 828 326 839 q 375 818 346 818 q 425 839 404 818 q 446 890 446 860 q 425 941 446 921 q 375 961 404 961 q 326 941 346 961 q 306 890 306 921 q 326 839 306 860 z "},"Ű":{"ha":935,"x_min":99,"x_max":836,"o":"m 99 353 l 99 926 l 232 926 l 232 385 q 285 176 232 249 q 468 103 338 103 q 650 176 597 103 q 703 385 703 249 l 703 926 l 836 926 l 836 353 q 742 81 836 186 q 468 -24 649 -24 q 193 81 288 -24 q 99 353 99 186 m 271 1000 l 378 1208 l 528 1208 l 376 1000 l 271 1000 m 515 1000 l 622 1208 l 772 1208 l 621 1000 l 515 1000 z "},"ű":{"ha":753,"x_min":82,"x_max":667,"o":"m 82 258 l 82 646 l 207 646 l 207 267 q 353 93 207 93 q 496 166 451 93 q 540 346 540 239 l 540 646 l 665 646 l 665 140 q 667 0 665 46 l 547 0 l 543 96 q 328 -14 461 -14 q 143 58 204 -14 q 82 258 82 129 m 419 750 l 493 939 l 624 939 l 515 750 l 419 750 m 208 750 l 282 939 l 414 939 l 306 750 l 208 750 z "},"Ų":{"ha":935,"x_min":99,"x_max":836,"o":"m 99 353 l 99 926 l 232 926 l 232 385 q 285 176 232 249 q 468 103 338 103 q 650 176 597 103 q 703 385 703 249 l 703 926 l 836 926 l 836 353 q 785 140 836 217 q 622 -3 735 64 q 532 -135 532 -58 q 579 -175 532 -175 q 657 -147 608 -175 l 693 -229 q 544 -278 624 -278 q 411 -171 411 -278 q 483 -24 411 -103 l 468 -24 q 193 81 288 -24 q 99 353 99 186 z "},"ų":{"ha":753,"x_min":82,"x_max":746,"o":"m 82 258 l 82 646 l 207 646 l 207 267 q 353 93 207 93 q 496 166 451 93 q 540 346 540 239 l 540 646 l 664 646 l 664 140 q 665 0 664 46 q 583 -132 583 -82 q 631 -174 583 -174 q 713 -144 667 -174 l 746 -226 q 604 -272 678 -272 q 508 -244 542 -272 q 474 -165 474 -215 q 564 0 474 -93 l 547 0 l 543 96 q 328 -14 461 -14 q 143 58 204 -14 q 82 258 82 129 z "},"Ŵ":{"ha":1219,"x_min":24,"x_max":1193,"o":"m 271 0 l 24 926 l 171 926 l 349 179 l 550 899 l 679 899 l 876 181 l 1054 926 l 1193 926 l 944 0 l 803 0 l 610 685 l 411 0 l 271 0 m 396 1000 l 553 1208 l 675 1208 q 829 1000 733 1131 l 714 1000 l 613 1128 l 513 1000 l 396 1000 z "},"ŵ":{"ha":1003,"x_min":15,"x_max":986,"o":"m 233 0 l 15 646 l 153 646 l 297 153 l 453 646 l 560 646 l 715 149 l 857 646 l 986 646 l 772 0 l 649 0 l 499 451 l 350 0 l 233 0 m 310 749 l 447 939 l 565 939 l 703 749 l 589 749 l 506 864 l 424 749 l 310 749 z "},"Ŷ":{"ha":801,"x_min":13,"x_max":788,"o":"m 332 0 l 332 414 l 13 926 l 161 926 l 403 531 l 644 926 l 788 926 l 467 414 l 467 0 l 332 0 m 186 1000 l 343 1208 l 465 1208 q 619 1000 524 1131 l 504 1000 l 403 1128 l 303 1000 l 186 1000 z "},"ŷ":{"ha":697,"x_min":13,"x_max":683,"o":"m 32 -246 l 89 -158 q 165 -190 124 -190 q 226 -159 204 -190 q 281 -47 249 -128 q 285 -36 283 -40 l 301 6 l 13 646 l 156 646 l 364 158 l 547 646 l 683 646 l 425 17 q 401 -46 418 0 q 374 -117 385 -92 q 342 -181 364 -143 q 299 -241 321 -219 q 244 -278 278 -262 q 172 -294 211 -294 q 32 -246 88 -294 m 156 749 l 293 939 l 411 939 l 549 749 l 435 749 l 351 864 l 269 749 l 156 749 z "},"Ÿ":{"ha":801,"x_min":13,"x_max":788,"o":"m 332 0 l 332 414 l 13 926 l 161 926 l 403 531 l 644 926 l 788 926 l 467 414 l 467 0 l 332 0 m 469 1036 l 469 1172 l 610 1172 l 610 1036 l 469 1036 m 199 1036 l 199 1172 l 339 1172 l 339 1036 l 199 1036 z "},"Ź":{"ha":892,"x_min":71,"x_max":819,"o":"m 71 0 l 71 117 l 647 808 l 99 808 l 99 926 l 810 926 l 810 808 l 240 118 l 819 118 l 819 0 l 71 0 m 367 1000 l 468 1208 l 626 1208 l 479 1000 l 367 1000 z "},"ź":{"ha":661,"x_min":72,"x_max":599,"o":"m 72 0 l 72 99 l 442 540 l 85 540 l 85 646 l 594 646 l 594 546 l 218 104 l 599 104 l 599 0 l 72 0 m 294 750 l 369 939 l 506 939 l 399 750 l 294 750 z "},"Ż":{"ha":892,"x_min":71,"x_max":819,"o":"m 71 0 l 71 117 l 647 808 l 99 808 l 99 926 l 810 926 l 810 808 l 240 118 l 819 118 l 819 0 l 71 0 m 383 1033 l 383 1176 l 532 1176 l 532 1033 l 383 1033 z "},"ż":{"ha":661,"x_min":72,"x_max":599,"o":"m 72 0 l 72 99 l 442 540 l 85 540 l 85 646 l 594 646 l 594 546 l 218 104 l 599 104 l 599 0 l 72 0 m 281 774 l 281 908 l 419 908 l 419 774 l 281 774 z "},"Ž":{"ha":892,"x_min":71,"x_max":819,"o":"m 71 0 l 71 117 l 647 808 l 99 808 l 99 926 l 810 926 l 810 808 l 240 118 l 819 118 l 819 0 l 71 0 m 246 1208 l 361 1208 l 463 1081 l 563 1208 l 679 1208 l 522 1000 l 400 1000 q 246 1208 342 1076 z "},"ž":{"ha":661,"x_min":72,"x_max":599,"o":"m 72 0 l 72 99 l 442 540 l 85 540 l 85 646 l 594 646 l 594 546 l 218 104 l 599 104 l 599 0 l 72 0 m 294 749 l 157 939 l 271 939 l 354 824 l 436 939 l 550 939 l 413 749 l 294 749 z "},"ſ":{"ha":368,"x_min":107,"x_max":522,"o":"m 107 0 l 107 679 q 160 876 107 801 q 331 950 214 950 q 522 879 446 950 l 460 799 q 347 840 411 840 q 259 799 288 840 q 231 665 231 758 l 231 0 l 107 0 z "},"ƒ":{"ha":718,"x_min":-106,"x_max":735,"o":"m -106 -211 l -37 -117 q 61 -160 6 -160 q 151 -123 121 -160 q 194 -7 181 -86 l 271 422 l 147 422 l 147 529 l 290 529 l 308 635 q 560 894 351 894 q 735 818 667 894 l 667 731 q 564 778 613 778 q 475 738 503 778 q 435 619 447 699 l 419 529 l 564 529 l 564 422 l 400 422 l 322 -19 q 61 -278 278 -278 q -26 -259 21 -278 q -106 -211 -72 -240 z "},"Ș":{"ha":808,"x_min":51,"x_max":724,"o":"m 51 139 l 146 225 q 394 99 257 99 q 538 140 486 99 q 589 253 589 182 q 534 365 589 325 q 363 429 479 404 q 167 522 239 456 q 96 696 96 589 q 177 877 96 804 q 406 950 258 950 q 694 821 589 950 l 606 739 q 400 832 522 832 q 274 792 318 832 q 231 700 231 753 q 283 602 231 636 q 450 540 335 568 q 551 507 507 526 q 638 454 596 488 q 701 369 679 421 q 724 250 724 318 q 630 53 724 131 q 397 -24 536 -24 q 190 25 281 -24 q 51 139 99 74 m 268 -286 l 346 -78 l 494 -78 l 381 -286 l 268 -286 z "},"ș":{"ha":656,"x_min":51,"x_max":596,"o":"m 51 79 l 128 163 q 324 86 204 86 q 429 107 389 86 q 469 169 469 128 q 433 235 469 214 q 285 282 396 256 q 79 475 79 328 q 155 615 79 564 q 333 667 231 667 q 578 585 482 667 l 510 499 q 335 561 440 561 q 203 478 203 561 q 244 419 203 439 q 376 378 286 399 q 539 309 482 353 q 596 178 596 265 q 517 33 596 85 q 326 -19 439 -19 q 51 79 143 -19 m 207 -274 l 281 -78 l 415 -78 l 310 -274 l 207 -274 z "},"Ț":{"ha":863,"x_min":33,"x_max":829,"o":"m 365 0 l 365 810 l 33 810 l 33 926 l 829 926 l 829 810 l 499 810 l 499 0 l 365 0 m 278 -286 l 356 -78 l 504 -78 l 390 -286 l 278 -286 z "},"ț":{"ha":533,"x_min":25,"x_max":524,"o":"m 142 211 l 142 542 l 25 542 l 25 646 l 142 646 l 142 857 l 267 857 l 267 646 l 456 646 l 456 542 l 267 542 l 267 224 q 290 118 267 149 q 360 88 313 88 q 467 132 418 88 l 524 56 q 340 -18 446 -18 q 190 38 238 -18 q 142 211 142 93 m 194 -274 l 268 -78 l 403 -78 l 297 -274 l 194 -274 z "},"ȷ":{"ha":308,"x_min":-125,"x_max":217,"o":"m -125 -226 l -74 -140 q 7 -169 -35 -169 q 73 -124 54 -169 q 92 26 92 -79 l 92 646 l 217 646 l 217 -8 q 175 -205 217 -132 q 19 -278 133 -278 q -125 -226 -61 -278 z "},"ʼ":{"ha":288,"x_min":88,"x_max":226,"o":"m 88 750 l 99 939 l 226 939 l 181 750 l 88 750 z "},"ˆ":{"ha":569,"x_min":88,"x_max":481,"o":"m 88 749 l 225 939 l 343 939 l 481 749 l 367 749 l 283 864 l 201 749 l 88 749 z "},"ˇ":{"ha":569,"x_min":88,"x_max":481,"o":"m 225 749 l 88 939 l 201 939 l 285 824 l 367 939 l 481 939 l 343 749 l 225 749 z "},"ˉ":{"ha":483,"x_min":71,"x_max":418,"o":"m 71 785 l 71 885 l 418 885 l 418 785 l 71 785 z "},"˘":{"ha":579,"x_min":110,"x_max":494,"o":"m 110 929 l 208 929 q 233 863 208 890 q 303 836 257 836 q 373 863 349 836 q 397 929 397 890 l 494 929 q 444 804 494 857 q 303 751 393 751 q 161 804 213 751 q 110 929 110 857 z "},"˙":{"ha":408,"x_min":135,"x_max":274,"o":"m 135 774 l 135 908 l 274 908 l 274 774 l 135 774 z "},"˚":{"ha":457,"x_min":75,"x_max":381,"o":"m 120 785 q 98 807 120 785 q 75 890 75 828 q 119 996 75 953 q 228 1039 164 1039 q 336 997 292 1039 q 381 892 381 954 q 337 785 381 828 q 229 743 293 743 q 120 785 165 743 m 178 839 q 189 828 178 839 q 228 818 199 818 q 278 839 257 818 q 299 890 299 860 q 278 941 299 921 q 228 961 257 961 q 178 941 199 961 q 158 890 158 921 q 178 839 158 860 z "},"˛":{"ha":442,"x_min":92,"x_max":364,"o":"m 182 0 l 283 0 q 201 -132 201 -82 q 249 -174 201 -174 q 331 -144 285 -174 l 364 -226 q 222 -272 296 -272 q 126 -244 160 -272 q 92 -165 92 -215 q 182 0 92 -93 z "},"˜":{"ha":581,"x_min":40,"x_max":536,"o":"m 92 768 l 40 842 q 196 917 110 917 q 288 887 236 917 q 378 857 339 857 q 424 867 403 858 q 455 882 444 875 q 486 907 465 889 l 536 832 q 382 756 465 756 q 290 786 342 756 q 204 817 238 817 q 92 768 146 817 z "},"˝":{"ha":567,"x_min":75,"x_max":490,"o":"m 286 750 l 360 939 l 490 939 l 382 750 l 286 750 m 75 750 l 149 939 l 281 939 l 172 750 l 75 750 z "},"Ω":{"ha":1118,"x_min":71,"x_max":1046,"o":"m 71 0 l 71 119 l 265 119 q 85 482 85 253 q 220 815 85 682 q 558 949 356 949 q 897 815 761 949 q 1032 482 1032 682 q 851 119 1032 253 l 1046 119 l 1046 0 l 657 0 l 657 119 q 828 256 764 151 q 893 483 893 361 q 801 731 893 633 q 560 828 710 828 l 557 828 q 315 731 407 828 q 224 483 224 633 q 288 256 224 361 q 460 119 353 151 l 460 0 l 71 0 z "},"π":{"ha":961,"x_min":78,"x_max":890,"o":"m 224 0 l 224 542 l 78 542 l 78 646 l 875 646 l 875 542 l 731 542 l 731 204 q 745 124 731 146 q 797 101 760 101 q 863 117 836 101 l 890 18 q 767 -7 838 -7 q 604 186 604 -7 l 604 542 l 350 542 l 350 0 l 224 0 z "},"Ẁ":{"ha":1219,"x_min":24,"x_max":1193,"o":"m 271 0 l 24 926 l 171 926 l 349 179 l 550 899 l 679 899 l 876 181 l 1054 926 l 1193 926 l 944 0 l 803 0 l 610 685 l 411 0 l 271 0 m 558 1000 l 413 1208 l 568 1208 l 671 1000 l 558 1000 z "},"ẁ":{"ha":1003,"x_min":15,"x_max":986,"o":"m 233 0 l 15 646 l 153 646 l 297 153 l 453 646 l 560 646 l 715 149 l 857 646 l 986 646 l 772 0 l 649 0 l 499 451 l 350 0 l 233 0 m 464 751 l 356 940 l 494 940 l 568 751 l 464 751 z "},"Ẃ":{"ha":1219,"x_min":24,"x_max":1193,"o":"m 271 0 l 24 926 l 171 926 l 349 179 l 550 899 l 679 899 l 876 181 l 1054 926 l 1193 926 l 944 0 l 803 0 l 610 685 l 411 0 l 271 0 m 550 1000 l 651 1208 l 810 1208 l 663 1000 l 550 1000 z "},"ẃ":{"ha":1003,"x_min":15,"x_max":986,"o":"m 233 0 l 15 646 l 153 646 l 297 153 l 453 646 l 560 646 l 715 149 l 857 646 l 986 646 l 772 0 l 649 0 l 499 451 l 350 0 l 233 0 m 450 750 l 525 939 l 661 939 l 554 750 l 450 750 z "},"Ẅ":{"ha":1219,"x_min":24,"x_max":1193,"o":"m 271 0 l 24 926 l 171 926 l 349 179 l 550 899 l 679 899 l 876 181 l 1054 926 l 1193 926 l 944 0 l 803 0 l 610 685 l 411 0 l 271 0 m 676 1036 l 676 1172 l 817 1172 l 817 1036 l 676 1036 m 406 1036 l 406 1172 l 546 1172 l 546 1036 l 406 1036 z "},"ẅ":{"ha":1003,"x_min":15,"x_max":986,"o":"m 233 0 l 15 646 l 153 646 l 297 153 l 453 646 l 560 646 l 715 149 l 857 646 l 986 646 l 772 0 l 649 0 l 499 451 l 350 0 l 233 0 m 554 778 l 554 904 l 683 904 l 683 778 l 554 778 m 317 778 l 317 904 l 447 904 l 447 778 l 317 778 z "},"Ỳ":{"ha":801,"x_min":13,"x_max":788,"o":"m 332 0 l 332 414 l 13 926 l 161 926 l 403 531 l 644 926 l 788 926 l 467 414 l 467 0 l 332 0 m 365 1000 l 219 1208 l 375 1208 l 478 1000 l 365 1000 z "},"ỳ":{"ha":697,"x_min":13,"x_max":683,"o":"m 32 -246 l 89 -158 q 165 -190 124 -190 q 226 -159 204 -190 q 281 -47 249 -128 q 285 -36 283 -40 l 301 6 l 13 646 l 156 646 l 364 158 l 547 646 l 683 646 l 425 17 q 401 -46 418 0 q 374 -117 385 -92 q 342 -181 364 -143 q 299 -241 321 -219 q 244 -278 278 -262 q 172 -294 211 -294 q 32 -246 88 -294 m 315 751 l 207 940 l 346 940 l 419 751 l 315 751 z "},"–":{"ha":694,"x_min":0,"x_max":694,"o":"m 0 329 l 0 449 l 694 449 l 694 329 l 0 329 z "},"—":{"ha":1389,"x_min":0,"x_max":1389,"o":"m 0 329 l 0 449 l 1389 449 l 1389 329 l 0 329 z "},"‘":{"ha":332,"x_min":75,"x_max":246,"o":"m 75 650 l 149 925 l 246 925 l 217 650 l 75 650 z "},"’":{"ha":332,"x_min":93,"x_max":263,"o":"m 93 650 l 121 925 l 263 925 l 189 650 l 93 650 z "},"‚":{"ha":344,"x_min":96,"x_max":265,"o":"m 96 -118 l 125 156 l 265 156 l 193 -118 l 96 -118 z "},"“":{"ha":568,"x_min":78,"x_max":485,"o":"m 314 650 l 388 925 l 485 925 l 456 650 l 314 650 m 78 650 l 151 925 l 249 925 l 219 650 l 78 650 z "},"”":{"ha":568,"x_min":96,"x_max":501,"o":"m 332 650 l 360 925 l 501 925 l 428 650 l 332 650 m 96 650 l 124 925 l 265 925 l 192 650 l 96 650 z "},"„":{"ha":582,"x_min":96,"x_max":501,"o":"m 96 -118 l 125 156 l 265 156 l 193 -118 l 96 -118 m 332 -118 l 361 156 l 501 156 l 429 -118 l 332 -118 z "},"†":{"ha":717,"x_min":85,"x_max":632,"o":"m 297 -168 l 297 554 l 85 554 l 85 658 l 297 658 l 297 926 l 419 926 l 419 658 l 632 658 l 632 554 l 419 554 l 419 -168 l 297 -168 z "},"‡":{"ha":717,"x_min":85,"x_max":632,"o":"m 297 -168 l 297 100 l 85 100 l 85 204 l 297 204 l 297 554 l 85 554 l 85 658 l 297 658 l 297 926 l 419 926 l 419 658 l 632 658 l 632 554 l 419 554 l 419 204 l 632 204 l 632 100 l 419 100 l 419 -168 l 297 -168 z "},"•":{"ha":556,"x_min":104,"x_max":451,"o":"m 156 329 q 130 355 156 329 q 104 451 104 381 q 156 573 104 522 q 278 624 207 624 q 400 573 349 624 q 451 451 451 522 q 400 329 451 381 q 278 278 349 278 q 156 329 207 278 z "},"…":{"ha":1040,"x_min":53,"x_max":856,"o":"m 699 -1 l 699 154 l 856 154 l 856 -1 l 699 -1 m 375 -1 l 375 154 l 532 154 l 532 -1 l 375 -1 m 53 -1 l 53 154 l 210 154 l 210 -1 l 53 -1 z "},"‰":{"ha":1763,"x_min":65,"x_max":1697,"o":"m 275 0 l 838 875 l 956 875 l 393 0 l 275 0 m 1113 54 q 1084 22 1113 54 q 957 -11 1054 -11 q 801 54 860 -11 q 742 240 742 119 q 801 426 742 361 q 957 490 860 490 q 1113 426 1054 490 q 1172 240 1172 361 q 1113 54 1172 119 m 957 76 q 1032 116 1000 76 q 1064 240 1064 156 q 1032 364 1064 325 q 957 403 1000 403 q 881 364 913 403 q 849 240 849 325 q 881 116 849 156 q 957 76 913 76 m 1638 54 q 1609 22 1638 54 q 1482 -11 1579 -11 q 1326 54 1385 -11 q 1267 240 1267 119 q 1326 426 1267 361 q 1482 490 1385 490 q 1638 426 1579 490 q 1697 240 1697 361 q 1638 54 1697 119 m 1482 76 q 1557 116 1525 76 q 1589 240 1589 156 q 1557 364 1589 325 q 1482 403 1525 403 q 1406 364 1438 403 q 1374 240 1374 325 q 1406 116 1374 156 q 1482 76 1438 76 m 437 463 q 407 430 437 463 q 281 397 378 397 q 124 463 183 397 q 65 649 65 528 q 124 834 65 769 q 281 899 183 899 q 437 834 378 899 q 496 649 496 769 q 437 463 496 528 m 281 485 q 356 524 324 485 q 388 649 388 564 q 356 772 388 733 q 281 811 324 811 q 204 772 236 811 q 172 649 172 733 q 204 524 172 564 q 281 485 236 485 z "},"‹":{"ha":451,"x_min":88,"x_max":357,"o":"m 233 63 l 88 331 l 233 599 l 357 599 l 217 331 l 357 63 l 233 63 z "},"›":{"ha":451,"x_min":94,"x_max":364,"o":"m 94 63 l 235 331 l 94 599 l 218 599 l 364 331 l 218 63 l 94 63 z "},"⁄":{"ha":271,"x_min":-203,"x_max":478,"o":"m -203 0 l 360 875 l 478 875 l -85 0 l -203 0 z "},"⁰":{"ha":500,"x_min":32,"x_max":463,"o":"m 403 463 q 374 430 403 463 q 247 397 344 397 q 91 463 150 397 q 32 649 32 528 q 91 834 32 769 q 247 899 150 899 q 403 834 344 899 q 463 649 463 769 q 403 463 463 528 m 247 485 q 322 524 290 485 q 354 649 354 564 q 322 772 354 733 q 247 811 290 811 q 171 772 203 811 q 139 649 139 733 q 171 524 139 564 q 247 485 203 485 z "},"⁴":{"ha":500,"x_min":49,"x_max":461,"o":"m 49 503 l 49 582 l 297 885 l 403 885 l 403 583 l 461 583 l 461 503 l 403 503 l 403 413 l 307 413 l 307 503 l 49 503 m 140 583 l 307 583 l 307 783 l 140 583 z "},"⁵":{"ha":500,"x_min":51,"x_max":425,"o":"m 51 447 l 99 524 q 221 482 151 482 q 291 500 260 482 q 322 560 322 518 q 294 615 322 596 q 222 635 267 635 q 138 618 175 635 l 90 657 l 136 885 l 400 885 l 400 797 l 211 797 l 193 703 q 258 711 219 711 q 376 672 328 711 q 425 561 425 632 q 370 443 425 492 q 226 394 315 394 q 51 447 124 394 z "},"⁶":{"ha":500,"x_min":56,"x_max":444,"o":"m 417 864 l 378 788 q 293 811 343 811 q 200 775 236 811 q 160 683 164 739 q 278 717 218 717 q 397 676 349 717 q 444 560 444 636 q 390 443 444 489 q 260 397 336 397 q 113 456 169 397 q 56 624 56 515 q 119 824 56 750 q 290 899 182 899 q 417 864 363 899 m 158 607 q 183 512 158 546 q 257 478 208 478 q 322 500 296 478 q 349 560 349 522 q 327 615 349 592 q 260 639 306 639 q 158 607 194 639 z "},"⁷":{"ha":500,"x_min":65,"x_max":422,"o":"m 239 411 l 125 411 q 315 799 196 607 l 65 799 l 65 885 l 422 885 l 422 797 q 323 615 382 735 q 239 411 264 494 z "},"⁸":{"ha":500,"x_min":54,"x_max":446,"o":"m 156 664 q 79 769 79 701 q 127 864 79 829 q 249 899 175 899 q 373 865 325 899 q 421 769 421 831 q 344 664 421 701 q 416 617 386 649 q 446 539 446 585 q 392 435 446 474 q 249 397 339 397 q 106 435 158 397 q 54 539 54 474 q 156 664 54 622 m 249 628 q 160 542 160 604 q 249 478 160 478 q 313 494 286 478 q 339 542 339 510 q 249 628 339 597 m 250 697 q 325 767 325 721 q 304 810 325 794 q 249 826 283 826 q 195 810 215 826 q 175 767 175 794 q 250 697 175 718 z "},"⁹":{"ha":500,"x_min":50,"x_max":439,"o":"m 75 431 l 114 508 q 208 483 156 483 q 299 519 267 483 q 336 613 331 554 q 217 579 285 579 q 98 619 146 579 q 50 736 50 660 q 104 853 50 807 q 235 899 158 899 q 382 839 325 899 q 439 671 439 779 q 378 470 439 543 q 204 397 318 397 q 75 431 126 397 m 336 689 q 312 782 336 746 q 238 818 288 818 q 172 796 199 818 q 146 736 146 774 q 167 680 146 703 q 235 657 188 657 q 336 689 296 657 z "},"₀":{"ha":500,"x_min":32,"x_max":463,"o":"m 403 53 q 374 20 403 53 q 247 -12 344 -12 q 91 53 150 -12 q 32 239 32 118 q 91 424 32 360 q 247 489 150 489 q 403 424 344 489 q 463 239 463 360 q 403 53 463 118 m 247 75 q 322 115 290 75 q 354 239 354 154 q 322 363 354 324 q 247 401 290 401 q 171 363 203 401 q 139 239 139 324 q 171 115 139 154 q 247 75 203 75 z "},"₁":{"ha":500,"x_min":86,"x_max":354,"o":"m 247 1 l 247 364 l 125 303 l 86 382 l 261 475 l 354 475 l 354 1 l 247 1 z "},"₂":{"ha":500,"x_min":60,"x_max":428,"o":"m 68 1 l 68 60 q 106 149 68 107 q 190 215 144 190 q 273 272 235 239 q 311 338 311 304 q 290 383 311 368 q 239 397 269 397 q 106 340 171 397 l 60 414 q 251 489 140 489 q 382 448 338 489 q 426 344 426 407 q 394 253 426 293 q 320 192 361 213 q 239 144 279 172 q 188 90 199 117 l 428 90 l 428 1 l 68 1 z "},"₃":{"ha":500,"x_min":47,"x_max":421,"o":"m 47 39 l 97 115 q 218 74 147 74 q 289 92 263 74 q 315 147 315 111 q 215 221 315 221 q 154 213 179 221 l 133 256 l 282 389 l 85 389 l 85 475 l 401 475 l 401 396 l 279 283 q 385 238 349 276 q 421 140 421 200 q 365 31 421 74 q 219 -12 310 -12 q 47 39 118 -12 z "},"₄":{"ha":500,"x_min":49,"x_max":461,"o":"m 49 93 l 49 172 l 297 475 l 403 475 l 403 174 l 461 174 l 461 93 l 403 93 l 403 3 l 307 3 l 307 93 l 49 93 m 140 174 l 307 174 l 307 374 l 140 174 z "},"₅":{"ha":500,"x_min":51,"x_max":425,"o":"m 51 38 l 99 114 q 221 72 151 72 q 291 90 260 72 q 322 150 322 108 q 294 206 322 186 q 222 225 267 225 q 138 208 175 225 l 90 247 l 136 475 l 400 475 l 400 388 l 211 388 l 193 293 q 258 301 219 301 q 376 262 328 301 q 425 151 425 222 q 370 33 425 82 q 226 -15 315 -15 q 51 38 124 -15 z "},"₆":{"ha":500,"x_min":56,"x_max":444,"o":"m 417 454 l 378 378 q 293 401 343 401 q 200 365 236 401 q 160 274 164 329 q 278 307 218 307 q 397 267 349 307 q 444 150 444 226 q 390 33 444 79 q 260 -12 336 -12 q 113 47 169 -12 q 56 214 56 106 q 119 415 56 340 q 290 489 182 489 q 417 454 363 489 m 158 197 q 183 102 158 136 q 257 68 208 68 q 322 90 296 68 q 349 150 349 113 q 327 206 349 182 q 260 229 306 229 q 158 197 194 229 z "},"₇":{"ha":500,"x_min":65,"x_max":422,"o":"m 239 1 l 125 1 q 315 389 196 197 l 65 389 l 65 475 l 422 475 l 422 388 q 323 205 382 325 q 239 1 264 85 z "},"₈":{"ha":500,"x_min":54,"x_max":446,"o":"m 156 254 q 79 360 79 292 q 127 454 79 419 q 249 489 175 489 q 373 455 325 489 q 421 360 421 421 q 344 254 421 292 q 416 207 386 239 q 446 129 446 175 q 392 26 446 64 q 249 -12 339 -12 q 106 26 158 -12 q 54 129 54 64 q 156 254 54 213 m 249 218 q 160 132 160 194 q 249 68 160 68 q 313 84 286 68 q 339 132 339 100 q 249 218 339 188 m 250 288 q 325 357 325 311 q 304 401 325 385 q 249 417 283 417 q 195 401 215 417 q 175 357 175 385 q 250 288 175 308 z "},"₉":{"ha":500,"x_min":50,"x_max":439,"o":"m 75 21 l 114 99 q 208 74 156 74 q 299 109 267 74 q 336 203 331 144 q 217 169 285 169 q 98 210 146 169 q 50 326 50 250 q 104 443 50 397 q 235 489 158 489 q 382 429 325 489 q 439 261 439 369 q 378 60 439 133 q 204 -12 318 -12 q 75 21 126 -12 m 336 279 q 312 372 336 336 q 238 408 288 408 q 172 386 199 408 q 146 326 146 364 q 167 270 146 293 q 235 247 188 247 q 336 279 296 247 z "},"€":{"ha":757,"x_min":40,"x_max":746,"o":"m 40 296 l 68 379 l 157 379 q 154 443 154 393 q 157 501 154 488 l 40 501 l 68 586 l 169 586 q 285 813 199 726 q 508 900 372 900 q 746 803 640 900 l 676 715 q 511 783 611 783 q 375 731 429 783 q 300 586 321 679 l 606 586 l 578 501 l 286 501 q 285 443 285 481 q 286 379 285 400 l 597 379 l 569 296 l 300 296 q 511 100 347 100 q 676 167 610 100 l 746 81 q 508 -15 650 -15 q 286 70 372 -15 q 171 296 200 156 l 40 296 z "},"ℓ":{"ha":653,"x_min":79,"x_max":601,"o":"m 181 313 l 181 607 q 231 878 181 797 q 381 958 281 958 q 498 906 453 958 q 543 758 543 853 q 288 292 543 529 l 288 264 q 316 121 288 160 q 397 82 344 82 q 482 104 440 82 q 546 160 524 126 l 601 107 q 385 -12 521 -12 q 182 219 182 -12 q 114 171 172 213 q 79 232 107 186 q 181 313 121 260 m 288 681 l 288 401 q 450 757 450 582 q 375 878 450 878 q 312 829 336 878 q 288 681 288 781 z "},"™":{"ha":1233,"x_min":42,"x_max":1146,"o":"m 600 394 l 614 926 l 708 926 l 869 668 l 1028 926 l 1129 926 l 1146 394 l 1047 394 l 1038 782 l 889 535 l 846 535 l 703 769 l 692 394 l 600 394 m 231 394 l 231 835 l 42 835 l 42 926 l 524 926 l 524 835 l 336 835 l 336 394 l 231 394 z "},"Ω":{"ha":1118,"x_min":71,"x_max":1046,"o":"m 71 0 l 71 119 l 265 119 q 85 482 85 253 q 220 815 85 682 q 558 949 356 949 q 897 815 761 949 q 1032 482 1032 682 q 851 119 1032 253 l 1046 119 l 1046 0 l 657 0 l 657 119 q 828 256 764 151 q 893 483 893 361 q 801 731 893 633 q 560 828 710 828 l 557 828 q 315 731 407 828 q 224 483 224 633 q 288 256 224 361 q 460 119 353 151 l 460 0 l 71 0 z "},"℮":{"ha":1238,"x_min":65,"x_max":1179,"o":"m 269 465 l 269 192 q 282 161 269 174 q 622 13 422 13 q 982 178 835 13 l 1061 178 q 871 37 989 89 q 621 -15 753 -15 q 228 131 390 -15 q 65 485 65 278 q 228 839 65 692 q 621 986 390 986 q 1015 839 851 986 q 1179 485 1179 692 l 1179 471 l 276 471 q 269 465 269 471 m 276 497 l 968 497 q 974 507 974 497 l 974 781 q 961 814 974 800 q 622 956 819 956 q 283 808 428 956 q 269 775 269 799 l 269 507 q 276 497 269 497 z "},"⅓":{"ha":1239,"x_min":86,"x_max":1140,"o":"m 250 0 l 813 875 l 931 875 l 368 0 l 250 0 m 247 411 l 247 774 l 125 713 l 86 792 l 261 885 l 354 885 l 354 411 l 247 411 m 767 39 l 817 115 q 938 74 867 74 q 1008 92 982 74 q 1035 147 1035 111 q 935 221 1035 221 q 874 213 899 221 l 853 256 l 1001 389 l 804 389 l 804 475 l 1121 475 l 1121 396 l 999 283 q 1104 238 1068 276 q 1140 140 1140 200 q 1085 31 1140 74 q 939 -12 1029 -12 q 767 39 838 -12 z "},"⅔":{"ha":1239,"x_min":68,"x_max":1168,"o":"m 285 0 l 847 875 l 965 875 l 403 0 l 285 0 m 76 411 l 76 469 q 115 558 76 517 q 198 624 153 600 q 281 681 243 649 q 319 747 319 714 q 299 792 319 778 q 247 807 278 807 q 114 750 179 807 l 68 824 q 260 899 149 899 q 390 858 346 899 q 435 754 435 817 q 402 663 435 703 q 328 602 369 622 q 247 554 288 582 q 196 500 207 526 l 436 500 l 436 411 l 76 411 m 794 39 l 844 115 q 965 74 894 74 q 1036 92 1010 74 q 1063 147 1063 111 q 963 221 1063 221 q 901 213 926 221 l 881 256 l 1029 389 l 832 389 l 832 475 l 1149 475 l 1149 396 l 1026 283 q 1132 238 1096 276 q 1168 140 1168 200 q 1113 31 1168 74 q 967 -12 1057 -12 q 794 39 865 -12 z "},"⅕":{"ha":1239,"x_min":85,"x_max":1143,"o":"m 251 0 l 814 875 l 932 875 l 369 0 l 251 0 m 246 411 l 246 774 l 124 713 l 85 792 l 260 885 l 353 885 l 353 411 l 246 411 m 769 38 l 817 114 q 939 72 869 72 q 1009 90 978 72 q 1040 150 1040 108 q 1013 206 1040 186 q 940 225 985 225 q 856 208 893 225 l 808 247 l 854 475 l 1118 475 l 1118 388 l 929 388 l 911 293 q 976 301 938 301 q 1094 262 1046 301 q 1143 151 1143 222 q 1088 33 1143 82 q 944 -15 1033 -15 q 769 38 842 -15 z "},"⅖":{"ha":1239,"x_min":67,"x_max":1169,"o":"m 290 0 l 853 875 l 971 875 l 408 0 l 290 0 m 75 411 l 75 469 q 113 558 75 517 q 197 624 151 600 q 280 681 242 649 q 318 747 318 714 q 297 792 318 778 q 246 807 276 807 q 113 750 178 807 l 67 824 q 258 899 147 899 q 389 858 344 899 q 433 754 433 817 q 401 663 433 703 q 327 602 368 622 q 246 554 286 582 q 194 500 206 526 l 435 500 l 435 411 l 75 411 m 796 38 l 843 114 q 965 72 896 72 q 1035 90 1004 72 q 1067 150 1067 108 q 1039 206 1067 186 q 967 225 1011 225 q 882 208 919 225 l 835 247 l 881 475 l 1144 475 l 1144 388 l 956 388 l 938 293 q 1003 301 964 301 q 1121 262 1072 301 q 1169 151 1169 222 q 1115 33 1169 82 q 971 -15 1060 -15 q 796 38 868 -15 z "},"⅗":{"ha":1239,"x_min":67,"x_max":1169,"o":"m 279 0 l 842 875 l 960 875 l 397 0 l 279 0 m 796 38 l 843 114 q 965 72 896 72 q 1035 90 1004 72 q 1067 150 1067 108 q 1039 206 1067 186 q 967 225 1011 225 q 882 208 919 225 l 835 247 l 881 475 l 1144 475 l 1144 388 l 956 388 l 938 293 q 1003 301 964 301 q 1121 262 1072 301 q 1169 151 1169 222 q 1115 33 1169 82 q 971 -15 1060 -15 q 796 38 868 -15 m 67 449 l 117 525 q 238 483 167 483 q 308 502 282 483 q 335 557 335 521 q 235 631 335 631 q 174 622 199 631 l 153 665 l 301 799 l 104 799 l 104 885 l 421 885 l 421 806 l 299 693 q 404 648 368 686 q 440 550 440 610 q 385 440 440 483 q 239 397 329 397 q 67 449 138 397 z "},"⅘":{"ha":1239,"x_min":58,"x_max":1174,"o":"m 293 0 l 856 875 l 974 875 l 411 0 l 293 0 m 800 38 l 847 114 q 969 72 900 72 q 1040 90 1008 72 q 1071 150 1071 108 q 1043 206 1071 186 q 971 225 1015 225 q 886 208 924 225 l 839 247 l 885 475 l 1149 475 l 1149 388 l 960 388 l 942 293 q 1007 301 968 301 q 1125 262 1076 301 q 1174 151 1174 222 q 1119 33 1174 82 q 975 -15 1064 -15 q 800 38 872 -15 m 58 503 l 58 582 l 307 885 l 413 885 l 413 583 l 471 583 l 471 503 l 413 503 l 413 413 l 317 413 l 317 503 l 58 503 m 150 583 l 317 583 l 317 783 l 150 583 z "},"⅙":{"ha":1239,"x_min":83,"x_max":1143,"o":"m 249 0 l 811 875 l 929 875 l 367 0 l 249 0 m 244 411 l 244 774 l 122 713 l 83 792 l 258 885 l 351 885 l 351 411 l 244 411 m 1115 454 l 1076 378 q 992 401 1042 401 q 899 365 935 401 q 858 274 863 329 q 976 307 917 307 q 1095 267 1047 307 q 1143 150 1143 226 q 1089 33 1143 79 q 958 -12 1035 -12 q 811 47 868 -12 q 754 214 754 106 q 817 415 754 340 q 989 489 881 489 q 1115 454 1061 489 m 857 197 q 882 102 857 136 q 956 68 907 68 q 1021 90 994 68 q 1047 150 1047 113 q 1026 206 1047 182 q 958 229 1004 229 q 857 197 893 229 z "},"⅚":{"ha":1239,"x_min":69,"x_max":1167,"o":"m 279 0 l 842 875 l 960 875 l 397 0 l 279 0 m 1139 454 l 1100 378 q 1015 401 1065 401 q 922 365 958 401 q 882 274 886 329 q 1000 307 940 307 q 1119 267 1071 307 q 1167 150 1167 226 q 1113 33 1167 79 q 982 -12 1058 -12 q 835 47 892 -12 q 778 214 778 106 q 841 415 778 340 q 1013 489 904 489 q 1139 454 1085 489 m 881 197 q 906 102 881 136 q 979 68 931 68 q 1044 90 1018 68 q 1071 150 1071 113 q 1049 206 1071 182 q 982 229 1028 229 q 881 197 917 229 m 69 447 l 117 524 q 239 482 169 482 q 309 500 278 482 q 340 560 340 518 q 313 615 340 596 q 240 635 285 635 q 156 618 193 635 l 108 657 l 154 885 l 418 885 l 418 797 l 229 797 l 211 703 q 276 711 238 711 q 394 672 346 711 q 443 561 443 632 q 388 443 443 492 q 244 394 333 394 q 69 447 142 394 z "},"⅛":{"ha":1239,"x_min":75,"x_max":1154,"o":"m 240 0 l 803 875 l 921 875 l 358 0 l 240 0 m 236 411 l 236 774 l 114 713 l 75 792 l 250 885 l 343 885 l 343 411 l 236 411 m 864 254 q 788 360 788 292 q 835 454 788 419 q 957 489 883 489 q 1081 455 1033 489 q 1129 360 1129 421 q 1053 254 1129 292 q 1124 207 1094 239 q 1154 129 1154 175 q 1101 26 1154 64 q 957 -12 1047 -12 q 815 26 867 -12 q 763 129 763 64 q 864 254 763 213 m 957 218 q 868 132 868 194 q 957 68 868 68 q 1021 84 994 68 q 1047 132 1047 100 q 957 218 1047 188 m 958 288 q 1033 357 1033 311 q 1013 401 1033 385 q 957 417 992 417 q 903 401 924 417 q 883 357 883 385 q 958 288 883 308 z "},"⅜":{"ha":1239,"x_min":57,"x_max":1181,"o":"m 272 0 l 835 875 l 953 875 l 390 0 l 272 0 m 890 254 q 814 360 814 292 q 862 454 814 419 q 983 489 910 489 q 1108 455 1060 489 q 1156 360 1156 421 q 1079 254 1156 292 q 1151 207 1121 239 q 1181 129 1181 175 q 1127 26 1181 64 q 983 -12 1074 -12 q 841 26 893 -12 q 789 129 789 64 q 890 254 789 213 m 983 218 q 894 132 894 194 q 983 68 894 68 q 1047 84 1021 68 q 1074 132 1074 100 q 983 218 1074 188 m 985 288 q 1060 357 1060 311 q 1039 401 1060 385 q 983 417 1018 417 q 930 401 950 417 q 910 357 910 385 q 985 288 910 308 m 57 449 l 107 525 q 228 483 157 483 q 299 502 272 483 q 325 557 325 521 q 225 631 325 631 q 164 622 189 631 l 143 665 l 292 799 l 94 799 l 94 885 l 411 885 l 411 806 l 289 693 q 394 648 358 686 q 431 550 431 610 q 375 440 431 483 q 229 397 319 397 q 57 449 128 397 z "},"⅝":{"ha":1239,"x_min":63,"x_max":1178,"o":"m 268 0 l 831 875 l 949 875 l 386 0 l 268 0 m 63 447 l 110 524 q 232 482 163 482 q 302 500 271 482 q 333 560 333 518 q 306 615 333 596 q 233 635 278 635 q 149 618 186 635 l 101 657 l 147 885 l 411 885 l 411 797 l 222 797 l 204 703 q 269 711 231 711 q 388 672 339 711 q 436 561 436 632 q 381 443 436 492 q 238 394 326 394 q 63 447 135 394 m 888 254 q 811 360 811 292 q 859 454 811 419 q 981 489 907 489 q 1105 455 1057 489 q 1153 360 1153 421 q 1076 254 1153 292 q 1148 207 1118 239 q 1178 129 1178 175 q 1124 26 1178 64 q 981 -12 1071 -12 q 838 26 890 -12 q 786 129 786 64 q 888 254 786 213 m 981 218 q 892 132 892 194 q 981 68 892 68 q 1044 84 1018 68 q 1071 132 1071 100 q 981 218 1071 188 m 982 288 q 1057 357 1057 311 q 1036 401 1057 385 q 981 417 1015 417 q 927 401 947 417 q 907 357 907 385 q 982 288 907 308 z "},"⅞":{"ha":1239,"x_min":81,"x_max":1157,"o":"m 233 0 l 796 875 l 914 875 l 351 0 l 233 0 m 867 254 q 790 360 790 292 q 838 454 790 419 q 960 489 886 489 q 1084 455 1036 489 q 1132 360 1132 421 q 1056 254 1132 292 q 1127 207 1097 239 q 1157 129 1157 175 q 1103 26 1157 64 q 960 -12 1050 -12 q 817 26 869 -12 q 765 129 765 64 q 867 254 765 213 m 960 218 q 871 132 871 194 q 960 68 871 68 q 1024 84 997 68 q 1050 132 1050 100 q 960 218 1050 188 m 961 288 q 1036 357 1036 311 q 1015 401 1036 385 q 960 417 994 417 q 906 401 926 417 q 886 357 886 385 q 961 288 886 308 m 254 411 l 140 411 q 331 799 211 607 l 81 799 l 81 885 l 438 885 l 438 797 q 338 615 397 735 q 254 411 279 494 z "},"∂":{"ha":769,"x_min":58,"x_max":708,"o":"m 214 749 l 160 847 q 403 918 272 918 q 629 813 550 918 q 708 536 708 707 q 606 127 708 278 q 318 -24 503 -24 q 126 45 193 -24 q 58 226 58 114 q 148 465 58 364 q 375 567 238 567 q 586 496 490 567 l 586 553 q 536 730 586 658 q 389 801 486 801 q 214 749 285 801 m 569 376 q 371 451 479 451 q 231 385 281 451 q 182 242 182 319 q 222 128 182 168 q 331 88 263 88 q 483 159 421 88 q 569 376 546 231 z "},"∆":{"ha":954,"x_min":47,"x_max":907,"o":"m 47 0 l 47 119 l 411 926 l 543 926 l 907 119 l 907 0 l 47 0 m 179 119 l 772 119 l 472 783 l 179 119 z "},"∏":{"ha":1006,"x_min":25,"x_max":978,"o":"m 176 -168 l 176 807 l 25 807 l 25 926 l 978 926 l 978 807 l 826 807 l 826 -168 l 694 -168 l 694 807 l 308 807 l 308 -168 l 176 -168 z "},"∑":{"ha":774,"x_min":58,"x_max":719,"o":"m 58 -168 l 58 -47 l 358 390 l 60 807 l 60 926 l 718 926 l 718 807 l 214 807 l 510 390 l 211 -47 l 719 -47 l 719 -168 l 58 -168 z "},"−":{"ha":757,"x_min":101,"x_max":656,"o":"m 101 390 l 101 499 l 656 499 l 656 390 l 101 390 z "},"∕":{"ha":276,"x_min":-201,"x_max":479,"o":"m -201 0 l 361 875 l 479 875 l -83 0 l -201 0 z "},"∙":{"ha":333,"x_min":97,"x_max":236,"o":"m 97 429 l 97 564 l 236 564 l 236 429 l 97 429 z "},"√":{"ha":797,"x_min":35,"x_max":786,"o":"m 338 0 l 142 406 l 35 406 l 35 525 l 222 525 l 397 146 l 663 1017 l 786 1017 l 481 0 l 338 0 z "},"∞":{"ha":949,"x_min":51,"x_max":896,"o":"m 474 301 q 396 220 447 253 q 279 188 344 188 q 115 256 179 188 q 51 440 51 325 q 115 624 51 556 q 279 693 179 693 q 396 660 344 693 q 474 579 447 628 q 553 660 501 628 q 671 693 604 693 q 833 624 769 693 q 896 440 896 556 q 832 256 896 325 q 668 188 768 188 q 551 220 601 188 q 474 301 500 253 m 425 440 q 373 542 413 503 q 285 582 333 582 q 196 540 228 582 q 164 440 164 497 q 196 341 164 383 q 285 299 228 299 q 373 338 333 299 q 425 440 413 378 m 522 440 q 574 338 535 378 q 663 299 614 299 q 751 341 719 299 q 783 440 783 383 q 751 540 783 497 q 663 582 719 582 q 574 542 614 582 q 522 440 535 503 z "},"∫":{"ha":751,"x_min":18,"x_max":725,"o":"m 18 -99 l 82 -17 q 192 -60 133 -60 q 283 -19 257 -60 q 310 113 310 22 l 310 635 q 535 950 310 950 q 725 879 650 950 l 663 796 q 551 840 610 840 q 459 797 485 840 q 433 668 433 754 l 433 140 q 207 -169 433 -169 q 18 -99 89 -169 z "},"≈":{"ha":757,"x_min":104,"x_max":651,"o":"m 594 644 l 651 564 q 486 479 579 479 q 399 503 443 479 q 268 543 326 543 q 163 490 219 543 q 133 529 153 503 q 104 569 114 556 q 274 656 190 656 q 392 614 317 656 q 474 590 436 590 q 594 644 536 590 m 594 399 l 651 318 q 486 233 579 233 q 399 257 443 233 q 268 297 326 297 q 163 244 219 297 q 133 283 153 257 q 104 324 114 310 q 274 410 190 410 q 392 368 317 410 q 474 344 436 344 q 594 399 536 344 z "},"≠":{"ha":757,"x_min":101,"x_max":656,"o":"m 157 156 l 219 264 l 101 264 l 101 372 l 283 372 l 361 506 l 101 506 l 101 614 l 425 614 l 517 769 l 597 728 l 531 614 l 656 614 l 656 506 l 467 506 l 389 372 l 656 372 l 656 264 l 325 264 l 238 113 l 157 156 z "},"≤":{"ha":757,"x_min":71,"x_max":633,"o":"m 78 460 l 78 540 l 586 807 l 633 713 l 224 500 l 633 288 l 586 193 l 78 460 m 71 0 l 71 108 l 625 108 l 625 0 l 71 0 z "},"≥":{"ha":757,"x_min":124,"x_max":686,"o":"m 171 193 l 124 288 l 533 500 l 124 713 l 171 807 l 679 540 l 679 460 l 171 193 m 132 0 l 132 108 l 686 108 l 686 0 l 132 0 z "},"◊":{"ha":800,"x_min":49,"x_max":749,"o":"m 329 0 l 49 463 l 329 926 l 468 926 l 749 463 l 468 0 l 329 0 m 399 103 l 613 463 l 399 822 l 186 463 l 399 103 z "},"":{"ha":1239,"x_min":86,"x_max":1142,"o":"m 246 0 l 808 875 l 926 875 l 364 0 l 246 0 m 247 411 l 247 774 l 125 713 l 86 792 l 261 885 l 354 885 l 354 411 l 247 411 m 958 1 l 844 1 q 1035 389 915 197 l 785 389 l 785 475 l 1142 475 l 1142 388 q 1042 205 1101 325 q 958 1 983 85 z "},"":{"ha":1239,"x_min":68,"x_max":1168,"o":"m 282 0 l 844 875 l 963 875 l 400 0 l 282 0 m 76 411 l 76 469 q 115 558 76 517 q 198 624 153 600 q 281 681 243 649 q 319 747 319 714 q 299 792 319 778 q 247 807 278 807 q 114 750 179 807 l 68 824 q 260 899 149 899 q 390 858 346 899 q 435 754 435 817 q 402 663 435 703 q 328 602 369 622 q 247 554 288 582 q 196 500 207 526 l 436 500 l 436 411 l 76 411 m 985 1 l 871 1 q 1061 389 942 197 l 811 389 l 811 475 l 1168 475 l 1168 388 q 1069 205 1128 325 q 985 1 1010 85 z "},"":{"ha":1239,"x_min":68,"x_max":1168,"o":"m 268 0 l 831 875 l 949 875 l 386 0 l 268 0 m 985 1 l 871 1 q 1061 389 942 197 l 811 389 l 811 475 l 1168 475 l 1168 388 q 1069 205 1128 325 q 985 1 1010 85 m 68 449 l 118 525 q 239 483 168 483 q 310 502 283 483 q 336 557 336 521 q 236 631 336 631 q 175 622 200 631 l 154 665 l 303 799 l 106 799 l 106 885 l 422 885 l 422 806 l 300 693 q 406 648 369 686 q 442 550 442 610 q 386 440 442 483 q 240 397 331 397 q 68 449 139 397 z "},"":{"ha":1239,"x_min":61,"x_max":1172,"o":"m 285 0 l 847 875 l 965 875 l 403 0 l 285 0 m 61 503 l 61 582 l 310 885 l 415 885 l 415 583 l 474 583 l 474 503 l 415 503 l 415 413 l 319 413 l 319 503 l 61 503 m 153 583 l 319 583 l 319 783 l 153 583 m 989 1 l 875 1 q 1065 389 946 197 l 815 389 l 815 475 l 1172 475 l 1172 388 q 1073 205 1132 325 q 989 1 1014 85 z "},"":{"ha":1239,"x_min":72,"x_max":1165,"o":"m 267 0 l 829 875 l 947 875 l 385 0 l 267 0 m 72 447 l 119 524 q 242 482 172 482 q 312 500 281 482 q 343 560 343 518 q 315 615 343 596 q 243 635 288 635 q 158 618 196 635 l 111 657 l 157 885 l 421 885 l 421 797 l 232 797 l 214 703 q 279 711 240 711 q 397 672 349 711 q 446 561 446 632 q 391 443 446 492 q 247 394 336 394 q 72 447 144 394 m 982 1 l 868 1 q 1058 389 939 197 l 808 389 l 808 475 l 1165 475 l 1165 388 q 1066 205 1125 325 q 982 1 1007 85 z "},"":{"ha":1239,"x_min":65,"x_max":1171,"o":"m 278 0 l 840 875 l 958 875 l 396 0 l 278 0 m 426 864 l 388 788 q 303 811 353 811 q 210 775 246 811 q 169 683 174 739 q 288 717 228 717 q 406 676 358 717 q 454 560 454 636 q 400 443 454 489 q 269 397 346 397 q 122 456 179 397 q 65 624 65 515 q 128 824 65 750 q 300 899 192 899 q 426 864 372 899 m 168 607 q 193 512 168 546 q 267 478 218 478 q 332 500 306 478 q 358 560 358 522 q 337 615 358 592 q 269 639 315 639 q 168 607 204 639 m 988 1 l 874 1 q 1064 389 944 197 l 814 389 l 814 475 l 1171 475 l 1171 388 q 1072 205 1131 325 q 988 1 1013 85 z "},"":{"ha":1239,"x_min":83,"x_max":1156,"o":"m 239 0 l 801 875 l 919 875 l 357 0 l 239 0 m 244 411 l 244 774 l 122 713 l 83 792 l 258 885 l 351 885 l 351 411 l 244 411 m 792 21 l 831 99 q 925 74 872 74 q 1015 109 983 74 q 1053 203 1047 144 q 933 169 1001 169 q 815 210 863 169 q 767 326 767 250 q 821 443 767 397 q 951 489 875 489 q 1099 429 1042 489 q 1156 261 1156 369 q 1095 60 1156 133 q 921 -12 1035 -12 q 792 21 843 -12 m 1053 279 q 1028 372 1053 336 q 954 408 1004 408 q 889 386 915 408 q 863 326 863 364 q 883 270 863 293 q 951 247 904 247 q 1053 279 1013 247 z "},"":{"ha":1239,"x_min":60,"x_max":1176,"o":"m 274 0 l 836 875 l 954 875 l 392 0 l 274 0 m 68 411 l 68 469 q 106 558 68 517 q 190 624 144 600 q 273 681 235 649 q 311 747 311 714 q 290 792 311 778 q 239 807 269 807 q 106 750 171 807 l 60 824 q 251 899 140 899 q 382 858 338 899 q 426 754 426 817 q 394 663 426 703 q 320 602 361 622 q 239 554 279 582 q 188 500 199 526 l 428 500 l 428 411 l 68 411 m 813 21 l 851 99 q 946 74 893 74 q 1036 109 1004 74 q 1074 203 1068 144 q 954 169 1022 169 q 835 210 883 169 q 788 326 788 250 q 842 443 788 397 q 972 489 896 489 q 1119 429 1063 489 q 1176 261 1176 369 q 1116 60 1176 133 q 942 -12 1056 -12 q 813 21 864 -12 m 1074 279 q 1049 372 1074 336 q 975 408 1025 408 q 910 386 936 408 q 883 326 883 364 q 904 270 883 293 q 972 247 925 247 q 1074 279 1033 247 z "},"":{"ha":1239,"x_min":51,"x_max":1179,"o":"m 281 0 l 843 875 l 961 875 l 399 0 l 281 0 m 51 503 l 51 582 l 300 885 l 406 885 l 406 583 l 464 583 l 464 503 l 406 503 l 406 413 l 310 413 l 310 503 l 51 503 m 143 583 l 310 583 l 310 783 l 143 583 m 815 21 l 854 99 q 949 74 896 74 q 1039 109 1007 74 q 1076 203 1071 144 q 957 169 1025 169 q 838 210 886 169 q 790 326 790 250 q 844 443 790 397 q 975 489 899 489 q 1122 429 1065 489 q 1179 261 1179 369 q 1119 60 1179 133 q 944 -12 1058 -12 q 815 21 867 -12 m 1076 279 q 1052 372 1076 336 q 978 408 1028 408 q 913 386 939 408 q 886 326 886 364 q 907 270 886 293 q 975 247 928 247 q 1076 279 1036 247 z "},"":{"ha":1239,"x_min":64,"x_max":1172,"o":"m 265 0 l 828 875 l 946 875 l 383 0 l 265 0 m 64 447 l 111 524 q 233 482 164 482 q 303 500 272 482 q 335 560 335 518 q 307 615 335 596 q 235 635 279 635 q 150 618 188 635 l 103 657 l 149 885 l 413 885 l 413 797 l 224 797 l 206 703 q 271 711 232 711 q 389 672 340 711 q 438 561 438 632 q 383 443 438 492 q 239 394 328 394 q 64 447 136 394 m 808 21 l 847 99 q 942 74 889 74 q 1032 109 1000 74 q 1069 203 1064 144 q 950 169 1018 169 q 831 210 879 169 q 783 326 783 250 q 838 443 783 397 q 968 489 892 489 q 1115 429 1058 489 q 1172 261 1172 369 q 1112 60 1172 133 q 938 -12 1051 -12 q 808 21 860 -12 m 1069 279 q 1045 372 1069 336 q 971 408 1021 408 q 906 386 932 408 q 879 326 879 364 q 900 270 879 293 q 968 247 921 247 q 1069 279 1029 247 z "},"":{"ha":1239,"x_min":75,"x_max":1144,"o":"m 218 0 l 781 875 l 899 875 l 336 0 l 218 0 m 781 21 l 819 99 q 914 74 861 74 q 1004 109 972 74 q 1042 203 1036 144 q 922 169 990 169 q 803 210 851 169 q 756 326 756 250 q 810 443 756 397 q 940 489 864 489 q 1088 429 1031 489 q 1144 261 1144 369 q 1084 60 1144 133 q 910 -12 1024 -12 q 781 21 832 -12 m 1042 279 q 1017 372 1042 336 q 943 408 993 408 q 878 386 904 408 q 851 326 851 364 q 872 270 851 293 q 940 247 893 247 q 1042 279 1001 247 m 249 411 l 135 411 q 325 799 206 607 l 75 799 l 75 885 l 432 885 l 432 797 q 333 615 392 735 q 249 411 274 494 z "},"":{"ha":1239,"x_min":57,"x_max":1179,"o":"m 281 0 l 843 875 l 961 875 l 399 0 l 281 0 m 815 21 l 854 99 q 949 74 896 74 q 1039 109 1007 74 q 1076 203 1071 144 q 957 169 1025 169 q 838 210 886 169 q 790 326 790 250 q 844 443 790 397 q 975 489 899 489 q 1122 429 1065 489 q 1179 261 1179 369 q 1119 60 1179 133 q 944 -12 1058 -12 q 815 21 867 -12 m 1076 279 q 1052 372 1076 336 q 978 408 1028 408 q 913 386 939 408 q 886 326 886 364 q 907 270 886 293 q 975 247 928 247 q 1076 279 1036 247 m 158 664 q 82 769 82 701 q 130 864 82 829 q 251 899 178 899 q 376 865 328 899 q 424 769 424 831 q 347 664 424 701 q 419 617 389 649 q 449 539 449 585 q 395 435 449 474 q 251 397 342 397 q 109 435 161 397 q 57 539 57 474 q 158 664 57 622 m 251 628 q 163 542 163 604 q 251 478 163 478 q 315 494 289 478 q 342 542 342 510 q 251 628 342 597 m 253 697 q 328 767 328 721 q 307 810 328 794 q 251 826 286 826 q 198 810 218 826 q 178 767 178 794 q 253 697 178 718 z "},"":{"ha":790,"x_min":61,"x_max":729,"o":"m 642 106 q 598 43 642 106 q 394 -19 554 -19 q 148 106 235 -19 q 61 447 61 232 q 149 778 61 657 q 396 900 236 900 q 642 779 556 900 q 729 447 729 658 q 642 106 729 232 m 244 192 q 271 144 244 192 q 394 96 297 96 q 545 192 492 96 q 599 447 599 288 q 545 694 599 604 q 394 783 492 783 q 244 694 297 783 q 192 447 192 604 q 244 192 192 288 z "},"":{"ha":596,"x_min":43,"x_max":554,"o":"m 119 0 l 119 111 l 275 111 l 275 743 l 94 646 l 43 744 l 289 879 l 401 879 l 401 111 l 554 111 l 554 0 l 119 0 z "},"":{"ha":694,"x_min":57,"x_max":626,"o":"m 71 0 l 71 90 q 189 324 71 206 q 328 447 240 375 q 449 560 417 518 q 482 658 482 603 q 445 747 482 707 q 333 786 408 786 q 247 767 286 786 q 190 728 208 747 q 150 679 172 710 l 57 746 q 163 854 92 808 q 342 900 233 900 q 546 833 475 900 q 617 667 617 765 q 564 508 617 578 q 419 367 511 439 q 309 276 346 310 q 241 199 272 243 q 210 114 210 154 l 626 114 l 626 0 l 71 0 z "},"":{"ha":704,"x_min":24,"x_max":621,"o":"m 24 74 l 97 164 q 299 88 190 88 q 438 135 386 88 q 489 261 489 182 q 444 379 489 335 q 317 424 399 424 q 231 408 272 424 l 190 474 l 436 760 l 86 760 l 86 875 l 589 875 l 589 775 l 364 513 q 551 443 481 513 q 621 260 621 374 q 530 51 621 126 q 297 -24 439 -24 q 24 74 135 -24 z "},"":{"ha":732,"x_min":60,"x_max":678,"o":"m 60 182 l 60 289 l 457 876 l 583 876 l 583 290 l 678 290 l 678 182 l 583 182 l 583 0 l 463 0 l 463 182 l 60 182 m 183 290 l 463 290 l 463 708 l 183 290 z "},"":{"ha":710,"x_min":28,"x_max":624,"o":"m 28 72 l 99 164 q 300 89 188 89 q 443 141 393 89 q 493 274 493 193 q 450 394 493 342 q 307 446 407 446 q 156 410 231 446 l 92 458 l 175 875 l 604 875 l 604 758 l 263 758 l 222 529 q 340 553 261 553 q 546 480 468 553 q 624 278 624 407 q 540 62 624 147 q 293 -24 456 -24 q 28 72 133 -24 z "},"":{"ha":746,"x_min":83,"x_max":683,"o":"m 660 840 l 603 742 q 454 786 540 786 q 279 699 344 786 q 211 489 214 611 q 414 558 311 558 q 612 483 540 558 q 683 271 683 407 q 602 59 683 142 q 396 -24 521 -24 q 165 82 246 -24 q 83 396 83 188 q 181 765 83 632 q 458 899 278 899 q 660 840 568 899 m 210 379 q 394 88 210 88 q 514 138 464 88 q 564 274 564 189 q 524 400 564 353 q 401 447 485 447 q 210 379 288 447 z "},"":{"ha":649,"x_min":35,"x_max":594,"o":"m 268 0 l 133 0 q 297 418 193 186 q 465 758 400 650 l 35 758 l 35 876 l 594 876 l 594 763 q 422 411 531 664 q 268 0 313 158 z "},"":{"ha":769,"x_min":67,"x_max":701,"o":"m 385 526 q 492 588 453 547 q 532 682 532 629 q 491 767 532 733 q 385 801 450 801 q 278 767 318 801 q 238 675 238 733 q 276 588 238 628 q 385 526 315 547 m 379 419 q 248 350 300 399 q 196 239 196 301 q 253 122 196 161 q 385 83 310 83 q 517 122 461 83 q 572 239 572 161 q 516 350 572 301 q 379 419 460 399 m 250 478 q 117 675 117 549 q 190 838 117 775 q 385 900 263 900 q 581 840 511 900 q 651 683 651 779 q 615 565 651 618 q 513 482 579 513 q 642 390 583 450 q 701 236 701 329 q 622 56 701 135 q 385 -22 542 -22 q 146 56 225 -22 q 67 235 67 133 q 119 381 67 319 q 250 478 171 443 z "},"":{"ha":750,"x_min":64,"x_max":668,"o":"m 93 36 l 147 138 q 307 90 222 90 q 476 174 418 90 q 540 383 535 258 q 335 315 458 315 q 138 395 211 315 q 64 604 64 475 q 147 817 64 733 q 356 900 229 900 q 587 794 506 900 q 668 479 668 688 q 574 113 668 246 q 304 -21 481 -21 q 93 36 181 -21 m 542 496 q 357 788 542 788 q 235 738 286 788 q 183 603 183 688 q 225 478 183 526 q 353 429 267 429 q 542 496 465 429 z "},"":{"ha":500,"x_min":32,"x_max":463,"o":"m 403 588 q 374 555 403 588 q 247 522 344 522 q 91 588 150 522 q 32 774 32 653 q 91 959 32 894 q 247 1024 150 1024 q 403 959 344 1024 q 463 774 463 894 q 403 588 463 653 m 247 610 q 322 649 290 610 q 354 774 354 689 q 322 897 354 858 q 247 936 290 936 q 171 897 203 936 q 139 774 139 858 q 171 649 139 689 q 247 610 203 610 z "},"":{"ha":500,"x_min":86,"x_max":354,"o":"m 247 536 l 247 899 l 125 838 l 86 917 l 261 1010 l 354 1010 l 354 536 l 247 536 z "},"":{"ha":500,"x_min":60,"x_max":428,"o":"m 68 536 l 68 594 q 106 683 68 642 q 190 749 144 725 q 273 806 235 774 q 311 872 311 839 q 290 917 311 903 q 239 932 269 932 q 106 875 171 932 l 60 949 q 251 1024 140 1024 q 382 983 338 1024 q 426 879 426 942 q 394 788 426 828 q 320 727 361 747 q 239 679 279 707 q 188 625 199 651 l 428 625 l 428 536 l 68 536 z "},"":{"ha":500,"x_min":47,"x_max":421,"o":"m 47 574 l 97 650 q 218 608 147 608 q 289 627 263 608 q 315 682 315 646 q 215 756 315 756 q 154 747 179 756 l 133 790 l 282 924 l 85 924 l 85 1010 l 401 1010 l 401 931 l 279 818 q 385 773 349 811 q 421 675 421 735 q 365 565 421 608 q 219 522 310 522 q 47 574 118 522 z "},"":{"ha":500,"x_min":49,"x_max":461,"o":"m 49 628 l 49 707 l 297 1010 l 403 1010 l 403 708 l 461 708 l 461 628 l 403 628 l 403 538 l 307 538 l 307 628 l 49 628 m 140 708 l 307 708 l 307 908 l 140 708 z "},"":{"ha":500,"x_min":51,"x_max":425,"o":"m 51 572 l 99 649 q 221 607 151 607 q 291 625 260 607 q 322 685 322 643 q 294 740 322 721 q 222 760 267 760 q 138 743 175 760 l 90 782 l 136 1010 l 400 1010 l 400 922 l 211 922 l 193 828 q 258 836 219 836 q 376 797 328 836 q 425 686 425 757 q 370 568 425 617 q 226 519 315 519 q 51 572 124 519 z "},"":{"ha":500,"x_min":56,"x_max":444,"o":"m 417 989 l 378 913 q 293 936 343 936 q 200 900 236 936 q 160 808 164 864 q 278 842 218 842 q 397 801 349 842 q 444 685 444 761 q 390 568 444 614 q 260 522 336 522 q 113 581 169 522 q 56 749 56 640 q 119 949 56 875 q 290 1024 182 1024 q 417 989 363 1024 m 158 732 q 183 637 158 671 q 257 603 208 603 q 322 625 296 603 q 349 685 349 647 q 327 740 349 717 q 260 764 306 764 q 158 732 194 764 z "},"":{"ha":500,"x_min":65,"x_max":422,"o":"m 239 536 l 125 536 q 315 924 196 732 l 65 924 l 65 1010 l 422 1010 l 422 922 q 323 740 382 860 q 239 536 264 619 z "},"":{"ha":500,"x_min":54,"x_max":446,"o":"m 156 789 q 79 894 79 826 q 127 989 79 954 q 249 1024 175 1024 q 373 990 325 1024 q 421 894 421 956 q 344 789 421 826 q 416 742 386 774 q 446 664 446 710 q 392 560 446 599 q 249 522 339 522 q 106 560 158 522 q 54 664 54 599 q 156 789 54 747 m 249 753 q 160 667 160 729 q 249 603 160 603 q 313 619 286 603 q 339 667 339 635 q 249 753 339 722 m 250 822 q 325 892 325 846 q 304 935 325 919 q 249 951 283 951 q 195 935 215 951 q 175 892 175 919 q 250 822 175 843 z "},"":{"ha":500,"x_min":50,"x_max":439,"o":"m 75 556 l 114 633 q 208 608 156 608 q 299 644 267 608 q 336 738 331 679 q 217 704 285 704 q 98 744 146 704 q 50 861 50 785 q 104 978 50 932 q 235 1024 158 1024 q 382 964 325 1024 q 439 796 439 904 q 378 595 439 668 q 204 522 318 522 q 75 556 126 522 m 336 814 q 312 907 336 871 q 238 943 288 943 q 172 921 199 943 q 146 861 146 899 q 167 805 146 828 q 235 782 188 782 q 336 814 296 782 z "},"":{"ha":500,"x_min":32,"x_max":463,"o":"m 403 -72 q 374 -105 403 -72 q 247 -137 344 -137 q 91 -72 150 -137 q 32 114 32 -7 q 91 299 32 235 q 247 364 150 364 q 403 299 344 364 q 463 114 463 235 q 403 -72 463 -7 m 247 -50 q 322 -10 290 -50 q 354 114 354 29 q 322 238 354 199 q 247 276 290 276 q 171 238 203 276 q 139 114 139 199 q 171 -10 139 29 q 247 -50 203 -50 z "},"":{"ha":500,"x_min":86,"x_max":354,"o":"m 247 -124 l 247 239 l 125 178 l 86 257 l 261 350 l 354 350 l 354 -124 l 247 -124 z "},"":{"ha":500,"x_min":60,"x_max":428,"o":"m 68 -124 l 68 -65 q 106 24 68 -18 q 190 90 144 65 q 273 147 235 114 q 311 213 311 179 q 290 258 311 243 q 239 272 269 272 q 106 215 171 272 l 60 289 q 251 364 140 364 q 382 323 338 364 q 426 219 426 282 q 394 128 426 168 q 320 67 361 88 q 239 19 279 47 q 188 -35 199 -8 l 428 -35 l 428 -124 l 68 -124 z "},"":{"ha":500,"x_min":47,"x_max":421,"o":"m 47 -86 l 97 -10 q 218 -51 147 -51 q 289 -33 263 -51 q 315 22 315 -14 q 215 96 315 96 q 154 88 179 96 l 133 131 l 282 264 l 85 264 l 85 350 l 401 350 l 401 271 l 279 158 q 385 113 349 151 q 421 15 421 75 q 365 -94 421 -51 q 219 -137 310 -137 q 47 -86 118 -137 z "},"":{"ha":500,"x_min":49,"x_max":461,"o":"m 49 -32 l 49 47 l 297 350 l 403 350 l 403 49 l 461 49 l 461 -32 l 403 -32 l 403 -122 l 307 -122 l 307 -32 l 49 -32 m 140 49 l 307 49 l 307 249 l 140 49 z "},"":{"ha":500,"x_min":51,"x_max":425,"o":"m 51 -87 l 99 -11 q 221 -53 151 -53 q 291 -35 260 -53 q 322 25 322 -17 q 294 81 322 61 q 222 100 267 100 q 138 83 175 100 l 90 122 l 136 350 l 400 350 l 400 263 l 211 263 l 193 168 q 258 176 219 176 q 376 137 328 176 q 425 26 425 97 q 370 -92 425 -43 q 226 -140 315 -140 q 51 -87 124 -140 z "},"":{"ha":500,"x_min":56,"x_max":444,"o":"m 417 329 l 378 253 q 293 276 343 276 q 200 240 236 276 q 160 149 164 204 q 278 182 218 182 q 397 142 349 182 q 444 25 444 101 q 390 -92 444 -46 q 260 -137 336 -137 q 113 -78 169 -137 q 56 89 56 -19 q 119 290 56 215 q 290 364 182 364 q 417 329 363 364 m 158 72 q 183 -23 158 11 q 257 -57 208 -57 q 322 -35 296 -57 q 349 25 349 -12 q 327 81 349 57 q 260 104 306 104 q 158 72 194 104 z "},"":{"ha":500,"x_min":65,"x_max":422,"o":"m 239 -124 l 125 -124 q 315 264 196 72 l 65 264 l 65 350 l 422 350 l 422 263 q 323 80 382 200 q 239 -124 264 -40 z "},"":{"ha":500,"x_min":54,"x_max":446,"o":"m 156 129 q 79 235 79 167 q 127 329 79 294 q 249 364 175 364 q 373 330 325 364 q 421 235 421 296 q 344 129 421 167 q 416 82 386 114 q 446 4 446 50 q 392 -99 446 -61 q 249 -137 339 -137 q 106 -99 158 -137 q 54 4 54 -61 q 156 129 54 88 m 249 93 q 160 7 160 69 q 249 -57 160 -57 q 313 -41 286 -57 q 339 7 339 -25 q 249 93 339 63 m 250 163 q 325 232 325 186 q 304 276 325 260 q 249 292 283 292 q 195 276 215 292 q 175 232 175 260 q 250 163 175 183 z "},"":{"ha":500,"x_min":50,"x_max":439,"o":"m 75 -104 l 114 -26 q 208 -51 156 -51 q 299 -16 267 -51 q 336 78 331 19 q 217 44 285 44 q 98 85 146 44 q 50 201 50 125 q 104 318 50 272 q 235 364 158 364 q 382 304 325 364 q 439 136 439 244 q 378 -65 439 8 q 204 -137 318 -137 q 75 -104 126 -137 m 336 154 q 312 247 336 211 q 238 283 288 283 q 172 261 199 283 q 146 201 146 239 q 167 145 146 168 q 235 122 188 122 q 336 154 296 122 z "},"ﬀ":{"ha":885,"x_min":17,"x_max":976,"o":"m 135 0 l 135 542 l 17 542 l 17 646 l 135 646 l 135 690 q 201 887 135 824 q 356 950 268 950 q 538 879 461 950 l 476 799 q 372 842 428 842 q 260 694 260 842 l 260 646 l 561 646 l 561 694 q 626 885 561 819 q 785 950 690 950 q 976 879 901 950 l 914 799 q 804 842 863 842 q 686 690 686 842 l 686 646 l 869 646 l 869 542 l 686 542 l 686 0 l 561 0 l 561 542 l 260 542 l 260 0 l 135 0 z "},"ﬁ":{"ha":756,"x_min":18,"x_max":664,"o":"m 135 0 l 135 542 l 18 542 l 18 646 l 135 646 l 135 674 q 216 883 135 815 q 432 950 297 950 q 663 879 561 950 l 606 786 q 432 843 526 843 q 303 808 346 843 q 260 689 260 772 l 260 646 l 664 646 l 664 0 l 539 0 l 539 542 l 260 542 l 260 0 l 135 0 z "},"ﬂ":{"ha":765,"x_min":18,"x_max":679,"o":"m 135 0 l 135 542 l 18 542 l 18 646 l 135 646 l 135 678 q 429 950 135 950 q 576 929 507 950 q 679 885 646 908 l 679 0 l 554 0 l 554 821 q 428 843 508 843 q 298 806 336 843 q 260 678 260 768 l 260 646 l 443 646 l 443 542 l 260 542 l 260 0 l 135 0 z "},"ﬃ":{"ha":1182,"x_min":17,"x_max":1090,"o":"m 135 0 l 135 542 l 17 542 l 17 646 l 135 646 l 135 690 q 201 887 135 824 q 356 950 268 950 q 538 879 461 950 l 476 799 q 372 842 428 842 q 260 694 260 842 l 260 646 l 561 646 l 561 674 q 642 883 561 815 q 858 950 724 950 q 1089 879 988 950 l 1032 786 q 858 843 953 843 q 729 808 772 843 q 686 689 686 772 l 686 646 l 1090 646 l 1090 0 l 965 0 l 965 542 l 686 542 l 686 0 l 561 0 l 561 542 l 260 542 l 260 0 l 135 0 z "},"ﬄ":{"ha":1192,"x_min":17,"x_max":1106,"o":"m 135 0 l 135 542 l 17 542 l 17 646 l 135 646 l 135 690 q 201 887 135 824 q 356 950 268 950 q 538 879 461 950 l 476 799 q 372 842 428 842 q 260 694 260 842 l 260 646 l 561 646 l 561 678 q 856 950 561 950 q 1003 929 933 950 q 1106 885 1072 908 l 1106 0 l 981 0 l 981 821 q 854 843 935 843 q 724 806 763 843 q 686 678 686 768 l 686 646 l 869 646 l 869 542 l 686 542 l 686 0 l 561 0 l 561 542 l 260 542 l 260 0 l 135 0 z "}}}
